<svg width="1322" height="424" viewBox="0 0 1322 424" fill="none" xmlns="http://www.w3.org/2000/svg">
<path d="M12.9261 232.111V216.699C26.7637 216.699 36.4169 213.799 41.8857 207.999C47.4373 202.198 50.2131 192.504 50.2131 178.915V139.142C50.2131 127.707 51.2902 117.806 53.4446 109.437C55.6818 101.068 59.2862 94.1491 64.2578 88.6804C69.2294 83.2116 75.8582 79.1515 84.1442 76.5C92.4302 73.8485 102.663 72.5227 114.844 72.5227V96.8835C105.232 96.8835 97.6503 98.375 92.0987 101.358C86.63 104.341 82.7356 108.981 80.4155 115.278C78.1783 121.493 77.0597 129.447 77.0597 139.142V188.858C77.0597 195.321 76.1896 201.204 74.4496 206.507C72.7924 211.81 69.6851 216.367 65.1278 220.179C60.5705 223.991 54.0661 226.932 45.6143 229.004C37.2455 231.075 26.3494 232.111 12.9261 232.111ZM114.844 390.705C102.663 390.705 92.4302 389.379 84.1442 386.727C75.8582 384.076 69.2294 380.016 64.2578 374.547C59.2862 369.078 55.6818 362.159 53.4446 353.79C51.2902 345.422 50.2131 335.52 50.2131 324.085V284.312C50.2131 270.723 47.4373 261.029 41.8857 255.229C36.4169 249.428 26.7637 246.528 12.9261 246.528V231.116C26.3494 231.116 37.2455 232.152 45.6143 234.224C54.0661 236.295 60.5705 239.237 65.1278 243.048C69.6851 246.86 72.7924 251.417 74.4496 256.72C76.1896 262.023 77.0597 267.906 77.0597 274.369V324.085C77.0597 333.78 78.1783 341.734 80.4155 347.949C82.7356 354.163 86.63 358.762 92.0987 361.745C97.6503 364.811 105.232 366.344 114.844 366.344V390.705ZM12.9261 246.528V216.699H42.2585V246.528H12.9261ZM437.531 231.116V246.528C423.693 246.528 413.999 249.428 408.447 255.229C402.979 261.029 400.244 270.723 400.244 284.312V324.085C400.244 335.52 399.126 345.422 396.888 353.79C394.734 362.159 391.171 369.078 386.199 374.547C381.228 380.016 374.599 384.076 366.313 386.727C358.027 389.379 347.794 390.705 335.613 390.705V366.344C345.225 366.344 352.765 364.811 358.234 361.745C363.786 358.762 367.68 354.163 369.917 347.949C372.238 341.734 373.398 333.78 373.398 324.085V274.369C373.398 267.906 374.226 262.023 375.883 256.72C377.623 251.417 380.772 246.86 385.329 243.048C389.887 239.237 396.35 236.295 404.719 234.224C413.17 232.152 424.108 231.116 437.531 231.116ZM335.613 72.5227C347.794 72.5227 358.027 73.8485 366.313 76.5C374.599 79.1515 381.228 83.2116 386.199 88.6804C391.171 94.1491 394.734 101.068 396.888 109.437C399.126 117.806 400.244 127.707 400.244 139.142V178.915C400.244 192.504 402.979 202.198 408.447 207.999C413.999 213.799 423.693 216.699 437.531 216.699V232.111C424.108 232.111 413.17 231.075 404.719 229.004C396.35 226.932 389.887 223.991 385.329 220.179C380.772 216.367 377.623 211.81 375.883 206.507C374.226 201.204 373.398 195.321 373.398 188.858V139.142C373.398 129.447 372.238 121.493 369.917 115.278C367.68 108.981 363.786 104.341 358.234 101.358C352.765 98.375 345.225 96.8835 335.613 96.8835V72.5227ZM437.531 216.699V246.528H408.199V216.699H437.531ZM575.772 339V148.091H604.11V176.926H606.099C609.579 167.48 615.877 159.816 624.991 153.933C634.106 148.049 644.38 145.108 655.815 145.108C657.969 145.108 660.662 145.149 663.894 145.232C667.125 145.315 669.57 145.439 671.227 145.605V175.435C670.233 175.186 667.954 174.813 664.391 174.316C660.911 173.736 657.224 173.446 653.329 173.446C644.049 173.446 635.763 175.393 628.471 179.288C621.262 183.099 615.545 188.402 611.319 195.197C607.176 201.908 605.105 209.573 605.105 218.19V339H575.772ZM841.224 190.847L814.875 198.304C813.218 193.912 810.773 189.645 807.542 185.502C804.393 181.276 800.084 177.796 794.616 175.062C789.147 172.327 782.145 170.96 773.611 170.96C761.927 170.96 752.191 173.653 744.403 179.039C736.697 184.342 732.844 191.095 732.844 199.298C732.844 206.59 735.495 212.349 740.798 216.575C746.101 220.8 754.387 224.322 765.656 227.139L793.994 234.099C811.063 238.242 823.782 244.581 832.151 253.116C840.52 261.567 844.704 272.464 844.704 285.804C844.704 296.741 841.556 306.519 835.258 315.136C829.044 323.754 820.344 330.548 809.157 335.52C797.971 340.491 784.962 342.977 770.131 342.977C750.658 342.977 734.542 338.751 721.782 330.3C709.021 321.848 700.943 309.502 697.545 293.261L725.386 286.301C728.038 296.576 733.051 304.282 740.425 309.419C747.883 314.556 757.619 317.125 769.633 317.125C783.305 317.125 794.16 314.225 802.197 308.425C810.318 302.542 814.378 295.499 814.378 287.295C814.378 280.667 812.058 275.115 807.417 270.641C802.777 266.083 795.651 262.686 786.04 260.449L754.221 252.991C736.738 248.848 723.895 242.427 715.692 233.727C707.571 224.943 703.511 213.964 703.511 200.79C703.511 190.018 706.536 180.489 712.584 172.203C718.716 163.917 727.043 157.413 737.567 152.69C748.173 147.967 760.187 145.605 773.611 145.605C792.503 145.605 807.335 149.748 818.106 158.034C828.961 166.32 836.667 177.258 841.224 190.847ZM971.884 148.091V172.949H872.949V148.091H971.884ZM901.784 102.352H931.117V284.312C931.117 292.598 932.318 298.813 934.721 302.956C937.207 307.016 940.356 309.75 944.167 311.159C948.062 312.485 952.163 313.148 956.472 313.148C959.703 313.148 962.355 312.982 964.426 312.651C966.498 312.236 968.155 311.905 969.398 311.656L975.364 338.006C973.375 338.751 970.6 339.497 967.037 340.243C963.474 341.071 958.958 341.486 953.489 341.486C945.203 341.486 937.083 339.704 929.128 336.141C921.257 332.578 914.711 327.151 909.49 319.859C904.353 312.568 901.784 303.37 901.784 292.267V102.352ZM1094 342.977C1075.6 342.977 1059.74 338.917 1046.4 330.797C1033.14 322.594 1022.9 311.159 1015.7 296.493C1008.57 281.744 1005.01 264.592 1005.01 245.037C1005.01 225.482 1008.57 208.247 1015.7 193.332C1022.9 178.335 1032.93 166.652 1045.77 158.283C1058.7 149.831 1073.78 145.605 1091.02 145.605C1100.96 145.605 1110.78 147.262 1120.47 150.577C1130.17 153.891 1138.99 159.277 1146.95 166.734C1154.9 174.109 1161.24 183.886 1165.96 196.067C1170.69 208.247 1173.05 223.245 1173.05 241.06V253.489H1025.89V228.134H1143.22C1143.22 217.362 1141.06 207.75 1136.75 199.298C1132.53 190.847 1126.48 184.176 1118.61 179.288C1110.82 174.399 1101.62 171.955 1091.02 171.955C1079.33 171.955 1069.22 174.855 1060.69 180.655C1052.24 186.372 1045.73 193.83 1041.18 203.027C1036.62 212.224 1034.34 222.085 1034.34 232.608V249.511C1034.34 263.929 1036.83 276.151 1041.8 286.177C1046.85 296.12 1053.85 303.702 1062.8 308.922C1071.75 314.059 1082.15 316.628 1094 316.628C1101.7 316.628 1108.66 315.551 1114.88 313.396C1121.18 311.159 1126.6 307.845 1131.16 303.453C1135.72 298.979 1139.24 293.427 1141.73 286.798L1170.06 294.753C1167.08 304.365 1162.07 312.816 1155.02 320.108C1147.98 327.317 1139.28 332.951 1128.92 337.011C1118.57 340.989 1106.92 342.977 1094 342.977ZM1217.67 339V148.091H1246V176.926H1247.99C1251.47 167.48 1257.77 159.816 1266.89 153.933C1276 148.049 1286.27 145.108 1297.71 145.108C1299.86 145.108 1302.56 145.149 1305.79 145.232C1309.02 145.315 1311.46 145.439 1313.12 145.605V175.435C1312.13 175.186 1309.85 174.813 1306.29 174.316C1302.81 173.736 1299.12 173.446 1295.22 173.446C1285.94 173.446 1277.66 175.393 1270.37 179.288C1263.16 183.099 1257.44 188.402 1253.21 195.197C1249.07 201.908 1247 209.573 1247 218.19V339H1217.67Z" fill="#888888"/>
<path fill-rule="evenodd" clip-rule="evenodd" d="M303.054 158.566C303.057 158.567 303.051 158.596 303.029 158.655C303.04 158.596 303.052 158.566 303.054 158.566ZM300.897 156.761C302.049 157.822 302.601 158.57 302.854 159C302.601 159.43 302.049 160.178 300.897 161.239C298.188 163.731 293.386 166.711 286.104 169.545C271.642 175.174 250.574 179 226.5 179C202.426 179 181.358 175.174 166.896 169.545C159.614 166.711 154.812 163.731 152.103 161.239C150.951 160.178 150.399 159.43 150.146 159C150.399 158.57 150.951 157.822 152.103 156.761C154.812 154.269 159.614 151.289 166.896 148.455C181.358 142.826 202.426 139 226.5 139C250.574 139 271.642 142.826 286.104 148.455C293.386 151.289 298.188 154.269 300.897 156.761ZM149.946 158.566C149.948 158.566 149.96 158.596 149.971 158.655C149.949 158.596 149.943 158.567 149.946 158.566ZM303 179.244C286.352 188.755 258.3 195 226.5 195C194.7 195 166.648 188.755 150 179.244L150 195H150.146C150.399 195.43 150.951 196.178 152.103 197.239C154.812 199.731 159.614 202.711 166.896 205.545C181.358 211.174 202.426 215 226.5 215C250.574 215 271.642 211.174 286.104 205.545C293.386 202.711 298.188 199.731 300.897 197.239C302.049 196.178 302.601 195.43 302.854 195H303V179.244ZM319 159C319 139.118 277.586 123 226.5 123C175.414 123 134 139.118 134 159V195V195.007V231L134 231.009L134 267L134 267.012L134 303C134 322.882 175.414 339 226.5 339C277.586 339 319 322.882 319 303V267V231V195V159ZM303 215.244C286.352 224.755 258.3 231 226.5 231C194.7 231 166.648 224.755 150 215.244L150 231H150.146C150.399 231.43 150.951 232.178 152.103 233.239C154.812 235.731 159.614 238.711 166.896 241.545C181.358 247.174 202.426 251 226.5 251C250.574 251 271.642 247.174 286.104 241.545C293.386 238.711 298.188 235.731 300.897 233.239C302.049 232.178 302.601 231.43 302.854 231H303V215.244ZM303 251.244C286.352 260.755 258.3 267 226.5 267C194.7 267 166.648 260.755 150 251.244V267H150.146C150.399 267.43 150.951 268.178 152.103 269.239C154.812 271.731 159.614 274.711 166.896 277.545C181.358 283.174 202.426 287 226.5 287C250.574 287 271.642 283.174 286.104 277.545C293.386 274.711 298.188 271.731 300.897 269.239C302.049 268.178 302.601 267.43 302.854 267H303V251.244ZM303 287.244C286.352 296.755 258.3 303 226.5 303C194.7 303 166.648 296.755 150 287.244V303H150.146C150.399 303.43 150.951 304.178 152.103 305.239C154.812 307.731 159.614 310.711 166.896 313.545C181.358 319.174 202.426 323 226.5 323C250.574 323 271.642 319.174 286.104 313.545C293.386 310.711 298.188 307.731 300.897 305.239C302.049 304.178 302.601 303.43 302.854 303H303V287.244ZM149.946 303.434C149.943 303.433 149.949 303.404 149.971 303.345C149.96 303.404 149.948 303.434 149.946 303.434ZM303.029 303.345C303.051 303.404 303.057 303.433 303.054 303.434C303.052 303.434 303.04 303.404 303.029 303.345Z" fill="#7300A9"/>
</svg>
