<svg width="1024" height="1024" viewBox="0 0 1024 1024" fill="none" xmlns="http://www.w3.org/2000/svg">
<g clip-path="url(#clip0_1_2)">
<rect width="1024" height="1024" rx="68" fill="#929292" fill-opacity="0.2"/>
<rect x="264.664" y="296.168" width="465" height="465" rx="8.5" transform="rotate(-3.88485 264.664 296.168)" fill="#353535" stroke="#6A6A6A" stroke-width="5"/>
<rect x="279.882" y="279.882" width="465" height="465" rx="8.5" fill="#353535" stroke="#6A6A6A" stroke-width="5"/>
<path d="M367.026 594V448.2H396.366C406.086 448.2 414.126 449.52 420.486 452.16C426.846 454.68 431.526 458.82 434.526 464.58C437.646 470.22 439.206 477.66 439.206 486.9C439.206 492.54 438.606 497.7 437.406 502.38C436.206 506.94 434.286 510.84 431.646 514.08C429.006 517.2 425.526 519.48 421.206 520.92L441.906 594H422.286L403.206 525.6H387.366V594H367.026ZM387.366 511.02H395.106C400.866 511.02 405.546 510.3 409.146 508.86C412.746 507.42 415.386 504.96 417.066 501.48C418.746 498 419.586 493.14 419.586 486.9C419.586 478.38 418.026 472.26 414.906 468.54C411.786 464.7 405.606 462.78 396.366 462.78H387.366V511.02Z" fill="white"/>
<path d="M482.865 595.44C474.345 595.44 467.505 592.8 462.345 587.52C457.185 582.12 454.245 575.04 453.525 566.28L469.545 561.42C470.505 568.02 472.125 573 474.405 576.36C476.685 579.6 480.045 581.22 484.485 581.22C487.965 581.22 490.605 580.26 492.405 578.34C494.205 576.3 495.105 573.6 495.105 570.24C495.105 567.24 494.445 564.54 493.125 562.14C491.805 559.74 489.645 557.28 486.645 554.76L468.825 539.46C465.225 536.34 462.165 532.86 459.645 529.02C457.245 525.18 456.045 520.2 456.045 514.08C456.045 508.56 457.125 503.94 459.285 500.22C461.565 496.38 464.685 493.5 468.645 491.58C472.725 489.54 477.465 488.52 482.865 488.52C491.145 488.52 497.445 491.22 501.765 496.62C506.205 501.9 508.725 508.32 509.325 515.88L496.365 520.74C495.885 517.14 495.165 514.02 494.205 511.38C493.245 508.62 491.925 506.52 490.245 505.08C488.565 503.52 486.345 502.74 483.585 502.74C480.465 502.74 477.945 503.82 476.025 505.98C474.225 508.02 473.325 510.48 473.325 513.36C473.325 515.16 473.685 516.96 474.405 518.76C475.245 520.44 476.625 522.12 478.545 523.8L496.905 540.72C499.425 543 501.765 545.46 503.925 548.1C506.205 550.74 508.065 553.74 509.505 557.1C510.945 560.46 511.665 564.36 511.665 568.8C511.665 574.68 510.465 579.6 508.065 583.56C505.665 587.52 502.305 590.52 497.985 592.56C493.665 594.48 488.625 595.44 482.865 595.44Z" fill="white"/>
<path d="M553.79 595.44C548.39 595.44 544.01 594.42 540.65 592.38C537.41 590.34 535.01 587.46 533.45 583.74C532.01 580.02 531.29 575.64 531.29 570.6V502.74H520.31V489.96H531.29V459.54H550.55V489.96H567.29V502.74H550.55V569.34C550.55 573.42 551.21 576.36 552.53 578.16C553.85 579.84 556.37 580.68 560.09 580.68C561.05 580.68 562.13 580.62 563.33 580.5C564.65 580.38 565.91 580.26 567.11 580.14V594.36C564.71 594.72 562.49 594.96 560.45 595.08C558.41 595.32 556.19 595.44 553.79 595.44Z" fill="white"/>
<path d="M610.241 595.44C602.081 595.44 595.781 593.88 591.341 590.76C586.901 587.52 583.781 582.84 581.981 576.72C580.301 570.48 579.461 562.86 579.461 553.86V530.1C579.461 520.86 580.361 513.18 582.161 507.06C583.961 500.94 587.081 496.32 591.521 493.2C596.081 490.08 602.321 488.52 610.241 488.52C619.001 488.52 625.421 490.32 629.501 493.92C633.701 497.52 636.461 502.74 637.781 509.58C639.101 516.3 639.761 524.4 639.761 533.88V542.34H598.721V563.22C598.721 567.42 599.081 570.84 599.801 573.48C600.641 576.12 601.901 578.1 603.581 579.42C605.381 580.62 607.661 581.22 610.421 581.22C613.301 581.22 615.461 580.56 616.901 579.24C618.461 577.8 619.481 575.82 619.961 573.3C620.561 570.66 620.861 567.6 620.861 564.12V557.82H639.581V561.78C639.581 572.22 637.361 580.44 632.921 586.44C628.481 592.44 620.921 595.44 610.241 595.44ZM598.721 531.9H620.861V522.54C620.861 518.22 620.621 514.62 620.141 511.74C619.661 508.74 618.641 506.52 617.081 505.08C615.641 503.52 613.301 502.74 610.061 502.74C606.941 502.74 604.541 503.46 602.861 504.9C601.301 506.34 600.221 508.8 599.621 512.28C599.021 515.64 598.721 520.32 598.721 526.32V531.9Z" fill="white"/>
<path d="M657.742 594V489.96H677.002V504.72C680.842 498.36 684.682 494.1 688.522 491.94C692.362 489.78 696.202 488.7 700.042 488.7C700.522 488.7 700.942 488.7 701.302 488.7C701.782 488.7 702.382 488.76 703.102 488.88V510.12C701.662 509.52 699.982 509.04 698.062 508.68C696.262 508.2 694.402 507.96 692.482 507.96C689.482 507.96 686.722 508.68 684.202 510.12C681.802 511.44 679.402 514.08 677.002 518.04V594H657.742Z" fill="white"/>
<path fill-rule="evenodd" clip-rule="evenodd" d="M371 64C371 28.6538 342.346 -2.96282e-08 307 -2.96282e-08H45H-43L-98 -4.52995e-06C-235.519 -1.57823e-05 -347 111.481 -347 249L-347 775C-347 912.519 -235.519 1024 -98.0001 1024H-43L45 1024L307 1024C342.346 1024 371 995.346 371 960C371 924.654 342.346 896 307 896H71.0001C56.6406 896 45 884.359 45 870C45 855.641 56.6406 844 71.0001 844H176C211.346 844 240 815.346 240 780C240 744.654 211.346 716 176 716H70.5C56.4167 716 45 704.583 45 690.5C45 676.417 56.4167 665 70.5 665H179C214.346 665 243 636.346 243 601C243 565.654 214.346 537 179 537H71C56.6406 537 45 525.359 45 511C45 496.641 56.6406 485 71 485H210C245.346 485 274 456.346 274 421C274 385.654 245.346 357 210 357H70.5C56.4167 357 45 345.583 45 331.5C45 317.417 56.4167 306 70.5 306H167C202.346 306 231 277.346 231 242C231 206.654 202.346 178 167 178H70C56.1929 178 45 166.807 45 153C45 139.193 56.1929 128 70 128H307C342.346 128 371 99.3462 371 64Z" fill="#A9CFB4"/>
<path fill-rule="evenodd" clip-rule="evenodd" d="M623 64C623 28.6538 651.654 1.76445e-06 687 1.76445e-06H910.407H987.989L1007 0C1144.52 -1.27633e-05 1256 111.481 1256 249L1256 775C1256 912.519 1144.52 1024 1007 1024H987.989L910.407 1024L687 1024C651.654 1024 623 995.346 623 960C623 924.654 651.654 896 687 896H884.407C898.766 896 910.407 884.359 910.407 870C910.407 855.641 898.766 844 884.407 844H802.492C767.145 844 738.492 815.346 738.492 780C738.492 744.654 767.145 716 802.492 716H884.907C898.99 716 910.407 704.583 910.407 690.5C910.407 676.417 898.99 665 884.907 665H762C726.654 665 698 636.346 698 601C698 565.654 726.654 537 762 537H884.407C898.766 537 910.407 525.359 910.407 511C910.407 496.641 898.766 485 884.407 485H772.517C737.171 485 708.517 456.346 708.517 421C708.517 385.654 737.17 357 772.517 357H884.907C898.99 357 910.407 345.583 910.407 331.5C910.407 317.417 898.99 306 884.907 306H795C759.654 306 731 277.346 731 242C731 206.654 759.654 178 795 178H885.407C899.214 178 910.407 166.807 910.407 153C910.407 139.193 899.214 128 885.407 128H687C651.654 128 623 99.3462 623 64Z" fill="#DCDDFF"/>
<g clip-path="url(#clip1_1_2)">
<path d="M688.31 668H789.702C796.494 668 802.013 673.506 802.013 680.31V781.702C802.013 788.494 796.506 794.013 789.702 794.013H688.31C681.506 794 676 788.494 676 781.69V680.31C676 673.506 681.506 668 688.31 668Z" fill="#3178C6"/>
<path fill-rule="evenodd" clip-rule="evenodd" d="M754.007 768.157V780.468C755.997 781.501 758.442 782.269 761.138 782.786C763.835 783.303 766.796 783.555 769.757 783.555C772.718 783.555 775.414 783.29 778.123 782.723C780.832 782.156 783.05 781.224 785.015 780.014C787.006 778.704 788.707 777.066 789.69 774.848C790.673 772.63 791.441 770.173 791.441 766.973C791.441 764.73 791.101 762.79 790.433 761.064C789.765 759.337 788.808 757.863 787.485 756.628C786.225 755.318 784.776 754.171 783.05 753.189C781.323 752.206 779.358 751.173 777.14 750.24C775.515 749.572 774.192 748.93 772.705 748.3C771.42 747.657 770.324 747.015 769.505 746.385C768.597 745.717 767.904 745.036 767.413 744.318C766.922 743.575 766.67 742.768 766.67 741.861C766.67 741.03 766.884 740.261 767.337 739.568C767.778 738.875 768.396 738.308 769.177 737.817C769.971 737.325 770.954 736.96 772.125 736.683C773.285 736.418 774.557 736.292 776.069 736.292C777.102 736.292 778.186 736.368 779.27 736.519C780.404 736.67 781.563 736.909 782.709 737.237C783.869 737.552 785.003 737.955 786.149 738.447C787.233 738.938 788.241 739.505 789.098 740.148V728.581C787.233 727.863 785.154 727.321 782.949 726.981C780.731 726.64 778.274 726.464 775.326 726.464C772.377 726.464 769.668 726.779 766.959 727.396C764.25 728.014 762.033 728.997 760.067 730.345C758.076 731.668 756.627 733.293 755.393 735.511C754.233 737.577 753.666 739.946 753.666 742.894C753.666 746.586 754.725 749.787 756.867 752.244C758.984 754.953 762.285 756.918 766.468 758.884C768.169 759.577 769.668 760.257 771.143 760.925C772.617 761.593 773.852 762.273 774.834 762.991C775.893 763.71 776.724 764.491 777.291 765.335C777.909 766.167 778.224 767.162 778.224 768.283C778.224 769.077 778.035 769.808 777.657 770.501C777.279 771.194 776.699 771.786 775.905 772.278C775.112 772.769 774.154 773.16 772.957 773.462C771.798 773.727 770.5 773.878 768.774 773.878C766.065 773.878 763.356 773.412 760.899 772.479C758.19 771.547 755.733 770.136 753.515 768.296L754.007 768.157ZM733.343 737.892H749.093V727.8H705.043V737.892H720.793V782.925H733.343V737.892Z" fill="#929292" fill-opacity="0.1"/>
</g>
</g>
<defs>
<clipPath id="clip0_1_2">
<rect width="1024" height="1024" rx="68" fill="white"/>
</clipPath>
<clipPath id="clip1_1_2">
<rect width="126" height="126" fill="white" transform="translate(676 668)"/>
</clipPath>
</defs>
</svg>
