<svg width="451" height="451" viewBox="0 0 451 451" fill="none" xmlns="http://www.w3.org/2000/svg">
<path d="M13 226.588V211.176C26.8376 211.176 36.4908 208.276 41.9595 202.476C47.5111 196.676 50.2869 186.981 50.2869 173.392V133.619C50.2869 122.185 51.3641 112.283 53.5185 103.914C55.7557 95.5452 59.3601 88.6264 64.3317 83.1577C69.3033 77.6889 75.9321 73.6288 84.218 70.9773C92.504 68.3258 102.737 67 114.918 67V91.3608C105.306 91.3608 97.7242 92.8523 92.1726 95.8352C86.7038 98.8182 82.8094 103.458 80.4893 109.756C78.2521 115.97 77.1335 123.925 77.1335 133.619V183.335C77.1335 189.798 76.2635 195.681 74.5234 200.984C72.8662 206.287 69.759 210.845 65.2017 214.656C60.6444 218.468 54.1399 221.409 45.6882 223.481C37.3194 225.552 26.4233 226.588 13 226.588ZM114.918 385.182C102.737 385.182 92.504 383.856 84.218 381.205C75.9321 378.553 69.3033 374.493 64.3317 369.024C59.3601 363.555 55.7557 356.637 53.5185 348.268C51.3641 339.899 50.2869 329.997 50.2869 318.563V278.79C50.2869 265.201 47.5111 255.506 41.9595 249.706C36.4908 243.906 26.8376 241.006 13 241.006V225.594C26.4233 225.594 37.3194 226.63 45.6882 228.701C54.1399 230.773 60.6444 233.714 65.2017 237.526C69.759 241.337 72.8662 245.894 74.5234 251.197C76.2635 256.5 77.1335 262.384 77.1335 268.847V318.563C77.1335 328.257 78.2521 336.212 80.4893 342.426C82.8094 348.641 86.7038 353.239 92.1726 356.222C97.7242 359.288 105.306 360.821 114.918 360.821V385.182ZM13 241.006V211.176H42.3324V241.006H13Z" fill="#888888"/>
<path d="M437.605 225.594V241.006C423.767 241.006 414.073 243.906 408.521 249.706C403.052 255.506 400.318 265.201 400.318 278.79V318.563C400.318 329.997 399.199 339.899 396.962 348.268C394.808 356.637 391.245 363.555 386.273 369.024C381.302 374.493 374.673 378.553 366.387 381.205C358.101 383.856 347.868 385.182 335.687 385.182V360.821C345.299 360.821 352.839 359.288 358.308 356.222C363.86 353.239 367.754 348.641 369.991 342.426C372.311 336.212 373.471 328.257 373.471 318.563V268.847C373.471 262.384 374.3 256.5 375.957 251.197C377.697 245.894 380.846 241.337 385.403 237.526C389.961 233.714 396.424 230.773 404.792 228.701C413.244 226.63 424.182 225.594 437.605 225.594ZM335.687 67C347.868 67 358.101 68.3258 366.387 70.9773C374.673 73.6288 381.302 77.6889 386.273 83.1577C391.245 88.6264 394.808 95.5452 396.962 103.914C399.199 112.283 400.318 122.185 400.318 133.619V173.392C400.318 186.981 403.052 196.676 408.521 202.476C414.073 208.276 423.767 211.176 437.605 211.176V226.588C424.182 226.588 413.244 225.552 404.792 223.481C396.424 221.409 389.961 218.468 385.403 214.656C380.846 210.845 377.697 206.287 375.957 200.984C374.3 195.681 373.471 189.798 373.471 183.335V133.619C373.471 123.925 372.311 115.97 369.991 109.756C367.754 103.458 363.86 98.8182 358.308 95.8352C352.839 92.8523 345.299 91.3608 335.687 91.3608V67ZM437.605 211.176V241.006H408.273V211.176H437.605Z" fill="#888888"/>
<path fill-rule="evenodd" clip-rule="evenodd" d="M303.128 153.044C303.131 153.044 303.125 153.073 303.102 153.132C303.114 153.073 303.125 153.044 303.128 153.044ZM300.971 151.239C302.123 152.299 302.675 153.047 302.928 153.477C302.675 153.907 302.123 154.656 300.971 155.716C298.262 158.208 293.46 161.188 286.178 164.023C271.715 169.651 250.648 173.477 226.574 173.477C202.5 173.477 181.432 169.651 166.97 164.023C159.687 161.188 154.885 158.208 152.177 155.716C151.024 154.656 150.473 153.907 150.22 153.477C150.473 153.047 151.024 152.299 152.177 151.239C154.885 148.746 159.687 145.766 166.97 142.932C181.432 137.303 202.5 133.477 226.574 133.477C250.648 133.477 271.715 137.303 286.178 142.932C293.46 145.766 298.262 148.746 300.971 151.239ZM150.019 153.044C150.022 153.044 150.034 153.073 150.045 153.132C150.022 153.073 150.017 153.044 150.019 153.044ZM303.074 173.721C286.425 183.232 258.374 189.477 226.574 189.477C194.774 189.477 166.722 183.232 150.074 173.721L150.074 189.477H150.22C150.473 189.907 151.024 190.656 152.177 191.716C154.885 194.208 159.687 197.188 166.97 200.023C181.432 205.651 202.5 209.477 226.574 209.477C250.648 209.477 271.715 205.651 286.178 200.023C293.46 197.188 298.262 194.208 300.971 191.716C302.123 190.656 302.675 189.907 302.928 189.477H303.074V173.721ZM319.074 153.477C319.074 133.595 277.66 117.477 226.574 117.477C175.488 117.477 134.074 133.595 134.074 153.477V189.477V189.484V225.477L134.074 225.487L134.074 261.477L134.074 261.489L134.074 297.477C134.074 317.36 175.488 333.477 226.574 333.477C277.66 333.477 319.074 317.36 319.074 297.477V261.477V225.477V189.477V153.477ZM303.074 209.721C286.425 219.232 258.374 225.477 226.574 225.477C194.774 225.477 166.722 219.232 150.074 209.721L150.074 225.477H150.22C150.473 225.907 151.024 226.656 152.177 227.716C154.885 230.208 159.687 233.188 166.97 236.023C181.432 241.651 202.5 245.477 226.574 245.477C250.648 245.477 271.715 241.651 286.178 236.023C293.46 233.188 298.262 230.208 300.971 227.716C302.123 226.656 302.675 225.907 302.928 225.477H303.074V209.721ZM303.074 245.721C286.425 255.232 258.374 261.477 226.574 261.477C194.774 261.477 166.722 255.232 150.074 245.721V261.477H150.22C150.473 261.907 151.024 262.656 152.177 263.716C154.885 266.208 159.687 269.188 166.97 272.023C181.432 277.651 202.5 281.477 226.574 281.477C250.648 281.477 271.715 277.651 286.178 272.023C293.46 269.188 298.262 266.208 300.971 263.716C302.123 262.656 302.675 261.907 302.928 261.477H303.074V245.721ZM303.074 281.721C286.425 291.232 258.374 297.477 226.574 297.477C194.774 297.477 166.722 291.232 150.074 281.721V297.477H150.22C150.473 297.907 151.024 298.656 152.177 299.716C154.885 302.208 159.687 305.188 166.97 308.023C181.432 313.651 202.5 317.477 226.574 317.477C250.648 317.477 271.715 313.651 286.178 308.023C293.46 305.188 298.262 302.208 300.971 299.716C302.123 298.656 302.675 297.907 302.928 297.477H303.074V281.721ZM150.019 297.911C150.017 297.911 150.022 297.881 150.045 297.823C150.034 297.882 150.022 297.911 150.019 297.911ZM303.102 297.823C303.125 297.881 303.131 297.911 303.128 297.911C303.125 297.911 303.114 297.882 303.102 297.823Z" fill="#7300A9"/>
</svg>
