<svg width="451" height="451" viewBox="0 0 451 451" fill="none" xmlns="http://www.w3.org/2000/svg">
<path d="M13 225.588V210.176C26.8376 210.176 36.4908 207.276 41.9595 201.476C47.5111 195.676 50.2869 185.981 50.2869 172.392V132.619C50.2869 121.185 51.3641 111.283 53.5185 102.914C55.7557 94.5452 59.3601 87.6264 64.3317 82.1577C69.3033 76.6889 75.9321 72.6288 84.218 69.9773C92.504 67.3258 102.737 66 114.918 66V90.3608C105.306 90.3608 97.7242 91.8523 92.1726 94.8352C86.7038 97.8182 82.8094 102.458 80.4893 108.756C78.2521 114.97 77.1335 122.925 77.1335 132.619V182.335C77.1335 188.798 76.2635 194.681 74.5234 199.984C72.8662 205.287 69.759 209.845 65.2017 213.656C60.6444 217.468 54.1399 220.409 45.6882 222.481C37.3194 224.552 26.4233 225.588 13 225.588ZM114.918 384.182C102.737 384.182 92.504 382.856 84.218 380.205C75.9321 377.553 69.3033 373.493 64.3317 368.024C59.3601 362.555 55.7557 355.637 53.5185 347.268C51.3641 338.899 50.2869 328.997 50.2869 317.563V277.79C50.2869 264.201 47.5111 254.506 41.9595 248.706C36.4908 242.906 26.8376 240.006 13 240.006V224.594C26.4233 224.594 37.3194 225.63 45.6882 227.701C54.1399 229.773 60.6444 232.714 65.2017 236.526C69.759 240.337 72.8662 244.894 74.5234 250.197C76.2635 255.5 77.1335 261.384 77.1335 267.847V317.563C77.1335 327.257 78.2521 335.212 80.4893 341.426C82.8094 347.641 86.7038 352.239 92.1726 355.222C97.7242 358.288 105.306 359.821 114.918 359.821V384.182ZM13 240.006V210.176H42.3324V240.006H13Z" fill="#888888"/>
<path d="M437.605 224.594V240.006C423.767 240.006 414.073 242.906 408.521 248.706C403.052 254.506 400.318 264.201 400.318 277.79V317.563C400.318 328.997 399.199 338.899 396.962 347.268C394.808 355.637 391.245 362.555 386.273 368.024C381.302 373.493 374.673 377.553 366.387 380.205C358.101 382.856 347.868 384.182 335.687 384.182V359.821C345.299 359.821 352.839 358.288 358.308 355.222C363.86 352.239 367.754 347.641 369.991 341.426C372.311 335.212 373.471 327.257 373.471 317.563V267.847C373.471 261.384 374.3 255.5 375.957 250.197C377.697 244.894 380.846 240.337 385.403 236.526C389.961 232.714 396.424 229.773 404.792 227.701C413.244 225.63 424.182 224.594 437.605 224.594ZM335.687 66C347.868 66 358.101 67.3258 366.387 69.9773C374.673 72.6288 381.302 76.6889 386.273 82.1577C391.245 87.6264 394.808 94.5452 396.962 102.914C399.199 111.283 400.318 121.185 400.318 132.619V172.392C400.318 185.981 403.052 195.676 408.521 201.476C414.073 207.276 423.767 210.176 437.605 210.176V225.588C424.182 225.588 413.244 224.552 404.792 222.481C396.424 220.409 389.961 217.468 385.403 213.656C380.846 209.845 377.697 205.287 375.957 199.984C374.3 194.681 373.471 188.798 373.471 182.335V132.619C373.471 122.925 372.311 114.97 369.991 108.756C367.754 102.458 363.86 97.8182 358.308 94.8352C352.839 91.8523 345.299 90.3608 335.687 90.3608V66ZM437.605 210.176V240.006H408.273V210.176H437.605Z" fill="#888888"/>
<path fill-rule="evenodd" clip-rule="evenodd" d="M303.128 152.044C303.131 152.044 303.125 152.073 303.102 152.132C303.114 152.073 303.125 152.044 303.128 152.044ZM300.971 150.239C302.123 151.299 302.675 152.047 302.928 152.477C302.675 152.907 302.123 153.656 300.971 154.716C298.262 157.208 293.46 160.188 286.178 163.023C271.715 168.651 250.648 172.477 226.574 172.477C202.5 172.477 181.432 168.651 166.97 163.023C159.687 160.188 154.885 157.208 152.177 154.716C151.024 153.656 150.473 152.907 150.22 152.477C150.473 152.047 151.024 151.299 152.177 150.239C154.885 147.746 159.687 144.766 166.97 141.932C181.432 136.303 202.5 132.477 226.574 132.477C250.648 132.477 271.715 136.303 286.178 141.932C293.46 144.766 298.262 147.746 300.971 150.239ZM150.019 152.044C150.022 152.044 150.034 152.073 150.045 152.132C150.022 152.073 150.017 152.044 150.019 152.044ZM303.074 172.721C286.425 182.232 258.374 188.477 226.574 188.477C194.774 188.477 166.722 182.232 150.074 172.721L150.074 188.477H150.22C150.473 188.907 151.024 189.656 152.177 190.716C154.885 193.208 159.687 196.188 166.97 199.023C181.432 204.651 202.5 208.477 226.574 208.477C250.648 208.477 271.715 204.651 286.178 199.023C293.46 196.188 298.262 193.208 300.971 190.716C302.123 189.656 302.675 188.907 302.928 188.477H303.074V172.721ZM319.074 152.477C319.074 132.595 277.66 116.477 226.574 116.477C175.488 116.477 134.074 132.595 134.074 152.477V188.477V188.484V224.477L134.074 224.487L134.074 260.477L134.074 260.489L134.074 296.477C134.074 316.36 175.488 332.477 226.574 332.477C277.66 332.477 319.074 316.36 319.074 296.477V260.477V224.477V188.477V152.477ZM303.074 208.721C286.425 218.232 258.374 224.477 226.574 224.477C194.774 224.477 166.722 218.232 150.074 208.721L150.074 224.477H150.22C150.473 224.907 151.024 225.656 152.177 226.716C154.885 229.208 159.687 232.188 166.97 235.023C181.432 240.651 202.5 244.477 226.574 244.477C250.648 244.477 271.715 240.651 286.178 235.023C293.46 232.188 298.262 229.208 300.971 226.716C302.123 225.656 302.675 224.907 302.928 224.477H303.074V208.721ZM303.074 244.721C286.425 254.232 258.374 260.477 226.574 260.477C194.774 260.477 166.722 254.232 150.074 244.721V260.477H150.22C150.473 260.907 151.024 261.656 152.177 262.716C154.885 265.208 159.687 268.188 166.97 271.023C181.432 276.651 202.5 280.477 226.574 280.477C250.648 280.477 271.715 276.651 286.178 271.023C293.46 268.188 298.262 265.208 300.971 262.716C302.123 261.656 302.675 260.907 302.928 260.477H303.074V244.721ZM303.074 280.721C286.425 290.232 258.374 296.477 226.574 296.477C194.774 296.477 166.722 290.232 150.074 280.721V296.477H150.22C150.473 296.907 151.024 297.656 152.177 298.716C154.885 301.208 159.687 304.188 166.97 307.023C181.432 312.651 202.5 316.477 226.574 316.477C250.648 316.477 271.715 312.651 286.178 307.023C293.46 304.188 298.262 301.208 300.971 298.716C302.123 297.656 302.675 296.907 302.928 296.477H303.074V280.721ZM150.019 296.911C150.017 296.911 150.022 296.881 150.045 296.823C150.034 296.882 150.022 296.911 150.019 296.911ZM303.102 296.823C303.125 296.881 303.131 296.911 303.128 296.911C303.125 296.911 303.114 296.882 303.102 296.823Z" fill="#7300A9"/>
</svg>
