<svg width="451" height="451" viewBox="0 0 451 451" fill="none" xmlns="http://www.w3.org/2000/svg">
<path fill-rule="evenodd" clip-rule="evenodd" d="M238.006 435.744C204.102 435.744 174.132 431.091 148.095 421.784C122.058 412.588 100.176 399.016 82.4489 381.067C64.7216 363.118 51.3153 341.125 42.2301 315.088C34.7141 293.548 30.307 269.43 29.0088 242.734C24.5038 241.582 19.1675 241.006 13 241.006V226.588V225.594V211.176C19.1632 211.176 24.4963 210.601 28.9993 209.45C30.2948 183.462 34.7604 159.843 42.3963 138.591C51.7031 112.997 65.1648 91.2813 82.7812 73.4432C100.509 55.4944 122.003 41.8111 147.264 32.3935C172.636 22.9759 201.332 18.2671 233.352 18.2671C264.486 18.2671 291.741 23.3637 315.119 33.5569C338.608 43.6393 358.219 57.3225 373.952 74.6066C389.795 91.7799 401.651 111.114 409.517 132.608C417.494 154.102 421.483 176.261 421.483 199.085C421.483 202.513 421.448 205.95 421.377 209.398C425.94 210.583 431.349 211.176 437.605 211.176V225.594V226.588V241.006C430.503 241.006 424.492 241.77 419.573 243.297C419.441 244.845 419.302 246.395 419.156 247.946C417.605 264.455 414.337 279.634 409.351 293.483C404.365 307.222 396.665 318.301 386.25 326.722C375.946 335.142 361.986 339.352 344.369 339.352C336.614 339.352 328.082 338.134 318.776 335.696C309.469 333.259 301.215 329.215 294.013 323.564C292.555 322.42 291.217 321.197 290 319.894V319.228L312.227 296H319V292.24C319.942 294.046 321.031 295.79 322.266 297.472C327.473 304.563 335.063 308.108 345.034 308.108C356.335 308.108 364.977 304.23 370.96 296.474C377.054 288.719 381.209 276.753 383.425 260.577C384.055 256.198 384.599 251.486 385.059 246.441C385.328 243.481 385.568 240.406 385.779 237.217C385.784 237.144 385.789 237.072 385.793 237H386.051C388.748 234.874 392.065 233.031 396 231.47C398.65 230.419 401.581 229.496 404.792 228.701C405.909 228.427 407.069 228.172 408.273 227.934V224.248C407.069 224.01 405.909 223.755 404.792 223.481C401.581 222.686 398.65 221.763 396 220.712C392.383 219.277 389.289 217.604 386.717 215.692C386.73 215.131 386.743 214.567 386.755 214C386.855 209.326 386.908 204.47 386.914 199.431C386.915 199.095 386.915 198.758 386.915 198.421C386.915 183.574 384.865 168.949 380.766 154.546C376.777 140.031 370.683 126.459 362.484 113.828C354.396 101.197 344.148 90.0625 331.739 80.4233C319.33 70.7841 304.76 63.25 288.03 57.8211C271.411 52.2813 252.52 49.5114 231.358 49.5114C205.321 49.5114 181.999 53.5555 161.391 61.6435C140.893 69.6208 123.443 81.3097 109.04 96.7103C94.7472 112 83.8338 130.614 76.2997 152.551C71.4654 166.765 68.2053 182.248 66.5192 199C66.0913 203.252 65.7648 207.585 65.5396 212C65.4978 212.82 65.4595 213.643 65.4247 214.468C65.3508 214.531 65.2764 214.594 65.2017 214.656C63.4291 216.139 61.3618 217.49 59 218.709C55.2897 220.625 50.8525 222.215 45.6882 223.481C44.6114 223.747 43.4928 223.997 42.3324 224.229V227.953C43.4928 228.185 44.6114 228.434 45.6882 228.701C50.8525 229.967 55.2897 231.557 59 233.473C61.3618 234.692 63.4291 236.043 65.2017 237.526C65.2498 237.566 65.2977 237.606 65.3454 237.646C65.3725 238.434 65.4026 239.218 65.4359 240C65.536 242.357 65.6638 244.69 65.8194 247C67.1829 267.242 70.6763 285.673 76.2997 302.291C83.8338 324.229 94.9134 342.732 109.538 357.8C124.274 372.868 142.5 384.28 164.216 392.036C185.932 399.902 210.972 403.835 239.335 403.835C251.523 403.835 263.544 402.672 275.399 400.345C287.254 398.019 297.724 395.47 306.81 392.7C315.895 389.93 322.432 387.881 326.42 386.551L335.727 417.131C328.858 420.011 319.884 422.892 308.804 425.773C297.835 428.653 286.091 431.036 273.571 432.919C261.162 434.803 249.307 435.744 238.006 435.744Z" fill="#888888"/>
<path fill-rule="evenodd" clip-rule="evenodd" d="M303.128 153.044C303.131 153.044 303.125 153.074 303.102 153.132C303.114 153.073 303.125 153.044 303.128 153.044ZM300.971 151.239C302.123 152.299 302.674 153.048 302.928 153.478C302.674 153.908 302.123 154.656 300.971 155.716C298.262 158.209 293.46 161.189 286.178 164.023C271.715 169.652 250.648 173.478 226.574 173.478C202.5 173.478 181.432 169.652 166.969 164.023C159.687 161.189 154.885 158.209 152.177 155.716C151.024 154.656 150.473 153.908 150.219 153.478C150.473 153.048 151.024 152.299 152.177 151.239C154.885 148.746 159.687 145.766 166.969 142.932C181.432 137.304 202.5 133.478 226.574 133.478C250.648 133.478 271.715 137.304 286.178 142.932C293.46 145.766 298.262 148.746 300.971 151.239ZM150.019 153.044C150.022 153.044 150.033 153.073 150.045 153.132C150.022 153.074 150.017 153.044 150.019 153.044ZM303.074 173.722C286.425 183.232 258.373 189.478 226.574 189.478C194.774 189.478 166.722 183.232 150.074 173.722L150.074 189.478H150.219C150.473 189.908 151.024 190.656 152.177 191.716C154.885 194.209 159.687 197.189 166.969 200.023C181.432 205.652 202.5 209.478 226.574 209.478C250.648 209.478 271.715 205.652 286.178 200.023C293.46 197.189 298.262 194.209 300.971 191.716C302.123 190.656 302.674 189.908 302.928 189.478H303.074V173.722ZM319.074 153.478C319.074 133.595 277.66 117.478 226.574 117.478C175.487 117.478 134.074 133.595 134.074 153.478V189.478V189.484V225.478L134.074 225.487L134.074 261.478L134.074 261.489L134.074 297.478C134.074 317.36 175.487 333.478 226.574 333.478C277.66 333.478 319.074 317.36 319.074 297.478V261.478V225.478V189.478V153.478ZM303.074 209.722C286.425 219.232 258.373 225.478 226.574 225.478C194.774 225.478 166.722 219.232 150.074 209.722L150.074 225.478H150.219C150.473 225.908 151.024 226.656 152.177 227.716C154.885 230.209 159.687 233.189 166.969 236.023C181.432 241.652 202.5 245.478 226.574 245.478C250.648 245.478 271.715 241.652 286.178 236.023C293.46 233.189 298.262 230.209 300.971 227.716C302.123 226.656 302.674 225.908 302.928 225.478H303.074V209.722ZM303.074 245.722C286.425 255.232 258.373 261.478 226.574 261.478C194.774 261.478 166.722 255.232 150.074 245.722V261.478H150.219C150.473 261.908 151.024 262.656 152.177 263.716C154.885 266.209 159.687 269.189 166.969 272.023C181.432 277.652 202.5 281.478 226.574 281.478C250.648 281.478 271.715 277.652 286.178 272.023C293.46 269.189 298.262 266.209 300.971 263.716C302.123 262.656 302.674 261.908 302.928 261.478H303.074V245.722ZM303.074 281.722C286.425 291.232 258.373 297.478 226.574 297.478C194.774 297.478 166.722 291.232 150.074 281.722V297.478H150.219C150.473 297.908 151.024 298.656 152.177 299.716C154.885 302.209 159.687 305.189 166.969 308.023C181.432 313.652 202.5 317.478 226.574 317.478C250.648 317.478 271.715 313.652 286.178 308.023C293.46 305.189 298.262 302.209 300.971 299.716C302.123 298.656 302.674 297.908 302.928 297.478H303.074V281.722ZM150.019 297.911C150.017 297.911 150.022 297.882 150.045 297.823C150.033 297.882 150.022 297.911 150.019 297.911ZM303.102 297.823C303.125 297.882 303.131 297.911 303.128 297.911C303.125 297.911 303.114 297.882 303.102 297.823Z" fill="#7300A9"/>
</svg>
