<svg width="1322" height="451" viewBox="0 0 1322 451" fill="none" xmlns="http://www.w3.org/2000/svg">
<path d="M576.727 353V162.091H605.066V190.926H607.054C610.534 181.48 616.832 173.816 625.946 167.933C635.061 162.049 645.335 159.108 656.77 159.108C658.924 159.108 661.617 159.149 664.849 159.232C668.08 159.315 670.525 159.439 672.182 159.605V189.435C671.188 189.186 668.909 188.813 665.346 188.316C661.866 187.736 658.179 187.446 654.284 187.446C645.004 187.446 636.718 189.393 629.426 193.288C622.218 197.099 616.5 202.402 612.274 209.197C608.131 215.908 606.06 223.573 606.06 232.19V353H576.727ZM842.179 204.847L815.83 212.304C814.173 207.912 811.728 203.645 808.497 199.502C805.348 195.276 801.039 191.796 795.571 189.062C790.102 186.327 783.1 184.96 774.566 184.96C762.882 184.96 753.146 187.653 745.358 193.039C737.652 198.342 733.799 205.095 733.799 213.298C733.799 220.59 736.45 226.349 741.753 230.575C747.056 234.8 755.342 238.322 766.611 241.139L794.949 248.099C812.018 252.242 824.737 258.581 833.106 267.116C841.475 275.567 845.659 286.464 845.659 299.804C845.659 310.741 842.511 320.519 836.213 329.136C829.999 337.754 821.299 344.548 810.113 349.52C798.926 354.491 785.917 356.977 771.086 356.977C751.614 356.977 735.497 352.751 722.737 344.3C709.976 335.848 701.898 323.502 698.5 307.261L726.341 300.301C728.993 310.576 734.006 318.282 741.38 323.419C748.838 328.556 758.574 331.125 770.588 331.125C784.26 331.125 795.115 328.225 803.152 322.425C811.273 316.542 815.333 309.499 815.333 301.295C815.333 294.667 813.013 289.115 808.373 284.641C803.732 280.083 796.606 276.686 786.995 274.449L755.176 266.991C737.693 262.848 724.85 256.427 716.647 247.727C708.526 238.943 704.466 227.964 704.466 214.79C704.466 204.018 707.491 194.489 713.539 186.203C719.671 177.917 727.998 171.413 738.522 166.69C749.128 161.967 761.142 159.605 774.566 159.605C793.458 159.605 808.29 163.748 819.061 172.034C829.916 180.32 837.622 191.258 842.179 204.847ZM972.839 162.091V186.949H873.904V162.091H972.839ZM902.74 116.352H932.072V298.312C932.072 306.598 933.273 312.813 935.676 316.956C938.162 321.016 941.311 323.75 945.122 325.159C949.017 326.485 953.118 327.148 957.427 327.148C960.659 327.148 963.31 326.982 965.382 326.651C967.453 326.236 969.11 325.905 970.353 325.656L976.319 352.006C974.33 352.751 971.555 353.497 967.992 354.243C964.429 355.071 959.913 355.486 954.444 355.486C946.158 355.486 938.038 353.704 930.083 350.141C922.212 346.578 915.666 341.151 910.445 333.859C905.308 326.568 902.74 317.37 902.74 306.267V116.352ZM1094.95 356.977C1076.56 356.977 1060.69 352.917 1047.35 344.797C1034.09 336.594 1023.86 325.159 1016.65 310.493C1009.53 295.744 1005.96 278.592 1005.96 259.037C1005.96 239.482 1009.53 222.247 1016.65 207.332C1023.86 192.335 1033.89 180.652 1046.73 172.283C1059.66 163.831 1074.74 159.605 1091.97 159.605C1101.91 159.605 1111.73 161.262 1121.43 164.577C1131.12 167.891 1139.95 173.277 1147.9 180.734C1155.86 188.109 1162.19 197.886 1166.92 210.067C1171.64 222.247 1174 237.245 1174 255.06V267.489H1026.84V242.134H1144.17C1144.17 231.362 1142.02 221.75 1137.71 213.298C1133.48 204.847 1127.43 198.176 1119.56 193.288C1111.77 188.399 1102.58 185.955 1091.97 185.955C1080.29 185.955 1070.18 188.855 1061.64 194.655C1053.19 200.372 1046.69 207.83 1042.13 217.027C1037.57 226.224 1035.29 236.085 1035.29 246.608V263.511C1035.29 277.929 1037.78 290.151 1042.75 300.177C1047.81 310.12 1054.81 317.702 1063.76 322.922C1072.71 328.059 1083.1 330.628 1094.95 330.628C1102.66 330.628 1109.62 329.551 1115.83 327.396C1122.13 325.159 1127.56 321.845 1132.12 317.453C1136.67 312.979 1140.2 307.427 1142.68 300.798L1171.02 308.753C1168.04 318.365 1163.02 326.816 1155.98 334.108C1148.94 341.317 1140.24 346.951 1129.88 351.011C1119.52 354.989 1107.88 356.977 1094.95 356.977ZM1218.62 353V162.091H1246.96V190.926H1248.95C1252.43 181.48 1258.73 173.816 1267.84 167.933C1276.96 162.049 1287.23 159.108 1298.66 159.108C1300.82 159.108 1303.51 159.149 1306.74 159.232C1309.97 159.315 1312.42 159.439 1314.08 159.605V189.435C1313.08 189.186 1310.8 188.813 1307.24 188.316C1303.76 187.736 1300.07 187.446 1296.18 187.446C1286.9 187.446 1278.61 189.393 1271.32 193.288C1264.11 197.099 1258.39 202.402 1254.17 209.197C1250.03 215.908 1247.95 223.573 1247.95 232.19V353H1218.62Z" fill="#888888"/>
<path fill-rule="evenodd" clip-rule="evenodd" d="M238.006 435.744C204.102 435.744 174.132 431.091 148.095 421.784C122.058 412.588 100.176 399.016 82.4489 381.067C64.7216 363.118 51.3153 341.125 42.2301 315.088C34.7141 293.548 30.307 269.43 29.0088 242.734C24.5038 241.582 19.1675 241.006 13 241.006V226.588V225.594V211.176C19.1632 211.176 24.4963 210.601 28.9993 209.45C30.2948 183.462 34.7604 159.843 42.3963 138.591C51.7031 112.997 65.1648 91.2813 82.7812 73.4432C100.509 55.4944 122.003 41.8111 147.264 32.3935C172.636 22.9759 201.332 18.2671 233.352 18.2671C264.486 18.2671 291.741 23.3637 315.119 33.5569C338.608 43.6393 358.219 57.3225 373.952 74.6066C389.795 91.7799 401.651 111.114 409.517 132.608C417.494 154.102 421.483 176.261 421.483 199.085C421.483 202.513 421.448 205.95 421.377 209.398C425.94 210.583 431.349 211.176 437.605 211.176V225.594V226.588V241.006C430.503 241.006 424.492 241.77 419.573 243.297C419.441 244.845 419.302 246.395 419.156 247.946C417.605 264.455 414.337 279.634 409.351 293.483C404.365 307.222 396.665 318.301 386.25 326.722C375.946 335.142 361.986 339.352 344.369 339.352C336.614 339.352 328.082 338.134 318.776 335.696C309.469 333.259 301.215 329.215 294.013 323.564C292.555 322.42 291.217 321.197 290 319.894V319.228L312.227 296H319V292.24C319.942 294.046 321.031 295.79 322.266 297.472C327.473 304.563 335.063 308.108 345.034 308.108C356.335 308.108 364.977 304.23 370.96 296.474C377.054 288.719 381.209 276.753 383.425 260.577C384.055 256.198 384.599 251.486 385.059 246.441C385.328 243.481 385.568 240.406 385.779 237.217C385.784 237.144 385.789 237.072 385.793 237H386.051C388.748 234.874 392.065 233.031 396 231.47C398.65 230.419 401.581 229.496 404.792 228.701C405.909 228.427 407.069 228.172 408.273 227.934V224.248C407.069 224.01 405.909 223.755 404.792 223.481C401.581 222.686 398.65 221.763 396 220.712C392.383 219.277 389.289 217.604 386.717 215.692C386.73 215.131 386.743 214.567 386.755 214C386.855 209.326 386.908 204.47 386.914 199.431C386.915 199.095 386.915 198.758 386.915 198.421C386.915 183.574 384.865 168.949 380.766 154.546C376.777 140.031 370.683 126.459 362.484 113.828C354.396 101.197 344.148 90.0625 331.739 80.4233C319.33 70.7841 304.76 63.25 288.03 57.8211C271.411 52.2813 252.52 49.5114 231.358 49.5114C205.321 49.5114 181.999 53.5555 161.391 61.6435C140.893 69.6208 123.443 81.3097 109.04 96.7103C94.7472 112 83.8338 130.614 76.2997 152.551C71.4654 166.765 68.2053 182.248 66.5192 199C66.0913 203.252 65.7648 207.585 65.5396 212C65.4978 212.82 65.4595 213.643 65.4247 214.468C65.3508 214.531 65.2764 214.594 65.2017 214.656C63.4291 216.139 61.3618 217.49 59 218.709C55.2897 220.625 50.8525 222.215 45.6882 223.481C44.6114 223.747 43.4928 223.997 42.3324 224.229V227.953C43.4928 228.185 44.6114 228.434 45.6882 228.701C50.8525 229.967 55.2897 231.557 59 233.473C61.3618 234.692 63.4291 236.043 65.2017 237.526C65.2498 237.566 65.2977 237.606 65.3454 237.646C65.3725 238.434 65.4026 239.218 65.4359 240C65.536 242.357 65.6638 244.69 65.8194 247C67.1829 267.242 70.6763 285.673 76.2997 302.291C83.8338 324.229 94.9134 342.732 109.538 357.8C124.274 372.868 142.5 384.28 164.216 392.036C185.932 399.902 210.972 403.835 239.335 403.835C251.523 403.835 263.544 402.672 275.399 400.345C287.254 398.019 297.724 395.47 306.81 392.7C315.895 389.93 322.432 387.881 326.42 386.551L335.727 417.131C328.858 420.011 319.884 422.892 308.804 425.773C297.835 428.653 286.091 431.036 273.571 432.919C261.162 434.803 249.307 435.744 238.006 435.744Z" fill="#888888"/>
<path fill-rule="evenodd" clip-rule="evenodd" d="M303.128 153.044C303.131 153.044 303.125 153.074 303.102 153.132C303.114 153.073 303.125 153.044 303.128 153.044ZM300.971 151.239C302.123 152.299 302.675 153.048 302.928 153.478C302.675 153.908 302.123 154.656 300.971 155.716C298.262 158.209 293.46 161.189 286.178 164.023C271.715 169.652 250.648 173.478 226.574 173.478C202.5 173.478 181.432 169.652 166.97 164.023C159.687 161.189 154.885 158.209 152.177 155.716C151.024 154.656 150.473 153.908 150.22 153.478C150.473 153.048 151.024 152.299 152.177 151.239C154.885 148.746 159.687 145.766 166.97 142.932C181.432 137.304 202.5 133.478 226.574 133.478C250.648 133.478 271.715 137.304 286.178 142.932C293.46 145.766 298.262 148.746 300.971 151.239ZM150.019 153.044C150.022 153.044 150.034 153.073 150.045 153.132C150.022 153.074 150.017 153.044 150.019 153.044ZM303.074 173.722C286.425 183.232 258.374 189.478 226.574 189.478C194.774 189.478 166.722 183.232 150.074 173.722L150.074 189.478H150.22C150.473 189.908 151.024 190.656 152.177 191.716C154.885 194.209 159.687 197.189 166.97 200.023C181.432 205.652 202.5 209.478 226.574 209.478C250.648 209.478 271.715 205.652 286.178 200.023C293.46 197.189 298.262 194.209 300.971 191.716C302.123 190.656 302.675 189.908 302.928 189.478H303.074V173.722ZM319.074 153.478C319.074 133.595 277.66 117.478 226.574 117.478C175.488 117.478 134.074 133.595 134.074 153.478V189.478V189.484V225.478L134.074 225.487L134.074 261.478L134.074 261.489L134.074 297.478C134.074 317.36 175.488 333.478 226.574 333.478C277.66 333.478 319.074 317.36 319.074 297.478V261.478V225.478V189.478V153.478ZM303.074 209.722C286.425 219.232 258.374 225.478 226.574 225.478C194.774 225.478 166.722 219.232 150.074 209.722L150.074 225.478H150.22C150.473 225.908 151.024 226.656 152.177 227.716C154.885 230.209 159.687 233.189 166.97 236.023C181.432 241.652 202.5 245.478 226.574 245.478C250.648 245.478 271.715 241.652 286.178 236.023C293.46 233.189 298.262 230.209 300.971 227.716C302.123 226.656 302.675 225.908 302.928 225.478H303.074V209.722ZM303.074 245.722C286.425 255.232 258.374 261.478 226.574 261.478C194.774 261.478 166.722 255.232 150.074 245.722V261.478H150.22C150.473 261.908 151.024 262.656 152.177 263.716C154.885 266.209 159.687 269.189 166.97 272.023C181.432 277.652 202.5 281.478 226.574 281.478C250.648 281.478 271.715 277.652 286.178 272.023C293.46 269.189 298.262 266.209 300.971 263.716C302.123 262.656 302.675 261.908 302.928 261.478H303.074V245.722ZM303.074 281.722C286.425 291.232 258.374 297.478 226.574 297.478C194.774 297.478 166.722 291.232 150.074 281.722V297.478H150.22C150.473 297.908 151.024 298.656 152.177 299.716C154.885 302.209 159.687 305.189 166.97 308.023C181.432 313.652 202.5 317.478 226.574 317.478C250.648 317.478 271.715 313.652 286.178 308.023C293.46 305.189 298.262 302.209 300.971 299.716C302.123 298.656 302.675 297.908 302.928 297.478H303.074V281.722ZM150.019 297.911C150.017 297.911 150.022 297.882 150.045 297.823C150.034 297.882 150.022 297.911 150.019 297.911ZM303.102 297.823C303.125 297.882 303.131 297.911 303.128 297.911C303.125 297.911 303.114 297.882 303.102 297.823Z" fill="#7300A9"/>
</svg>
