<svg width="1696" height="451" viewBox="0 0 1696 451" fill="none" xmlns="http://www.w3.org/2000/svg">
<path d="M26.8466 353V162.091H56.179V353H26.8466ZM41.7614 130.273C36.044 130.273 31.1139 128.326 26.9709 124.431C22.9107 120.537 20.8807 115.855 20.8807 110.386C20.8807 104.918 22.9107 100.236 26.9709 96.3416C31.1139 92.4472 36.044 90.5 41.7614 90.5C47.4787 90.5 52.3674 92.4472 56.4276 96.3416C60.5706 100.236 62.642 104.918 62.642 110.386C62.642 115.855 60.5706 120.537 56.4276 124.431C52.3674 128.326 47.4787 130.273 41.7614 130.273ZM139.236 238.156V353H109.903V162.091H138.241V191.92H140.727C145.202 182.226 151.996 174.437 161.111 168.554C170.225 162.588 181.991 159.605 196.409 159.605C209.335 159.605 220.645 162.257 230.34 167.56C240.035 172.78 247.575 180.734 252.961 191.423C258.347 202.029 261.04 215.453 261.04 231.693V353H231.707V233.682C231.707 218.684 227.813 207.001 220.024 198.632C212.235 190.18 201.546 185.955 187.957 185.955C178.594 185.955 170.225 187.985 162.851 192.045C155.559 196.105 149.8 202.029 145.574 209.818C141.349 217.607 139.236 227.053 139.236 238.156ZM399.654 162.091V186.949H296.742V162.091H399.654ZM327.566 353V135.741C327.566 124.804 330.134 115.689 335.272 108.398C340.409 101.106 347.079 95.6373 355.282 91.9915C363.485 88.3456 372.144 86.5227 381.259 86.5227C388.468 86.5227 394.351 87.1027 398.908 88.2628C403.465 89.4228 406.863 90.5 409.1 91.4943L400.648 116.849C399.157 116.352 397.085 115.731 394.434 114.985C391.865 114.239 388.468 113.866 384.242 113.866C374.547 113.866 367.546 116.311 363.237 121.2C359.011 126.088 356.898 133.256 356.898 142.702V353H327.566ZM510.458 356.977C493.223 356.977 478.101 352.876 465.092 344.673C452.166 336.469 442.057 324.993 434.766 310.244C427.557 295.495 423.952 278.26 423.952 258.54C423.952 238.653 427.557 221.294 434.766 206.462C442.057 191.63 452.166 180.113 465.092 171.91C478.101 163.707 493.223 159.605 510.458 159.605C527.693 159.605 542.773 163.707 555.7 171.91C568.709 180.113 578.817 191.63 586.026 206.462C593.318 221.294 596.964 238.653 596.964 258.54C596.964 278.26 593.318 295.495 586.026 310.244C578.817 324.993 568.709 336.469 555.7 344.673C542.773 352.876 527.693 356.977 510.458 356.977ZM510.458 330.628C523.55 330.628 534.322 327.272 542.773 320.56C551.225 313.849 557.481 305.024 561.541 294.087C565.601 283.149 567.631 271.3 567.631 258.54C567.631 245.779 565.601 233.889 561.541 222.869C557.481 211.848 551.225 202.941 542.773 196.146C534.322 189.352 523.55 185.955 510.458 185.955C497.366 185.955 486.594 189.352 478.143 196.146C469.691 202.941 463.435 211.848 459.375 222.869C455.315 233.889 453.285 245.779 453.285 258.54C453.285 271.3 455.315 283.149 459.375 294.087C463.435 305.024 469.691 313.849 478.143 320.56C486.594 327.272 497.366 330.628 510.458 330.628ZM751.114 230.202V257.545H639.751V230.202H751.114ZM880.282 356.977C862.385 356.977 846.973 352.751 834.047 344.3C821.12 335.848 811.177 324.206 804.217 309.374C797.257 294.542 793.777 277.598 793.777 258.54C793.777 239.151 797.34 222.04 804.466 207.208C811.674 192.293 821.7 180.652 834.544 172.283C847.47 163.831 862.55 159.605 879.785 159.605C893.208 159.605 905.306 162.091 916.078 167.062C926.85 172.034 935.674 178.994 942.551 187.943C949.429 196.892 953.696 207.332 955.353 219.264H926.021C923.784 210.564 918.812 202.858 911.106 196.146C903.483 189.352 893.208 185.955 880.282 185.955C868.848 185.955 858.822 188.937 850.204 194.903C841.67 200.786 834.999 209.114 830.194 219.886C825.471 230.575 823.109 243.128 823.109 257.545C823.109 272.295 825.429 285.138 830.069 296.075C834.792 307.013 841.421 315.506 849.956 321.555C858.573 327.603 868.682 330.628 880.282 330.628C887.905 330.628 894.824 329.302 901.039 326.651C907.253 323.999 912.515 320.188 916.824 315.216C921.132 310.244 924.198 304.278 926.021 297.318H955.353C953.696 308.587 949.595 318.737 943.049 327.769C936.586 336.718 928.01 343.844 917.321 349.147C906.715 354.367 894.368 356.977 880.282 356.977ZM1027.57 98.4545V353H998.233V98.4545H1027.57ZM1081.29 353V162.091H1110.62V353H1081.29ZM1096.2 130.273C1090.49 130.273 1085.56 128.326 1081.41 124.431C1077.35 120.537 1075.32 115.855 1075.32 110.386C1075.32 104.918 1077.35 100.236 1081.41 96.3416C1085.56 92.4472 1090.49 90.5 1096.2 90.5C1101.92 90.5 1106.81 92.4472 1110.87 96.3416C1115.01 100.236 1117.09 104.918 1117.09 110.386C1117.09 115.855 1115.01 120.537 1110.87 124.431C1106.81 128.326 1101.92 130.273 1096.2 130.273ZM1244.39 356.977C1225.99 356.977 1210.13 352.917 1196.79 344.797C1183.53 336.594 1173.3 325.159 1166.09 310.493C1158.96 295.744 1155.4 278.592 1155.4 259.037C1155.4 239.482 1158.96 222.247 1166.09 207.332C1173.3 192.335 1183.32 180.652 1196.16 172.283C1209.09 163.831 1224.17 159.605 1241.41 159.605C1251.35 159.605 1261.17 161.262 1270.86 164.577C1280.56 167.891 1289.38 173.277 1297.34 180.734C1305.29 188.109 1311.63 197.886 1316.35 210.067C1321.08 222.247 1323.44 237.245 1323.44 255.06V267.489H1176.28V242.134H1293.61C1293.61 231.362 1291.45 221.75 1287.14 213.298C1282.92 204.847 1276.87 198.176 1269 193.288C1261.21 188.399 1252.01 185.955 1241.41 185.955C1229.72 185.955 1219.61 188.855 1211.08 194.655C1202.63 200.372 1196.12 207.83 1191.57 217.027C1187.01 226.224 1184.73 236.085 1184.73 246.608V263.511C1184.73 277.929 1187.22 290.151 1192.19 300.177C1197.24 310.12 1204.24 317.702 1213.19 322.922C1222.14 328.059 1232.54 330.628 1244.39 330.628C1252.1 330.628 1259.06 329.551 1265.27 327.396C1271.57 325.159 1276.99 321.845 1281.55 317.453C1286.11 312.979 1289.63 307.427 1292.12 300.798L1320.45 308.753C1317.47 318.365 1312.46 326.816 1305.42 334.108C1298.37 341.317 1289.67 346.951 1279.31 351.011C1268.96 354.989 1257.32 356.977 1244.39 356.977ZM1397.39 238.156V353H1368.06V162.091H1396.4V191.92H1398.88C1403.36 182.226 1410.15 174.437 1419.26 168.554C1428.38 162.588 1440.15 159.605 1454.56 159.605C1467.49 159.605 1478.8 162.257 1488.49 167.56C1498.19 172.78 1505.73 180.734 1511.12 191.423C1516.5 202.029 1519.19 215.453 1519.19 231.693V353H1489.86V233.682C1489.86 218.684 1485.97 207.001 1478.18 198.632C1470.39 190.18 1459.7 185.955 1446.11 185.955C1436.75 185.955 1428.38 187.985 1421 192.045C1413.71 196.105 1407.95 202.029 1403.73 209.818C1399.5 217.607 1397.39 227.053 1397.39 238.156ZM1655.82 162.091V186.949H1556.88V162.091H1655.82ZM1585.72 116.352H1615.05V298.312C1615.05 306.598 1616.25 312.813 1618.66 316.956C1621.14 321.016 1624.29 323.75 1628.1 325.159C1632 326.485 1636.1 327.148 1640.41 327.148C1643.64 327.148 1646.29 326.982 1648.36 326.651C1650.43 326.236 1652.09 325.905 1653.33 325.656L1659.3 352.006C1657.31 352.751 1654.54 353.497 1650.97 354.243C1647.41 355.071 1642.89 355.486 1637.42 355.486C1629.14 355.486 1621.02 353.704 1613.06 350.141C1605.19 346.578 1598.65 341.151 1593.43 333.859C1588.29 326.568 1585.72 317.37 1585.72 306.267V116.352Z" fill="#888888"/>
</svg>
