<svg width="1138" height="451" viewBox="0 0 1138 451" fill="none" xmlns="http://www.w3.org/2000/svg">
<path d="M30.8239 353V98.4545H60.1562V192.418H62.642C64.7964 189.103 67.7794 184.877 71.5909 179.74C75.4853 174.52 81.0369 169.88 88.2457 165.82C95.5374 161.677 105.398 159.605 117.827 159.605C133.902 159.605 148.071 163.624 160.334 171.661C172.597 179.699 182.167 191.092 189.045 205.841C195.922 220.59 199.361 237.991 199.361 258.043C199.361 278.26 195.922 295.785 189.045 310.617C182.167 325.366 172.639 336.801 160.458 344.921C148.278 352.959 134.233 356.977 118.324 356.977C106.061 356.977 96.2417 354.947 88.8672 350.887C81.4927 346.744 75.8168 342.062 71.8395 336.842C67.8622 331.539 64.7964 327.148 62.642 323.668H59.1619V353H30.8239ZM59.6591 257.545C59.6591 271.963 61.772 284.682 65.9979 295.702C70.2237 306.64 76.3968 315.216 84.517 321.43C92.6373 327.562 102.58 330.628 114.347 330.628C126.61 330.628 136.843 327.396 145.046 320.933C153.332 314.387 159.547 305.604 163.69 294.584C167.915 283.481 170.028 271.134 170.028 257.545C170.028 244.122 167.957 232.025 163.814 221.253C159.754 210.398 153.581 201.822 145.295 195.525C137.092 189.145 126.776 185.955 114.347 185.955C102.415 185.955 92.3887 188.979 84.2685 195.028C76.1482 200.994 70.0166 209.362 65.8736 220.134C61.7306 230.823 59.6591 243.294 59.6591 257.545ZM364.542 274.946V162.091H393.874V353H364.542V320.685H362.553C358.079 330.379 351.119 338.624 341.673 345.418C332.227 352.13 320.295 355.486 305.877 355.486C293.945 355.486 283.339 352.876 274.059 347.656C264.779 342.353 257.487 334.398 252.184 323.792C246.881 313.103 244.229 299.638 244.229 283.398V162.091H273.562V281.409C273.562 295.33 277.456 306.433 285.245 314.719C293.117 323.005 303.143 327.148 315.323 327.148C322.615 327.148 330.031 325.283 337.571 321.555C345.194 317.826 351.574 312.109 356.712 304.403C361.932 296.697 364.542 286.878 364.542 274.946ZM447.599 353V162.091H476.931V353H447.599ZM462.513 130.273C456.796 130.273 451.866 128.326 447.723 124.431C443.663 120.537 441.633 115.855 441.633 110.386C441.633 104.918 443.663 100.236 447.723 96.3416C451.866 92.4472 456.796 90.5 462.513 90.5C468.231 90.5 473.119 92.4472 477.18 96.3416C481.323 100.236 483.394 104.918 483.394 110.386C483.394 115.855 481.323 120.537 477.18 124.431C473.119 128.326 468.231 130.273 462.513 130.273ZM559.988 98.4545V353H530.655V98.4545H559.988ZM685.8 356.977C669.891 356.977 655.846 352.959 643.666 344.921C631.485 336.801 621.956 325.366 615.079 310.617C608.202 295.785 604.763 278.26 604.763 258.043C604.763 237.991 608.202 220.59 615.079 205.841C621.956 191.092 631.527 179.699 643.79 171.661C656.053 163.624 670.222 159.605 686.297 159.605C698.726 159.605 708.545 161.677 715.754 165.82C723.045 169.88 728.597 174.52 732.409 179.74C736.303 184.877 739.327 189.103 741.482 192.418H743.968V98.4545H773.3V353H744.962V323.668H741.482C739.327 327.148 736.262 331.539 732.284 336.842C728.307 342.062 722.631 346.744 715.257 350.887C707.882 354.947 698.063 356.977 685.8 356.977ZM689.777 330.628C701.543 330.628 711.486 327.562 719.607 321.43C727.727 315.216 733.9 306.64 738.126 295.702C742.352 284.682 744.465 271.963 744.465 257.545C744.465 243.294 742.393 230.823 738.25 220.134C734.107 209.362 727.976 200.994 719.855 195.028C711.735 188.979 701.709 185.955 689.777 185.955C677.348 185.955 666.991 189.145 658.705 195.525C650.502 201.822 644.329 210.398 640.186 221.253C636.125 232.025 634.095 244.122 634.095 257.545C634.095 271.134 636.167 283.481 640.31 294.584C644.536 305.604 650.75 314.387 658.953 320.933C667.239 327.396 677.514 330.628 689.777 330.628ZM911.137 356.977C892.742 356.977 876.875 352.917 863.534 344.797C850.277 336.594 840.044 325.159 832.835 310.493C825.709 295.744 822.146 278.592 822.146 259.037C822.146 239.482 825.709 222.247 832.835 207.332C840.044 192.335 850.07 180.652 862.913 172.283C875.839 163.831 890.919 159.605 908.154 159.605C918.097 159.605 927.916 161.262 937.611 164.577C947.306 167.891 956.13 173.277 964.085 180.734C972.039 188.109 978.378 197.886 983.101 210.067C987.824 222.247 990.186 237.245 990.186 255.06V267.489H843.026V242.134H960.356C960.356 231.362 958.202 221.75 953.893 213.298C949.667 204.847 943.618 198.176 935.747 193.288C927.958 188.399 918.76 185.955 908.154 185.955C896.471 185.955 886.362 188.855 877.828 194.655C869.376 200.372 862.871 207.83 858.314 217.027C853.757 226.224 851.478 236.085 851.478 246.608V263.511C851.478 277.929 853.964 290.151 858.936 300.177C863.99 310.12 870.992 317.702 879.941 322.922C888.889 328.059 899.288 330.628 911.137 330.628C918.843 330.628 925.803 329.551 932.018 327.396C938.315 325.159 943.743 321.845 948.3 317.453C952.857 312.979 956.379 307.427 958.865 300.798L987.203 308.753C984.22 318.365 979.207 326.816 972.164 334.108C965.12 341.317 956.42 346.951 946.063 351.011C935.705 354.989 924.063 356.977 911.137 356.977ZM1034.81 353V162.091H1063.14V190.926H1065.13C1068.61 181.48 1074.91 173.816 1084.02 167.933C1093.14 162.049 1103.41 159.108 1114.85 159.108C1117 159.108 1119.7 159.149 1122.93 159.232C1126.16 159.315 1128.6 159.439 1130.26 159.605V189.435C1129.27 189.186 1126.99 188.813 1123.42 188.316C1119.94 187.736 1116.26 187.446 1112.36 187.446C1103.08 187.446 1094.8 189.393 1087.5 193.288C1080.3 197.099 1074.58 202.402 1070.35 209.197C1066.21 215.908 1064.14 223.573 1064.14 232.19V353H1034.81Z" fill="#888888"/>
</svg>
