<svg width="1540" height="451" viewBox="0 0 1540 451" fill="none" xmlns="http://www.w3.org/2000/svg">
<path d="M98.9347 356.977C83.0256 356.977 68.9808 352.959 56.8004 344.921C44.62 336.801 35.0911 325.366 28.2138 310.617C21.3364 295.785 17.8977 278.26 17.8977 258.043C17.8977 237.991 21.3364 220.59 28.2138 205.841C35.0911 191.092 44.6615 179.699 56.9247 171.661C69.188 163.624 83.357 159.605 99.4318 159.605C111.861 159.605 121.68 161.677 128.888 165.82C136.18 169.88 141.732 174.52 145.543 179.74C149.438 184.877 152.462 189.103 154.616 192.418H157.102V98.4545H186.435V353H158.097V323.668H154.616C152.462 327.148 149.396 331.539 145.419 336.842C141.442 342.062 135.766 346.744 128.391 350.887C121.017 354.947 111.198 356.977 98.9347 356.977ZM102.912 330.628C114.678 330.628 124.621 327.562 132.741 321.43C140.862 315.216 147.035 306.64 151.261 295.702C155.487 284.682 157.599 271.963 157.599 257.545C157.599 243.294 155.528 230.823 151.385 220.134C147.242 209.362 141.11 200.994 132.99 195.028C124.87 188.979 114.844 185.955 102.912 185.955C90.483 185.955 80.1255 189.145 71.8395 195.525C63.6364 201.822 57.4633 210.398 53.3203 221.253C49.2602 232.025 47.2301 244.122 47.2301 257.545C47.2301 271.134 49.3016 283.481 53.4446 294.584C57.6705 305.604 63.8849 314.387 72.0881 320.933C80.3741 327.396 90.6487 330.628 102.912 330.628ZM300.408 357.474C288.311 357.474 277.332 355.196 267.472 350.638C257.611 345.998 249.781 339.328 243.981 330.628C238.181 321.845 235.281 311.239 235.281 298.81C235.281 287.872 237.435 279.006 241.744 272.212C246.052 265.334 251.811 259.948 259.02 256.054C266.229 252.16 274.183 249.259 282.884 247.354C291.667 245.365 300.491 243.791 309.357 242.631C320.958 241.139 330.362 240.021 337.571 239.275C344.863 238.446 350.166 237.079 353.48 235.173C356.877 233.268 358.576 229.953 358.576 225.23V224.236C358.576 211.973 355.22 202.444 348.509 195.649C341.88 188.855 331.812 185.457 318.306 185.457C304.303 185.457 293.324 188.523 285.369 194.655C277.415 200.786 271.822 207.332 268.59 214.293L240.749 204.349C245.721 192.749 252.35 183.717 260.636 177.254C269.005 170.708 278.119 166.151 287.979 163.582C297.923 160.931 307.7 159.605 317.312 159.605C323.443 159.605 330.487 160.351 338.441 161.842C346.478 163.251 354.226 166.192 361.683 170.667C369.223 175.141 375.479 181.894 380.451 190.926C385.423 199.958 387.908 212.055 387.908 227.219V353H358.576V327.148H357.085C355.096 331.291 351.781 335.724 347.141 340.447C342.501 345.17 336.328 349.188 328.622 352.503C320.916 355.817 311.512 357.474 300.408 357.474ZM304.883 331.125C316.483 331.125 326.261 328.846 334.215 324.289C342.253 319.732 348.301 313.849 352.362 306.64C356.504 299.431 358.576 291.849 358.576 283.895V257.048C357.333 258.54 354.599 259.907 350.373 261.15C346.23 262.31 341.424 263.346 335.955 264.257C330.569 265.086 325.308 265.831 320.17 266.494C315.116 267.074 311.014 267.571 307.866 267.986C300.243 268.98 293.117 270.596 286.488 272.833C279.942 274.987 274.639 278.26 270.579 282.652C266.602 286.961 264.613 292.844 264.613 300.301C264.613 310.493 268.383 318.199 275.923 323.419C283.546 328.556 293.2 331.125 304.883 331.125ZM524.472 162.091V186.949H425.537V162.091H524.472ZM454.372 116.352H483.705V298.312C483.705 306.598 484.906 312.813 487.309 316.956C489.795 321.016 492.944 323.75 496.755 325.159C500.65 326.485 504.751 327.148 509.06 327.148C512.291 327.148 514.943 326.982 517.014 326.651C519.086 326.236 520.743 325.905 521.986 325.656L527.952 352.006C525.963 352.751 523.187 353.497 519.624 354.243C516.061 355.071 511.546 355.486 506.077 355.486C497.791 355.486 489.671 353.704 481.716 350.141C473.844 346.578 467.298 341.151 462.078 333.859C456.941 326.568 454.372 317.37 454.372 306.267V116.352ZM624.774 357.474C612.676 357.474 601.697 355.196 591.837 350.638C581.977 345.998 574.146 339.328 568.346 330.628C562.546 321.845 559.646 311.239 559.646 298.81C559.646 287.872 561.8 279.006 566.109 272.212C570.418 265.334 576.176 259.948 583.385 256.054C590.594 252.16 598.548 249.259 607.249 247.354C616.032 245.365 624.856 243.791 633.722 242.631C645.323 241.139 654.727 240.021 661.936 239.275C669.228 238.446 674.531 237.079 677.845 235.173C681.243 233.268 682.941 229.953 682.941 225.23V224.236C682.941 211.973 679.585 202.444 672.874 195.649C666.245 188.855 656.178 185.457 642.671 185.457C628.668 185.457 617.689 188.523 609.735 194.655C601.78 200.786 596.187 207.332 592.955 214.293L565.115 204.349C570.086 192.749 576.715 183.717 585.001 177.254C593.37 170.708 602.484 166.151 612.345 163.582C622.288 160.931 632.065 159.605 641.677 159.605C647.809 159.605 654.852 160.351 662.806 161.842C670.844 163.251 678.591 166.192 686.048 170.667C693.589 175.141 699.845 181.894 704.816 190.926C709.788 199.958 712.274 212.055 712.274 227.219V353H682.941V327.148H681.45C679.461 331.291 676.147 335.724 671.507 340.447C666.866 345.17 660.693 349.188 652.987 352.503C645.281 355.817 635.877 357.474 624.774 357.474ZM629.248 331.125C640.848 331.125 650.626 328.846 658.58 324.289C666.618 319.732 672.667 313.849 676.727 306.64C680.87 299.431 682.941 291.849 682.941 283.895V257.048C681.698 258.54 678.964 259.907 674.738 261.15C670.595 262.31 665.789 263.346 660.32 264.257C654.935 265.086 649.673 265.831 644.536 266.494C639.481 267.074 635.38 267.571 632.231 267.986C624.608 268.98 617.482 270.596 610.853 272.833C604.307 274.987 599.004 278.26 594.944 282.652C590.967 286.961 588.978 292.844 588.978 300.301C588.978 310.493 592.748 318.199 600.289 323.419C607.912 328.556 617.565 331.125 629.248 331.125ZM769.789 353V98.4545H799.121V192.418H801.607C803.761 189.103 806.744 184.877 810.556 179.74C814.45 174.52 820.002 169.88 827.211 165.82C834.502 161.677 844.363 159.605 856.792 159.605C872.866 159.605 887.035 163.624 899.299 171.661C911.562 179.699 921.132 191.092 928.01 205.841C934.887 220.59 938.326 237.991 938.326 258.043C938.326 278.26 934.887 295.785 928.01 310.617C921.132 325.366 911.603 336.801 899.423 344.921C887.243 352.959 873.198 356.977 857.289 356.977C845.025 356.977 835.207 354.947 827.832 350.887C820.458 346.744 814.782 342.062 810.804 336.842C806.827 331.539 803.761 327.148 801.607 323.668H798.127V353H769.789ZM798.624 257.545C798.624 271.963 800.737 284.682 804.963 295.702C809.189 306.64 815.362 315.216 823.482 321.43C831.602 327.562 841.545 330.628 853.311 330.628C865.575 330.628 875.808 327.396 884.011 320.933C892.297 314.387 898.511 305.604 902.654 294.584C906.88 283.481 908.993 271.134 908.993 257.545C908.993 244.122 906.922 232.025 902.779 221.253C898.719 210.398 892.546 201.822 884.26 195.525C876.056 189.145 865.74 185.955 853.311 185.955C841.38 185.955 831.354 188.979 823.233 195.028C815.113 200.994 808.981 209.362 804.838 220.134C800.695 230.823 798.624 243.294 798.624 257.545ZM1039.37 357.474C1027.28 357.474 1016.3 355.196 1006.44 350.638C996.576 345.998 988.746 339.328 982.946 330.628C977.145 321.845 974.245 311.239 974.245 298.81C974.245 287.872 976.4 279.006 980.708 272.212C985.017 265.334 990.776 259.948 997.985 256.054C1005.19 252.16 1013.15 249.259 1021.85 247.354C1030.63 245.365 1039.46 243.791 1048.32 242.631C1059.92 241.139 1069.33 240.021 1076.54 239.275C1083.83 238.446 1089.13 237.079 1092.44 235.173C1095.84 233.268 1097.54 229.953 1097.54 225.23V224.236C1097.54 211.973 1094.19 202.444 1087.47 195.649C1080.84 188.855 1070.78 185.457 1057.27 185.457C1043.27 185.457 1032.29 188.523 1024.33 194.655C1016.38 200.786 1010.79 207.332 1007.56 214.293L979.714 204.349C984.686 192.749 991.315 183.717 999.6 177.254C1007.97 170.708 1017.08 166.151 1026.94 163.582C1036.89 160.931 1046.66 159.605 1056.28 159.605C1062.41 159.605 1069.45 160.351 1077.41 161.842C1085.44 163.251 1093.19 166.192 1100.65 170.667C1108.19 175.141 1114.44 181.894 1119.42 190.926C1124.39 199.958 1126.87 212.055 1126.87 227.219V353H1097.54V327.148H1096.05C1094.06 331.291 1090.75 335.724 1086.11 340.447C1081.47 345.17 1075.29 349.188 1067.59 352.503C1059.88 355.817 1050.48 357.474 1039.37 357.474ZM1043.85 331.125C1055.45 331.125 1065.23 328.846 1073.18 324.289C1081.22 319.732 1087.27 313.849 1091.33 306.64C1095.47 299.431 1097.54 291.849 1097.54 283.895V257.048C1096.3 258.54 1093.56 259.907 1089.34 261.15C1085.19 262.31 1080.39 263.346 1074.92 264.257C1069.53 265.086 1064.27 265.831 1059.14 266.494C1054.08 267.074 1049.98 267.571 1046.83 267.986C1039.21 268.98 1032.08 270.596 1025.45 272.833C1018.91 274.987 1013.6 278.26 1009.54 282.652C1005.57 286.961 1003.58 292.844 1003.58 300.301C1003.58 310.493 1007.35 318.199 1014.89 323.419C1022.51 328.556 1032.16 331.125 1043.85 331.125ZM1315.64 204.847L1289.29 212.304C1287.63 207.912 1285.19 203.645 1281.96 199.502C1278.81 195.276 1274.5 191.796 1269.03 189.062C1263.56 186.327 1256.56 184.96 1248.02 184.96C1236.34 184.96 1226.61 187.653 1218.82 193.039C1211.11 198.342 1207.26 205.095 1207.26 213.298C1207.26 220.59 1209.91 226.349 1215.21 230.575C1220.52 234.8 1228.8 238.322 1240.07 241.139L1268.41 248.099C1285.48 252.242 1298.2 258.581 1306.57 267.116C1314.93 275.567 1319.12 286.464 1319.12 299.804C1319.12 310.741 1315.97 320.519 1309.67 329.136C1303.46 337.754 1294.76 344.548 1283.57 349.52C1272.39 354.491 1259.38 356.977 1244.54 356.977C1225.07 356.977 1208.96 352.751 1196.2 344.3C1183.44 335.848 1175.36 323.502 1171.96 307.261L1199.8 300.301C1202.45 310.576 1207.46 318.282 1214.84 323.419C1222.3 328.556 1232.03 331.125 1244.05 331.125C1257.72 331.125 1268.57 328.225 1276.61 322.425C1284.73 316.542 1288.79 309.499 1288.79 301.295C1288.79 294.667 1286.47 289.115 1281.83 284.641C1277.19 280.083 1270.07 276.686 1260.45 274.449L1228.64 266.991C1211.15 262.848 1198.31 256.427 1190.11 247.727C1181.99 238.943 1177.93 227.964 1177.93 214.79C1177.93 204.018 1180.95 194.489 1187 186.203C1193.13 177.917 1201.46 171.413 1211.98 166.69C1222.59 161.967 1234.6 159.605 1248.02 159.605C1266.92 159.605 1281.75 163.748 1292.52 172.034C1303.38 180.32 1311.08 191.258 1315.64 204.847ZM1443.31 356.977C1424.92 356.977 1409.05 352.917 1395.71 344.797C1382.45 336.594 1372.22 325.159 1365.01 310.493C1357.89 295.744 1354.32 278.592 1354.32 259.037C1354.32 239.482 1357.89 222.247 1365.01 207.332C1372.22 192.335 1382.25 180.652 1395.09 172.283C1408.02 163.831 1423.1 159.605 1440.33 159.605C1450.28 159.605 1460.09 161.262 1469.79 164.577C1479.48 167.891 1488.31 173.277 1496.26 180.734C1504.22 188.109 1510.56 197.886 1515.28 210.067C1520 222.247 1522.36 237.245 1522.36 255.06V267.489H1375.2V242.134H1492.53C1492.53 231.362 1490.38 221.75 1486.07 213.298C1481.84 204.847 1475.8 198.176 1467.92 193.288C1460.14 188.399 1450.94 185.955 1440.33 185.955C1428.65 185.955 1418.54 188.855 1410.01 194.655C1401.55 200.372 1395.05 207.83 1390.49 217.027C1385.93 226.224 1383.66 236.085 1383.66 246.608V263.511C1383.66 277.929 1386.14 290.151 1391.11 300.177C1396.17 310.12 1403.17 317.702 1412.12 322.922C1421.07 328.059 1431.47 330.628 1443.31 330.628C1451.02 330.628 1457.98 329.551 1464.2 327.396C1470.49 325.159 1475.92 321.845 1480.48 317.453C1485.03 312.979 1488.56 307.427 1491.04 300.798L1519.38 308.753C1516.4 318.365 1511.38 326.816 1504.34 334.108C1497.3 341.317 1488.6 346.951 1478.24 351.011C1467.88 354.989 1456.24 356.977 1443.31 356.977Z" fill="#888888"/>
</svg>
