<svg width="3203" height="451" viewBox="0 0 3203 451" fill="none" xmlns="http://www.w3.org/2000/svg">
<path d="M70.0994 353L11.9318 162.091H42.7557L84.0199 308.256H86.0085L126.776 162.091H158.097L198.366 307.759H200.355L241.619 162.091H272.443L214.276 353H185.44L143.679 206.338H140.696L98.9347 353H70.0994ZM382.284 356.977C365.049 356.977 349.928 352.876 336.919 344.673C323.992 336.469 313.883 324.993 306.592 310.244C299.383 295.495 295.779 278.26 295.779 258.54C295.779 238.653 299.383 221.294 306.592 206.462C313.883 191.63 323.992 180.113 336.919 171.91C349.928 163.707 365.049 159.605 382.284 159.605C399.519 159.605 414.6 163.707 427.526 171.91C440.535 180.113 450.644 191.63 457.852 206.462C465.144 221.294 468.79 238.653 468.79 258.54C468.79 278.26 465.144 295.495 457.852 310.244C450.644 324.993 440.535 336.469 427.526 344.673C414.6 352.876 399.519 356.977 382.284 356.977ZM382.284 330.628C395.376 330.628 406.148 327.272 414.6 320.56C423.051 313.849 429.307 305.024 433.367 294.087C437.428 283.149 439.458 271.3 439.458 258.54C439.458 245.779 437.428 233.889 433.367 222.869C429.307 211.848 423.051 202.941 414.6 196.146C406.148 189.352 395.376 185.955 382.284 185.955C369.192 185.955 358.421 189.352 349.969 196.146C341.517 202.941 335.261 211.848 331.201 222.869C327.141 233.889 325.111 245.779 325.111 258.54C325.111 271.3 327.141 283.149 331.201 294.087C335.261 305.024 341.517 313.849 349.969 320.56C358.421 327.272 369.192 330.628 382.284 330.628ZM513.565 353V162.091H541.903V190.926H543.892C547.372 181.48 553.67 173.816 562.784 167.933C571.899 162.049 582.173 159.108 593.608 159.108C595.762 159.108 598.455 159.149 601.687 159.232C604.918 159.315 607.363 159.439 609.02 159.605V189.435C608.026 189.186 605.747 188.813 602.184 188.316C598.704 187.736 595.017 187.446 591.122 187.446C581.842 187.446 573.556 189.393 566.264 193.288C559.055 197.099 553.338 202.402 549.112 209.197C544.969 215.908 542.898 223.573 542.898 232.19V353H513.565ZM671.134 283.398L670.637 247.105H676.602L760.125 162.091H796.418L707.426 252.077H704.941L671.134 283.398ZM643.79 353V98.4545H673.122V353H643.79ZM765.097 353L690.523 258.54L711.404 238.156L802.384 353H765.097ZM906.352 356.977C887.957 356.977 872.09 352.917 858.749 344.797C845.492 336.594 835.258 325.159 828.05 310.493C820.924 295.744 817.361 278.592 817.361 259.037C817.361 239.482 820.924 222.247 828.05 207.332C835.258 192.335 845.284 180.652 858.128 172.283C871.054 163.831 886.134 159.605 903.369 159.605C913.312 159.605 923.131 161.262 932.826 164.577C942.52 167.891 951.345 173.277 959.3 180.734C967.254 188.109 973.593 197.886 978.316 210.067C983.039 222.247 985.4 237.245 985.4 255.06V267.489H838.241V242.134H955.571C955.571 231.362 953.416 221.75 949.108 213.298C944.882 204.847 938.833 198.176 930.961 193.288C923.173 188.399 913.975 185.955 903.369 185.955C891.686 185.955 881.577 188.855 873.042 194.655C864.591 200.372 858.086 207.83 853.529 217.027C848.972 226.224 846.693 236.085 846.693 246.608V263.511C846.693 277.929 849.179 290.151 854.15 300.177C859.205 310.12 866.207 317.702 875.155 322.922C884.104 328.059 894.503 330.628 906.352 330.628C914.058 330.628 921.018 329.551 927.233 327.396C933.53 325.159 938.957 321.845 943.515 317.453C948.072 312.979 951.594 307.427 954.079 300.798L982.417 308.753C979.434 318.365 974.421 326.816 967.378 334.108C960.335 341.317 951.635 346.951 941.278 351.011C930.92 354.989 919.278 356.977 906.352 356.977ZM1030.02 353V162.091H1058.36V190.926H1060.35C1063.83 181.48 1070.12 173.816 1079.24 167.933C1088.35 162.049 1098.63 159.108 1110.06 159.108C1112.22 159.108 1114.91 159.149 1118.14 159.232C1121.37 159.315 1123.82 159.439 1125.47 159.605V189.435C1124.48 189.186 1122.2 188.813 1118.64 188.316C1115.16 187.736 1111.47 187.446 1107.58 187.446C1098.3 187.446 1090.01 189.393 1082.72 193.288C1075.51 197.099 1069.79 202.402 1065.57 209.197C1061.42 215.908 1059.35 223.573 1059.35 232.19V353H1030.02ZM1255.61 230.202V257.545H1144.24V230.202H1255.61ZM1336.55 238.156V353H1307.22V98.4545H1336.55V191.92H1339.04C1343.51 182.06 1350.22 174.23 1359.17 168.43C1368.2 162.547 1380.22 159.605 1395.21 159.605C1408.22 159.605 1419.62 162.215 1429.39 167.435C1439.17 172.573 1446.75 180.486 1452.14 191.175C1457.61 201.781 1460.34 215.287 1460.34 231.693V353H1431.01V233.682C1431.01 218.518 1427.07 206.794 1419.2 198.508C1411.41 190.139 1400.6 185.955 1386.76 185.955C1377.15 185.955 1368.53 187.985 1360.91 192.045C1353.37 196.105 1347.4 202.029 1343.01 209.818C1338.7 217.607 1336.55 227.053 1336.55 238.156ZM1597.03 162.091V186.949H1498.1V162.091H1597.03ZM1526.93 116.352H1556.26V298.312C1556.26 306.598 1557.46 312.813 1559.87 316.956C1562.35 321.016 1565.5 323.75 1569.31 325.159C1573.21 326.485 1577.31 327.148 1581.62 327.148C1584.85 327.148 1587.5 326.982 1589.57 326.651C1591.64 326.236 1593.3 325.905 1594.54 325.656L1600.51 352.006C1598.52 352.751 1595.75 353.497 1592.18 354.243C1588.62 355.071 1584.1 355.486 1578.64 355.486C1570.35 355.486 1562.23 353.704 1554.27 350.141C1546.4 346.578 1539.86 341.151 1534.64 333.859C1529.5 326.568 1526.93 317.37 1526.93 306.267V116.352ZM1724.18 162.091V186.949H1625.24V162.091H1724.18ZM1654.08 116.352H1683.41V298.312C1683.41 306.598 1684.61 312.813 1687.02 316.956C1689.5 321.016 1692.65 323.75 1696.46 325.159C1700.36 326.485 1704.46 327.148 1708.77 327.148C1712 327.148 1714.65 326.982 1716.72 326.651C1718.79 326.236 1720.45 325.905 1721.69 325.656L1727.66 352.006C1725.67 352.751 1722.89 353.497 1719.33 354.243C1715.77 355.071 1711.25 355.486 1705.78 355.486C1697.5 355.486 1689.38 353.704 1681.42 350.141C1673.55 346.578 1667.01 341.151 1661.79 333.859C1656.65 326.568 1654.08 317.37 1654.08 306.267V116.352ZM1768.3 424.591V162.091H1796.64V192.418H1800.12C1802.27 189.103 1805.26 184.877 1809.07 179.74C1812.96 174.52 1818.51 169.88 1825.72 165.82C1833.02 161.677 1842.88 159.605 1855.3 159.605C1871.38 159.605 1885.55 163.624 1897.81 171.661C1910.07 179.699 1919.65 191.092 1926.52 205.841C1933.4 220.59 1936.84 237.991 1936.84 258.043C1936.84 278.26 1933.4 295.785 1926.52 310.617C1919.65 325.366 1910.12 336.801 1897.94 344.921C1885.76 352.959 1871.71 356.977 1855.8 356.977C1843.54 356.977 1833.72 354.947 1826.34 350.887C1818.97 346.744 1813.29 342.062 1809.32 336.842C1805.34 331.539 1802.27 327.148 1800.12 323.668H1797.63V424.591H1768.3ZM1797.14 257.545C1797.14 271.963 1799.25 284.682 1803.48 295.702C1807.7 306.64 1813.87 315.216 1821.99 321.43C1830.12 327.562 1840.06 330.628 1851.82 330.628C1864.09 330.628 1874.32 327.396 1882.52 320.933C1890.81 314.387 1897.02 305.604 1901.17 294.584C1905.39 283.481 1907.51 271.134 1907.51 257.545C1907.51 244.122 1905.43 232.025 1901.29 221.253C1897.23 210.398 1891.06 201.822 1882.77 195.525C1874.57 189.145 1864.25 185.955 1851.82 185.955C1839.89 185.955 1829.87 188.979 1821.75 195.028C1813.63 200.994 1807.49 209.362 1803.35 220.134C1799.21 230.823 1797.14 243.294 1797.14 257.545ZM2090.96 230.202V257.545H1979.59V230.202H2090.96ZM2277.8 204.847L2251.45 212.304C2249.79 207.912 2247.35 203.645 2244.11 199.502C2240.97 195.276 2236.66 191.796 2231.19 189.062C2225.72 186.327 2218.72 184.96 2210.18 184.96C2198.5 184.96 2188.76 187.653 2180.97 193.039C2173.27 198.342 2169.42 205.095 2169.42 213.298C2169.42 220.59 2172.07 226.349 2177.37 230.575C2182.67 234.8 2190.96 238.322 2202.23 241.139L2230.57 248.099C2247.64 252.242 2260.35 258.581 2268.72 267.116C2277.09 275.567 2281.28 286.464 2281.28 299.804C2281.28 310.741 2278.13 320.519 2271.83 329.136C2265.62 337.754 2256.92 344.548 2245.73 349.52C2234.54 354.491 2221.53 356.977 2206.7 356.977C2187.23 356.977 2171.11 352.751 2158.35 344.3C2145.59 335.848 2137.51 323.502 2134.12 307.261L2161.96 300.301C2164.61 310.576 2169.62 318.282 2177 323.419C2184.45 328.556 2194.19 331.125 2206.21 331.125C2219.88 331.125 2230.73 328.225 2238.77 322.425C2246.89 316.542 2250.95 309.499 2250.95 301.295C2250.95 294.667 2248.63 289.115 2243.99 284.641C2239.35 280.083 2232.22 276.686 2222.61 274.449L2190.79 266.991C2173.31 262.848 2160.47 256.427 2152.26 247.727C2144.14 238.943 2140.08 227.964 2140.08 214.79C2140.08 204.018 2143.11 194.489 2149.16 186.203C2155.29 177.917 2163.62 171.413 2174.14 166.69C2184.74 161.967 2196.76 159.605 2210.18 159.605C2229.07 159.605 2243.91 163.748 2254.68 172.034C2265.53 180.32 2273.24 191.258 2277.8 204.847ZM2405.47 356.977C2387.08 356.977 2371.21 352.917 2357.87 344.797C2344.61 336.594 2334.38 325.159 2327.17 310.493C2320.04 295.744 2316.48 278.592 2316.48 259.037C2316.48 239.482 2320.04 222.247 2327.17 207.332C2334.38 192.335 2344.41 180.652 2357.25 172.283C2370.17 163.831 2385.26 159.605 2402.49 159.605C2412.43 159.605 2422.25 161.262 2431.95 164.577C2441.64 167.891 2450.47 173.277 2458.42 180.734C2466.38 188.109 2472.71 197.886 2477.44 210.067C2482.16 222.247 2484.52 237.245 2484.52 255.06V267.489H2337.36V242.134H2454.69C2454.69 231.362 2452.54 221.75 2448.23 213.298C2444 204.847 2437.95 198.176 2430.08 193.288C2422.29 188.399 2413.1 185.955 2402.49 185.955C2390.81 185.955 2380.7 188.855 2372.16 194.655C2363.71 200.372 2357.21 207.83 2352.65 217.027C2348.09 226.224 2345.81 236.085 2345.81 246.608V263.511C2345.81 277.929 2348.3 290.151 2353.27 300.177C2358.33 310.12 2365.33 317.702 2374.28 322.922C2383.23 328.059 2393.62 330.628 2405.47 330.628C2413.18 330.628 2420.14 329.551 2426.35 327.396C2432.65 325.159 2438.08 321.845 2442.64 317.453C2447.19 312.979 2450.71 307.427 2453.2 300.798L2481.54 308.753C2478.56 318.365 2473.54 326.816 2466.5 334.108C2459.46 341.317 2450.76 346.951 2440.4 351.011C2430.04 354.989 2418.4 356.977 2405.47 356.977ZM2529.14 353V162.091H2557.48V190.926H2559.47C2562.95 181.48 2569.25 173.816 2578.36 167.933C2587.47 162.049 2597.75 159.108 2609.18 159.108C2611.34 159.108 2614.03 159.149 2617.26 159.232C2620.49 159.315 2622.94 159.439 2624.6 159.605V189.435C2623.6 189.186 2621.32 188.813 2617.76 188.316C2614.28 187.736 2610.59 187.446 2606.7 187.446C2597.42 187.446 2589.13 189.393 2581.84 193.288C2574.63 197.099 2568.91 202.402 2564.69 209.197C2560.55 215.908 2558.47 223.573 2558.47 232.19V353H2529.14ZM2821.28 162.091L2750.69 353H2720.86L2650.26 162.091H2682.08L2734.78 314.222H2736.77L2789.47 162.091H2821.28ZM2933.21 356.977C2914.81 356.977 2898.95 352.917 2885.6 344.797C2872.35 336.594 2862.11 325.159 2854.91 310.493C2847.78 295.744 2844.22 278.592 2844.22 259.037C2844.22 239.482 2847.78 222.247 2854.91 207.332C2862.11 192.335 2872.14 180.652 2884.98 172.283C2897.91 163.831 2912.99 159.605 2930.22 159.605C2940.17 159.605 2949.99 161.262 2959.68 164.577C2969.38 167.891 2978.2 173.277 2986.16 180.734C2994.11 188.109 3000.45 197.886 3005.17 210.067C3009.89 222.247 3012.26 237.245 3012.26 255.06V267.489H2865.1V242.134H2982.43C2982.43 231.362 2980.27 221.75 2975.96 213.298C2971.74 204.847 2965.69 198.176 2957.82 193.288C2950.03 188.399 2940.83 185.955 2930.22 185.955C2918.54 185.955 2908.43 188.855 2899.9 194.655C2891.45 200.372 2884.94 207.83 2880.38 217.027C2875.83 226.224 2873.55 236.085 2873.55 246.608V263.511C2873.55 277.929 2876.03 290.151 2881.01 300.177C2886.06 310.12 2893.06 317.702 2902.01 322.922C2910.96 328.059 2921.36 330.628 2933.21 330.628C2940.91 330.628 2947.87 329.551 2954.09 327.396C2960.39 325.159 2965.81 321.845 2970.37 317.453C2974.93 312.979 2978.45 307.427 2980.93 300.798L3009.27 308.753C3006.29 318.365 3001.28 326.816 2994.23 334.108C2987.19 341.317 2978.49 346.951 2968.13 351.011C2957.78 354.989 2946.13 356.977 2933.21 356.977ZM3056.88 353V162.091H3085.21V190.926H3087.2C3090.68 181.48 3096.98 173.816 3106.09 167.933C3115.21 162.049 3125.48 159.108 3136.92 159.108C3139.07 159.108 3141.77 159.149 3145 159.232C3148.23 159.315 3150.67 159.439 3152.33 159.605V189.435C3151.34 189.186 3149.06 188.813 3145.49 188.316C3142.01 187.736 3138.33 187.446 3134.43 187.446C3125.15 187.446 3116.87 189.393 3109.57 193.288C3102.37 197.099 3096.65 202.402 3092.42 209.197C3088.28 215.908 3086.21 223.573 3086.21 232.19V353H3056.88Z" fill="#888888"/>
</svg>
