<svg width="615" height="451" viewBox="0 0 615 451" fill="none" xmlns="http://www.w3.org/2000/svg">
<path d="M26.8466 353V162.091H56.179V353H26.8466ZM41.7614 130.273C36.044 130.273 31.1139 128.326 26.9709 124.431C22.9107 120.537 20.8807 115.855 20.8807 110.386C20.8807 104.918 22.9107 100.236 26.9709 96.3416C31.1139 92.4472 36.044 90.5 41.7614 90.5C47.4787 90.5 52.3674 92.4472 56.4276 96.3416C60.5706 100.236 62.642 104.918 62.642 110.386C62.642 115.855 60.5706 120.537 56.4276 124.431C52.3674 128.326 47.4787 130.273 41.7614 130.273ZM139.236 238.156V353H109.903V162.091H138.241V191.92H140.727C145.202 182.226 151.996 174.437 161.111 168.554C170.225 162.588 181.991 159.605 196.409 159.605C209.335 159.605 220.645 162.257 230.34 167.56C240.035 172.78 247.575 180.734 252.961 191.423C258.347 202.029 261.04 215.453 261.04 231.693V353H231.707V233.682C231.707 218.684 227.813 207.001 220.024 198.632C212.235 190.18 201.546 185.955 187.957 185.955C178.594 185.955 170.225 187.985 162.851 192.045C155.559 196.105 149.8 202.029 145.574 209.818C141.349 217.607 139.236 227.053 139.236 238.156ZM399.654 162.091V186.949H296.742V162.091H399.654ZM327.566 353V135.741C327.566 124.804 330.134 115.689 335.272 108.398C340.409 101.106 347.079 95.6373 355.282 91.9915C363.485 88.3456 372.144 86.5227 381.259 86.5227C388.468 86.5227 394.351 87.1027 398.908 88.2628C403.465 89.4228 406.863 90.5 409.1 91.4943L400.648 116.849C399.157 116.352 397.085 115.731 394.434 114.985C391.865 114.239 388.468 113.866 384.242 113.866C374.547 113.866 367.546 116.311 363.237 121.2C359.011 126.088 356.898 133.256 356.898 142.702V353H327.566ZM510.458 356.977C493.223 356.977 478.101 352.876 465.092 344.673C452.166 336.469 442.057 324.993 434.766 310.244C427.557 295.495 423.952 278.26 423.952 258.54C423.952 238.653 427.557 221.294 434.766 206.462C442.057 191.63 452.166 180.113 465.092 171.91C478.101 163.707 493.223 159.605 510.458 159.605C527.693 159.605 542.773 163.707 555.7 171.91C568.709 180.113 578.817 191.63 586.026 206.462C593.318 221.294 596.964 238.653 596.964 258.54C596.964 278.26 593.318 295.495 586.026 310.244C578.817 324.993 568.709 336.469 555.7 344.673C542.773 352.876 527.693 356.977 510.458 356.977ZM510.458 330.628C523.55 330.628 534.322 327.272 542.773 320.56C551.225 313.849 557.481 305.024 561.541 294.087C565.601 283.149 567.631 271.3 567.631 258.54C567.631 245.779 565.601 233.889 561.541 222.869C557.481 211.848 551.225 202.941 542.773 196.146C534.322 189.352 523.55 185.955 510.458 185.955C497.366 185.955 486.594 189.352 478.143 196.146C469.691 202.941 463.435 211.848 459.375 222.869C455.315 233.889 453.285 245.779 453.285 258.54C453.285 271.3 455.315 283.149 459.375 294.087C463.435 305.024 469.691 313.849 478.143 320.56C486.594 327.272 497.366 330.628 510.458 330.628Z" fill="#888888"/>
</svg>
