<svg width="2181" height="451" viewBox="0 0 2181 451" fill="none" xmlns="http://www.w3.org/2000/svg">
<path d="M83.0256 357.474C70.928 357.474 59.9491 355.196 50.0888 350.638C40.2285 345.998 32.3982 339.328 26.598 330.628C20.7978 321.845 17.8977 311.239 17.8977 298.81C17.8977 287.872 20.0521 279.006 24.3608 272.212C28.6695 265.334 34.4283 259.948 41.6371 256.054C48.8459 252.16 56.8004 249.259 65.5007 247.354C74.2839 245.365 83.1084 243.791 91.9744 242.631C103.575 241.139 112.979 240.021 120.188 239.275C127.48 238.446 132.783 237.079 136.097 235.173C139.495 233.268 141.193 229.953 141.193 225.23V224.236C141.193 211.973 137.837 202.444 131.126 195.649C124.497 188.855 114.429 185.457 100.923 185.457C86.92 185.457 75.9411 188.523 67.9865 194.655C60.032 200.786 54.4389 207.332 51.2074 214.293L23.3665 204.349C28.3381 192.749 34.9669 183.717 43.2528 177.254C51.6217 170.708 60.7363 166.151 70.5966 163.582C80.5398 160.931 90.3172 159.605 99.929 159.605C106.061 159.605 113.104 160.351 121.058 161.842C129.096 163.251 136.843 166.192 144.3 170.667C151.841 175.141 158.097 181.894 163.068 190.926C168.04 199.958 170.526 212.055 170.526 227.219V353H141.193V327.148H139.702C137.713 331.291 134.399 335.724 129.759 340.447C125.118 345.17 118.945 349.188 111.239 352.503C103.533 355.817 94.1288 357.474 83.0256 357.474ZM87.5 331.125C99.1004 331.125 108.878 328.846 116.832 324.289C124.87 319.732 130.919 313.849 134.979 306.64C139.122 299.431 141.193 291.849 141.193 283.895V257.048C139.95 258.54 137.216 259.907 132.99 261.15C128.847 262.31 124.041 263.346 118.572 264.257C113.187 265.086 107.925 265.831 102.788 266.494C97.7332 267.074 93.6316 267.571 90.483 267.986C82.8599 268.98 75.7339 270.596 69.1051 272.833C62.5592 274.987 57.2562 278.26 53.196 282.652C49.2188 286.961 47.2301 292.844 47.2301 300.301C47.2301 310.493 51.0002 318.199 58.5405 323.419C66.1636 328.556 75.8168 331.125 87.5 331.125ZM344.376 274.946V162.091H373.708V353H344.376V320.685H342.387C337.913 330.379 330.953 338.624 321.507 345.418C312.061 352.13 300.129 355.486 285.711 355.486C273.779 355.486 263.173 352.876 253.893 347.656C244.613 342.353 237.321 334.398 232.018 323.792C226.715 313.103 224.063 299.638 224.063 283.398V162.091H253.396V281.409C253.396 295.33 257.29 306.433 265.079 314.719C272.951 323.005 282.977 327.148 295.157 327.148C302.449 327.148 309.865 325.283 317.405 321.555C325.028 317.826 331.408 312.109 336.546 304.403C341.766 296.697 344.376 286.878 344.376 274.946ZM510.458 162.091V186.949H411.523V162.091H510.458ZM440.359 116.352H469.691V298.312C469.691 306.598 470.893 312.813 473.295 316.956C475.781 321.016 478.93 323.75 482.741 325.159C486.636 326.485 490.737 327.148 495.046 327.148C498.278 327.148 500.929 326.982 503.001 326.651C505.072 326.236 506.729 325.905 507.972 325.656L513.938 352.006C511.95 352.751 509.174 353.497 505.611 354.243C502.048 355.071 497.532 355.486 492.063 355.486C483.777 355.486 475.657 353.704 467.702 350.141C459.831 346.578 453.285 341.151 448.065 333.859C442.927 326.568 440.359 317.37 440.359 306.267V116.352ZM588.015 238.156V353H558.683V98.4545H588.015V191.92H590.501C594.975 182.06 601.687 174.23 610.636 168.43C619.667 162.547 631.682 159.605 646.68 159.605C659.689 159.605 671.082 162.215 680.859 167.435C690.637 172.573 698.219 180.486 703.604 191.175C709.073 201.781 711.808 215.287 711.808 231.693V353H682.475V233.682C682.475 218.518 678.539 206.794 670.668 198.508C662.879 190.139 652.066 185.955 638.228 185.955C628.616 185.955 619.999 187.985 612.376 192.045C604.835 196.105 598.87 202.029 594.478 209.818C590.169 217.607 588.015 227.053 588.015 238.156ZM843.026 356.977C825.792 356.977 810.67 352.876 797.661 344.673C784.735 336.469 774.626 324.993 767.334 310.244C760.125 295.495 756.521 278.26 756.521 258.54C756.521 238.653 760.125 221.294 767.334 206.462C774.626 191.63 784.735 180.113 797.661 171.91C810.67 163.707 825.792 159.605 843.026 159.605C860.261 159.605 875.342 163.707 888.268 171.91C901.277 180.113 911.386 191.63 918.595 206.462C925.886 221.294 929.532 238.653 929.532 258.54C929.532 278.26 925.886 295.495 918.595 310.244C911.386 324.993 901.277 336.469 888.268 344.673C875.342 352.876 860.261 356.977 843.026 356.977ZM843.026 330.628C856.118 330.628 866.89 327.272 875.342 320.56C883.794 313.849 890.049 305.024 894.11 294.087C898.17 283.149 900.2 271.3 900.2 258.54C900.2 245.779 898.17 233.889 894.11 222.869C890.049 211.848 883.794 202.941 875.342 196.146C866.89 189.352 856.118 185.955 843.026 185.955C829.935 185.955 819.163 189.352 810.711 196.146C802.259 202.941 796.003 211.848 791.943 222.869C787.883 233.889 785.853 245.779 785.853 258.54C785.853 271.3 787.883 283.149 791.943 294.087C796.003 305.024 802.259 313.849 810.711 320.56C819.163 327.272 829.935 330.628 843.026 330.628ZM974.308 353V162.091H1002.65V190.926H1004.63C1008.11 181.48 1014.41 173.816 1023.53 167.933C1032.64 162.049 1042.92 159.108 1054.35 159.108C1056.5 159.108 1059.2 159.149 1062.43 159.232C1065.66 159.315 1068.1 159.439 1069.76 159.605V189.435C1068.77 189.186 1066.49 188.813 1062.93 188.316C1059.45 187.736 1055.76 187.446 1051.86 187.446C1042.58 187.446 1034.3 189.393 1027.01 193.288C1019.8 197.099 1014.08 202.402 1009.85 209.197C1005.71 215.908 1003.64 223.573 1003.64 232.19V353H974.308ZM1104.53 353V162.091H1133.86V353H1104.53ZM1119.45 130.273C1113.73 130.273 1108.8 128.326 1104.66 124.431C1100.6 120.537 1098.57 115.855 1098.57 110.386C1098.57 104.918 1100.6 100.236 1104.66 96.3416C1108.8 92.4472 1113.73 90.5 1119.45 90.5C1125.16 90.5 1130.05 92.4472 1134.11 96.3416C1138.26 100.236 1140.33 104.918 1140.33 110.386C1140.33 115.855 1138.26 120.537 1134.11 124.431C1130.05 128.326 1125.16 130.273 1119.45 130.273ZM1182.12 353V330.628L1290.5 191.423V189.435H1185.6V162.091H1328.28V185.457L1222.89 323.668V325.656H1331.76V353H1182.12ZM1433.12 357.474C1421.03 357.474 1410.05 355.196 1400.19 350.638C1390.33 345.998 1382.5 339.328 1376.7 330.628C1370.9 321.845 1368 311.239 1368 298.81C1368 287.872 1370.15 279.006 1374.46 272.212C1378.77 265.334 1384.53 259.948 1391.73 256.054C1398.94 252.16 1406.9 249.259 1415.6 247.354C1424.38 245.365 1433.21 243.791 1442.07 242.631C1453.67 241.139 1463.08 240.021 1470.29 239.275C1477.58 238.446 1482.88 237.079 1486.19 235.173C1489.59 233.268 1491.29 229.953 1491.29 225.23V224.236C1491.29 211.973 1487.94 202.444 1481.22 195.649C1474.59 188.855 1464.53 185.457 1451.02 185.457C1437.02 185.457 1426.04 188.523 1418.08 194.655C1410.13 200.786 1404.54 207.332 1401.31 214.293L1373.46 204.349C1378.44 192.749 1385.06 183.717 1393.35 177.254C1401.72 170.708 1410.83 166.151 1420.69 163.582C1430.64 160.931 1440.41 159.605 1450.03 159.605C1456.16 159.605 1463.2 160.351 1471.16 161.842C1479.19 163.251 1486.94 166.192 1494.4 170.667C1501.94 175.141 1508.19 181.894 1513.17 190.926C1518.14 199.958 1520.62 212.055 1520.62 227.219V353H1491.29V327.148H1489.8C1487.81 331.291 1484.5 335.724 1479.86 340.447C1475.22 345.17 1469.04 349.188 1461.34 352.503C1453.63 355.817 1444.23 357.474 1433.12 357.474ZM1437.6 331.125C1449.2 331.125 1458.98 328.846 1466.93 324.289C1474.97 319.732 1481.02 313.849 1485.08 306.64C1489.22 299.431 1491.29 291.849 1491.29 283.895V257.048C1490.05 258.54 1487.31 259.907 1483.09 261.15C1478.94 262.31 1474.14 263.346 1468.67 264.257C1463.28 265.086 1458.02 265.831 1452.89 266.494C1447.83 267.074 1443.73 267.571 1440.58 267.986C1432.96 268.98 1425.83 270.596 1419.2 272.833C1412.66 274.987 1407.35 278.26 1403.29 282.652C1399.32 286.961 1397.33 292.844 1397.33 300.301C1397.33 310.493 1401.1 318.199 1408.64 323.419C1416.26 328.556 1425.91 331.125 1437.6 331.125ZM1657.19 162.091V186.949H1558.25V162.091H1657.19ZM1587.09 116.352H1616.42V298.312C1616.42 306.598 1617.62 312.813 1620.02 316.956C1622.51 321.016 1625.66 323.75 1629.47 325.159C1633.36 326.485 1637.47 327.148 1641.77 327.148C1645.01 327.148 1647.66 326.982 1649.73 326.651C1651.8 326.236 1653.46 325.905 1654.7 325.656L1660.67 352.006C1658.68 352.751 1655.9 353.497 1652.34 354.243C1648.78 355.071 1644.26 355.486 1638.79 355.486C1630.51 355.486 1622.39 353.704 1614.43 350.141C1606.56 346.578 1600.01 341.151 1594.79 333.859C1589.66 326.568 1587.09 317.37 1587.09 306.267V116.352ZM1701.31 353V162.091H1730.64V353H1701.31ZM1716.22 130.273C1710.51 130.273 1705.58 128.326 1701.43 124.431C1697.37 120.537 1695.34 115.855 1695.34 110.386C1695.34 104.918 1697.37 100.236 1701.43 96.3416C1705.58 92.4472 1710.51 90.5 1716.22 90.5C1721.94 90.5 1726.83 92.4472 1730.89 96.3416C1735.03 100.236 1737.1 104.918 1737.1 110.386C1737.1 115.855 1735.03 120.537 1730.89 124.431C1726.83 128.326 1721.94 130.273 1716.22 130.273ZM1861.92 356.977C1844.69 356.977 1829.57 352.876 1816.56 344.673C1803.63 336.469 1793.52 324.993 1786.23 310.244C1779.02 295.495 1775.42 278.26 1775.42 258.54C1775.42 238.653 1779.02 221.294 1786.23 206.462C1793.52 191.63 1803.63 180.113 1816.56 171.91C1829.57 163.707 1844.69 159.605 1861.92 159.605C1879.16 159.605 1894.24 163.707 1907.16 171.91C1920.17 180.113 1930.28 191.63 1937.49 206.462C1944.78 221.294 1948.43 238.653 1948.43 258.54C1948.43 278.26 1944.78 295.495 1937.49 310.244C1930.28 324.993 1920.17 336.469 1907.16 344.673C1894.24 352.876 1879.16 356.977 1861.92 356.977ZM1861.92 330.628C1875.01 330.628 1885.79 327.272 1894.24 320.56C1902.69 313.849 1908.95 305.024 1913.01 294.087C1917.07 283.149 1919.1 271.3 1919.1 258.54C1919.1 245.779 1917.07 233.889 1913.01 222.869C1908.95 211.848 1902.69 202.941 1894.24 196.146C1885.79 189.352 1875.01 185.955 1861.92 185.955C1848.83 185.955 1838.06 189.352 1829.61 196.146C1821.16 202.941 1814.9 211.848 1810.84 222.869C1806.78 233.889 1804.75 245.779 1804.75 258.54C1804.75 271.3 1806.78 283.149 1810.84 294.087C1814.9 305.024 1821.16 313.849 1829.61 320.56C1838.06 327.272 1848.83 330.628 1861.92 330.628ZM2022.54 238.156V353H1993.2V162.091H2021.54V191.92H2024.03C2028.5 182.226 2035.3 174.437 2044.41 168.554C2053.53 162.588 2065.29 159.605 2079.71 159.605C2092.64 159.605 2103.95 162.257 2113.64 167.56C2123.34 172.78 2130.88 180.734 2136.26 191.423C2141.65 202.029 2144.34 215.453 2144.34 231.693V353H2115.01V233.682C2115.01 218.684 2111.11 207.001 2103.32 198.632C2095.54 190.18 2084.85 185.955 2071.26 185.955C2061.89 185.955 2053.53 187.985 2046.15 192.045C2038.86 196.105 2033.1 202.029 2028.88 209.818C2024.65 217.607 2022.54 227.053 2022.54 238.156Z" fill="#888888"/>
</svg>
