<svg width="876" height="451" viewBox="0 0 876 451" fill="none" xmlns="http://www.w3.org/2000/svg">
<path d="M30.8239 353V98.4545H60.1562V192.418H62.642C64.7964 189.103 67.7794 184.877 71.5909 179.74C75.4853 174.52 81.0369 169.88 88.2457 165.82C95.5374 161.677 105.398 159.605 117.827 159.605C133.902 159.605 148.071 163.624 160.334 171.661C172.597 179.699 182.167 191.092 189.045 205.841C195.922 220.59 199.361 237.991 199.361 258.043C199.361 278.26 195.922 295.785 189.045 310.617C182.167 325.366 172.639 336.801 160.458 344.921C148.278 352.959 134.233 356.977 118.324 356.977C106.061 356.977 96.2417 354.947 88.8672 350.887C81.4927 346.744 75.8168 342.062 71.8395 336.842C67.8622 331.539 64.7964 327.148 62.642 323.668H59.1619V353H30.8239ZM59.6591 257.545C59.6591 271.963 61.772 284.682 65.9979 295.702C70.2237 306.64 76.3968 315.216 84.517 321.43C92.6373 327.562 102.58 330.628 114.347 330.628C126.61 330.628 136.843 327.396 145.046 320.933C153.332 314.387 159.547 305.604 163.69 294.584C167.915 283.481 170.028 271.134 170.028 257.545C170.028 244.122 167.957 232.025 163.814 221.253C159.754 210.398 153.581 201.822 145.295 195.525C137.092 189.145 126.776 185.955 114.347 185.955C102.415 185.955 92.3887 188.979 84.2685 195.028C76.1482 200.994 70.0166 209.362 65.8736 220.134C61.7306 230.823 59.6591 243.294 59.6591 257.545ZM300.408 357.474C288.311 357.474 277.332 355.196 267.472 350.638C257.611 345.998 249.781 339.328 243.981 330.628C238.181 321.845 235.281 311.239 235.281 298.81C235.281 287.872 237.435 279.006 241.744 272.212C246.052 265.334 251.811 259.948 259.02 256.054C266.229 252.16 274.183 249.259 282.884 247.354C291.667 245.365 300.491 243.791 309.357 242.631C320.958 241.139 330.362 240.021 337.571 239.275C344.863 238.446 350.166 237.079 353.48 235.173C356.877 233.268 358.576 229.953 358.576 225.23V224.236C358.576 211.973 355.22 202.444 348.509 195.649C341.88 188.855 331.812 185.457 318.306 185.457C304.303 185.457 293.324 188.523 285.369 194.655C277.415 200.786 271.822 207.332 268.59 214.293L240.749 204.349C245.721 192.749 252.35 183.717 260.636 177.254C269.005 170.708 278.119 166.151 287.979 163.582C297.923 160.931 307.7 159.605 317.312 159.605C323.443 159.605 330.487 160.351 338.441 161.842C346.478 163.251 354.226 166.192 361.683 170.667C369.223 175.141 375.479 181.894 380.451 190.926C385.423 199.958 387.908 212.055 387.908 227.219V353H358.576V327.148H357.085C355.096 331.291 351.781 335.724 347.141 340.447C342.501 345.17 336.328 349.188 328.622 352.503C320.916 355.817 311.512 357.474 300.408 357.474ZM304.883 331.125C316.483 331.125 326.261 328.846 334.215 324.289C342.253 319.732 348.301 313.849 352.362 306.64C356.504 299.431 358.576 291.849 358.576 283.895V257.048C357.333 258.54 354.599 259.907 350.373 261.15C346.23 262.31 341.424 263.346 335.955 264.257C330.569 265.086 325.308 265.831 320.17 266.494C315.116 267.074 311.014 267.571 307.866 267.986C300.243 268.98 293.117 270.596 286.488 272.833C279.942 274.987 274.639 278.26 270.579 282.652C266.602 286.961 264.613 292.844 264.613 300.301C264.613 310.493 268.383 318.199 275.923 323.419C283.546 328.556 293.2 331.125 304.883 331.125ZM576.673 204.847L550.324 212.304C548.667 207.912 546.222 203.645 542.991 199.502C539.842 195.276 535.534 191.796 530.065 189.062C524.596 186.327 517.594 184.96 509.06 184.96C497.377 184.96 487.641 187.653 479.852 193.039C472.146 198.342 468.293 205.095 468.293 213.298C468.293 220.59 470.944 226.349 476.247 230.575C481.55 234.8 489.836 238.322 501.105 241.139L529.443 248.099C546.512 252.242 559.231 258.581 567.6 267.116C575.969 275.567 580.154 286.464 580.154 299.804C580.154 310.741 577.005 320.519 570.708 329.136C564.493 337.754 555.793 344.548 544.607 349.52C533.421 354.491 520.412 356.977 505.58 356.977C486.108 356.977 469.991 352.751 457.231 344.3C444.471 335.848 436.392 323.502 432.994 307.261L460.835 300.301C463.487 310.576 468.5 318.282 475.874 323.419C483.332 328.556 493.068 331.125 505.083 331.125C518.754 331.125 529.609 328.225 537.646 322.425C545.767 316.542 549.827 309.499 549.827 301.295C549.827 294.667 547.507 289.115 542.867 284.641C538.227 280.083 531.101 276.686 521.489 274.449L489.671 266.991C472.187 262.848 459.344 256.427 451.141 247.727C443.021 238.943 438.96 227.964 438.96 214.79C438.96 204.018 441.985 194.489 448.034 186.203C454.165 177.917 462.493 171.413 473.016 166.69C483.622 161.967 495.637 159.605 509.06 159.605C527.952 159.605 542.784 163.748 553.556 172.034C564.41 180.32 572.116 191.258 576.673 204.847ZM624.308 353V162.091H653.64V353H624.308ZM639.222 130.273C633.505 130.273 628.575 128.326 624.432 124.431C620.372 120.537 618.342 115.855 618.342 110.386C618.342 104.918 620.372 100.236 624.432 96.3416C628.575 92.4472 633.505 90.5 639.222 90.5C644.94 90.5 649.828 92.4472 653.888 96.3416C658.031 100.236 660.103 104.918 660.103 110.386C660.103 115.855 658.031 120.537 653.888 124.431C649.828 128.326 644.94 130.273 639.222 130.273ZM784.921 356.977C767.023 356.977 751.611 352.751 738.685 344.3C725.759 335.848 715.816 324.206 708.856 309.374C701.895 294.542 698.415 277.598 698.415 258.54C698.415 239.151 701.978 222.04 709.104 207.208C716.313 192.293 726.339 180.652 739.182 172.283C752.108 163.831 767.189 159.605 784.424 159.605C797.847 159.605 809.945 162.091 820.716 167.062C831.488 172.034 840.313 178.994 847.19 187.943C854.068 196.892 858.335 207.332 859.992 219.264H830.66C828.422 210.564 823.451 202.858 815.745 196.146C808.122 189.352 797.847 185.955 784.921 185.955C773.486 185.955 763.46 188.937 754.843 194.903C746.308 200.786 739.638 209.114 734.832 219.886C730.109 230.575 727.748 243.128 727.748 257.545C727.748 272.295 730.068 285.138 734.708 296.075C739.431 307.013 746.06 315.506 754.594 321.555C763.212 327.603 773.321 330.628 784.921 330.628C792.544 330.628 799.463 329.302 805.677 326.651C811.892 323.999 817.153 320.188 821.462 315.216C825.771 310.244 828.837 304.278 830.66 297.318H859.992C858.335 308.587 854.233 318.737 847.687 327.769C841.224 336.718 832.648 343.844 821.959 349.147C811.353 354.367 799.007 356.977 784.921 356.977Z" fill="#888888"/>
</svg>
