<svg width="2585" height="451" viewBox="0 0 2585 451" fill="none" xmlns="http://www.w3.org/2000/svg">
<path d="M70.0994 353L11.9318 162.091H42.7557L84.0199 308.256H86.0085L126.776 162.091H158.097L198.366 307.759H200.355L241.619 162.091H272.443L214.276 353H185.44L143.679 206.338H140.696L98.9347 353H70.0994ZM382.284 356.977C365.049 356.977 349.928 352.876 336.919 344.673C323.992 336.469 313.883 324.993 306.592 310.244C299.383 295.495 295.779 278.26 295.779 258.54C295.779 238.653 299.383 221.294 306.592 206.462C313.883 191.63 323.992 180.113 336.919 171.91C349.928 163.707 365.049 159.605 382.284 159.605C399.519 159.605 414.6 163.707 427.526 171.91C440.535 180.113 450.644 191.63 457.852 206.462C465.144 221.294 468.79 238.653 468.79 258.54C468.79 278.26 465.144 295.495 457.852 310.244C450.644 324.993 440.535 336.469 427.526 344.673C414.6 352.876 399.519 356.977 382.284 356.977ZM382.284 330.628C395.376 330.628 406.148 327.272 414.6 320.56C423.051 313.849 429.307 305.024 433.367 294.087C437.428 283.149 439.458 271.3 439.458 258.54C439.458 245.779 437.428 233.889 433.367 222.869C429.307 211.848 423.051 202.941 414.6 196.146C406.148 189.352 395.376 185.955 382.284 185.955C369.192 185.955 358.421 189.352 349.969 196.146C341.517 202.941 335.261 211.848 331.201 222.869C327.141 233.889 325.111 245.779 325.111 258.54C325.111 271.3 327.141 283.149 331.201 294.087C335.261 305.024 341.517 313.849 349.969 320.56C358.421 327.272 369.192 330.628 382.284 330.628ZM513.565 353V162.091H541.903V190.926H543.892C547.372 181.48 553.67 173.816 562.784 167.933C571.899 162.049 582.173 159.108 593.608 159.108C595.762 159.108 598.455 159.149 601.687 159.232C604.918 159.315 607.363 159.439 609.02 159.605V189.435C608.026 189.186 605.747 188.813 602.184 188.316C598.704 187.736 595.017 187.446 591.122 187.446C581.842 187.446 573.556 189.393 566.264 193.288C559.055 197.099 553.338 202.402 549.112 209.197C544.969 215.908 542.898 223.573 542.898 232.19V353H513.565ZM671.134 283.398L670.637 247.105H676.602L760.125 162.091H796.418L707.426 252.077H704.941L671.134 283.398ZM643.79 353V98.4545H673.122V353H643.79ZM765.097 353L690.523 258.54L711.404 238.156L802.384 353H765.097ZM906.352 356.977C887.957 356.977 872.09 352.917 858.749 344.797C845.492 336.594 835.258 325.159 828.05 310.493C820.924 295.744 817.361 278.592 817.361 259.037C817.361 239.482 820.924 222.247 828.05 207.332C835.258 192.335 845.284 180.652 858.128 172.283C871.054 163.831 886.134 159.605 903.369 159.605C913.312 159.605 923.131 161.262 932.826 164.577C942.52 167.891 951.345 173.277 959.3 180.734C967.254 188.109 973.593 197.886 978.316 210.067C983.039 222.247 985.4 237.245 985.4 255.06V267.489H838.241V242.134H955.571C955.571 231.362 953.416 221.75 949.108 213.298C944.882 204.847 938.833 198.176 930.961 193.288C923.173 188.399 913.975 185.955 903.369 185.955C891.686 185.955 881.577 188.855 873.042 194.655C864.591 200.372 858.086 207.83 853.529 217.027C848.972 226.224 846.693 236.085 846.693 246.608V263.511C846.693 277.929 849.179 290.151 854.15 300.177C859.205 310.12 866.207 317.702 875.155 322.922C884.104 328.059 894.503 330.628 906.352 330.628C914.058 330.628 921.018 329.551 927.233 327.396C933.53 325.159 938.957 321.845 943.515 317.453C948.072 312.979 951.594 307.427 954.079 300.798L982.417 308.753C979.434 318.365 974.421 326.816 967.378 334.108C960.335 341.317 951.635 346.951 941.278 351.011C930.92 354.989 919.278 356.977 906.352 356.977ZM1030.02 353V162.091H1058.36V190.926H1060.35C1063.83 181.48 1070.12 173.816 1079.24 167.933C1088.35 162.049 1098.63 159.108 1110.06 159.108C1112.22 159.108 1114.91 159.149 1118.14 159.232C1121.37 159.315 1123.82 159.439 1125.47 159.605V189.435C1124.48 189.186 1122.2 188.813 1118.64 188.316C1115.16 187.736 1111.47 187.446 1107.58 187.446C1098.3 187.446 1090.01 189.393 1082.72 193.288C1075.51 197.099 1069.79 202.402 1065.57 209.197C1061.42 215.908 1059.35 223.573 1059.35 232.19V353H1030.02ZM1255.61 230.202V257.545H1144.24V230.202H1255.61ZM1387.26 356.977C1368.87 356.977 1353 352.917 1339.66 344.797C1326.4 336.594 1316.17 325.159 1308.96 310.493C1301.83 295.744 1298.27 278.592 1298.27 259.037C1298.27 239.482 1301.83 222.247 1308.96 207.332C1316.17 192.335 1326.19 180.652 1339.04 172.283C1351.96 163.831 1367.04 159.605 1384.28 159.605C1394.22 159.605 1404.04 161.262 1413.73 164.577C1423.43 167.891 1432.25 173.277 1440.21 180.734C1448.16 188.109 1454.5 197.886 1459.22 210.067C1463.95 222.247 1466.31 237.245 1466.31 255.06V267.489H1319.15V242.134H1436.48C1436.48 231.362 1434.32 221.75 1430.02 213.298C1425.79 204.847 1419.74 198.176 1411.87 193.288C1404.08 188.399 1394.88 185.955 1384.28 185.955C1372.59 185.955 1362.49 188.855 1353.95 194.655C1345.5 200.372 1338.99 207.83 1334.44 217.027C1329.88 226.224 1327.6 236.085 1327.6 246.608V263.511C1327.6 277.929 1330.09 290.151 1335.06 300.177C1340.11 310.12 1347.11 317.702 1356.06 322.922C1365.01 328.059 1375.41 330.628 1387.26 330.628C1394.97 330.628 1401.93 329.551 1408.14 327.396C1414.44 325.159 1419.87 321.845 1424.42 317.453C1428.98 312.979 1432.5 307.427 1434.99 300.798L1463.33 308.753C1460.34 318.365 1455.33 326.816 1448.29 334.108C1441.24 341.317 1432.54 346.951 1422.19 351.011C1411.83 354.989 1400.19 356.977 1387.26 356.977ZM1527.68 162.091L1573.42 240.145L1619.15 162.091H1652.96L1591.31 257.545L1652.96 353H1619.15L1573.42 278.923L1527.68 353H1493.87L1554.52 257.545L1493.87 162.091H1527.68ZM1694.82 424.591V162.091H1723.15V192.418H1726.63C1728.79 189.103 1731.77 184.877 1735.58 179.74C1739.48 174.52 1745.03 169.88 1752.24 165.82C1759.53 161.677 1769.39 159.605 1781.82 159.605C1797.89 159.605 1812.06 163.624 1824.33 171.661C1836.59 179.699 1846.16 191.092 1853.04 205.841C1859.91 220.59 1863.35 237.991 1863.35 258.043C1863.35 278.26 1859.91 295.785 1853.04 310.617C1846.16 325.366 1836.63 336.801 1824.45 344.921C1812.27 352.959 1798.22 356.977 1782.32 356.977C1770.05 356.977 1760.23 354.947 1752.86 350.887C1745.48 346.744 1739.81 342.062 1735.83 336.842C1731.85 331.539 1728.79 327.148 1726.63 323.668H1724.15V424.591H1694.82ZM1723.65 257.545C1723.65 271.963 1725.76 284.682 1729.99 295.702C1734.22 306.64 1740.39 315.216 1748.51 321.43C1756.63 327.562 1766.57 330.628 1778.34 330.628C1790.6 330.628 1800.83 327.396 1809.04 320.933C1817.32 314.387 1823.54 305.604 1827.68 294.584C1831.91 283.481 1834.02 271.134 1834.02 257.545C1834.02 244.122 1831.95 232.025 1827.81 221.253C1823.75 210.398 1817.57 201.822 1809.29 195.525C1801.08 189.145 1790.77 185.955 1778.34 185.955C1766.41 185.955 1756.38 188.979 1748.26 195.028C1740.14 200.994 1734.01 209.362 1729.87 220.134C1725.72 230.823 1723.65 243.294 1723.65 257.545ZM1908.1 353V162.091H1936.43V190.926H1938.42C1941.9 181.48 1948.2 173.816 1957.32 167.933C1966.43 162.049 1976.7 159.108 1988.14 159.108C1990.29 159.108 1992.99 159.149 1996.22 159.232C1999.45 159.315 2001.89 159.439 2003.55 159.605V189.435C2002.56 189.186 2000.28 188.813 1996.72 188.316C1993.24 187.736 1989.55 187.446 1985.65 187.446C1976.37 187.446 1968.09 189.393 1960.8 193.288C1953.59 197.099 1947.87 202.402 1943.64 209.197C1939.5 215.908 1937.43 223.573 1937.43 232.19V353H1908.1ZM2112.55 356.977C2094.16 356.977 2078.29 352.917 2064.95 344.797C2051.69 336.594 2041.46 325.159 2034.25 310.493C2027.12 295.744 2023.56 278.592 2023.56 259.037C2023.56 239.482 2027.12 222.247 2034.25 207.332C2041.46 192.335 2051.49 180.652 2064.33 172.283C2077.25 163.831 2092.34 159.605 2109.57 159.605C2119.51 159.605 2129.33 161.262 2139.03 164.577C2148.72 167.891 2157.55 173.277 2165.5 180.734C2173.46 188.109 2179.79 197.886 2184.52 210.067C2189.24 222.247 2191.6 237.245 2191.6 255.06V267.489H2044.44V242.134H2161.77C2161.77 231.362 2159.62 221.75 2155.31 213.298C2151.08 204.847 2145.03 198.176 2137.16 193.288C2129.37 188.399 2120.18 185.955 2109.57 185.955C2097.89 185.955 2087.78 188.855 2079.24 194.655C2070.79 200.372 2064.29 207.83 2059.73 217.027C2055.17 226.224 2052.89 236.085 2052.89 246.608V263.511C2052.89 277.929 2055.38 290.151 2060.35 300.177C2065.41 310.12 2072.41 317.702 2081.36 322.922C2090.31 328.059 2100.7 330.628 2112.55 330.628C2120.26 330.628 2127.22 329.551 2133.43 327.396C2139.73 325.159 2145.16 321.845 2149.72 317.453C2154.27 312.979 2157.79 307.427 2160.28 300.798L2188.62 308.753C2185.64 318.365 2180.62 326.816 2173.58 334.108C2166.54 341.317 2157.84 346.951 2147.48 351.011C2137.12 354.989 2125.48 356.977 2112.55 356.977ZM2371.45 204.847L2345.1 212.304C2343.44 207.912 2341 203.645 2337.77 199.502C2334.62 195.276 2330.31 191.796 2324.84 189.062C2319.37 186.327 2312.37 184.96 2303.84 184.96C2292.15 184.96 2282.42 187.653 2274.63 193.039C2266.92 198.342 2263.07 205.095 2263.07 213.298C2263.07 220.59 2265.72 226.349 2271.02 230.575C2276.33 234.8 2284.61 238.322 2295.88 241.139L2324.22 248.099C2341.29 252.242 2354.01 258.581 2362.38 267.116C2370.74 275.567 2374.93 286.464 2374.93 299.804C2374.93 310.741 2371.78 320.519 2365.48 329.136C2359.27 337.754 2350.57 344.548 2339.38 349.52C2328.2 354.491 2315.19 356.977 2300.36 356.977C2280.88 356.977 2264.77 352.751 2252.01 344.3C2239.25 335.848 2231.17 323.502 2227.77 307.261L2255.61 300.301C2258.26 310.576 2263.28 318.282 2270.65 323.419C2278.11 328.556 2287.84 331.125 2299.86 331.125C2313.53 331.125 2324.38 328.225 2332.42 322.425C2340.54 316.542 2344.6 309.499 2344.6 301.295C2344.6 294.667 2342.28 289.115 2337.64 284.641C2333 280.083 2325.88 276.686 2316.26 274.449L2284.45 266.991C2266.96 262.848 2254.12 256.427 2245.92 247.727C2237.8 238.943 2233.74 227.964 2233.74 214.79C2233.74 204.018 2236.76 194.489 2242.81 186.203C2248.94 177.917 2257.27 171.413 2267.79 166.69C2278.4 161.967 2290.41 159.605 2303.84 159.605C2322.73 159.605 2337.56 163.748 2348.33 172.034C2359.19 180.32 2366.89 191.258 2371.45 204.847ZM2554.31 204.847L2527.96 212.304C2526.3 207.912 2523.86 203.645 2520.63 199.502C2517.48 195.276 2513.17 191.796 2507.7 189.062C2502.23 186.327 2495.23 184.96 2486.7 184.96C2475.01 184.96 2465.28 187.653 2457.49 193.039C2449.78 198.342 2445.93 205.095 2445.93 213.298C2445.93 220.59 2448.58 226.349 2453.88 230.575C2459.19 234.8 2467.47 238.322 2478.74 241.139L2507.08 248.099C2524.15 252.242 2536.87 258.581 2545.24 267.116C2553.61 275.567 2557.79 286.464 2557.79 299.804C2557.79 310.741 2554.64 320.519 2548.34 329.136C2542.13 337.754 2533.43 344.548 2522.24 349.52C2511.06 354.491 2498.05 356.977 2483.22 356.977C2463.74 356.977 2447.63 352.751 2434.87 344.3C2422.11 335.848 2414.03 323.502 2410.63 307.261L2438.47 300.301C2441.12 310.576 2446.14 318.282 2453.51 323.419C2460.97 328.556 2470.7 331.125 2482.72 331.125C2496.39 331.125 2507.25 328.225 2515.28 322.425C2523.4 316.542 2527.46 309.499 2527.46 301.295C2527.46 294.667 2525.14 289.115 2520.5 284.641C2515.86 280.083 2508.74 276.686 2499.13 274.449L2467.31 266.991C2449.82 262.848 2436.98 256.427 2428.78 247.727C2420.66 238.943 2416.6 227.964 2416.6 214.79C2416.6 204.018 2419.62 194.489 2425.67 186.203C2431.8 177.917 2440.13 171.413 2450.65 166.69C2461.26 161.967 2473.27 159.605 2486.7 159.605C2505.59 159.605 2520.42 163.748 2531.19 172.034C2542.05 180.32 2549.75 191.258 2554.31 204.847Z" fill="#888888"/>
</svg>
