<svg width="4707" height="451" viewBox="0 0 4707 451" fill="none" xmlns="http://www.w3.org/2000/svg">
<path d="M98.9347 356.977C83.0256 356.977 68.9808 352.959 56.8004 344.921C44.62 336.801 35.0911 325.366 28.2138 310.617C21.3364 295.785 17.8977 278.26 17.8977 258.043C17.8977 237.991 21.3364 220.59 28.2138 205.841C35.0911 191.092 44.6615 179.699 56.9247 171.661C69.188 163.624 83.357 159.605 99.4318 159.605C111.861 159.605 121.68 161.677 128.888 165.82C136.18 169.88 141.732 174.52 145.543 179.74C149.438 184.877 152.462 189.103 154.616 192.418H157.102V98.4545H186.435V353H158.097V323.668H154.616C152.462 327.148 149.396 331.539 145.419 336.842C141.442 342.062 135.766 346.744 128.391 350.887C121.017 354.947 111.198 356.977 98.9347 356.977ZM102.912 330.628C114.678 330.628 124.621 327.562 132.741 321.43C140.862 315.216 147.035 306.64 151.261 295.702C155.487 284.682 157.599 271.963 157.599 257.545C157.599 243.294 155.528 230.823 151.385 220.134C147.242 209.362 141.11 200.994 132.99 195.028C124.87 188.979 114.844 185.955 102.912 185.955C90.483 185.955 80.1255 189.145 71.8395 195.525C63.6364 201.822 57.4633 210.398 53.3203 221.253C49.2602 232.025 47.2301 244.122 47.2301 257.545C47.2301 271.134 49.3016 283.481 53.4446 294.584C57.6705 305.604 63.8849 314.387 72.0881 320.933C80.3741 327.396 90.6487 330.628 102.912 330.628ZM300.408 357.474C288.311 357.474 277.332 355.196 267.472 350.638C257.611 345.998 249.781 339.328 243.981 330.628C238.181 321.845 235.281 311.239 235.281 298.81C235.281 287.872 237.435 279.006 241.744 272.212C246.052 265.334 251.811 259.948 259.02 256.054C266.229 252.16 274.183 249.259 282.884 247.354C291.667 245.365 300.491 243.791 309.357 242.631C320.958 241.139 330.362 240.021 337.571 239.275C344.863 238.446 350.166 237.079 353.48 235.173C356.877 233.268 358.576 229.953 358.576 225.23V224.236C358.576 211.973 355.22 202.444 348.509 195.649C341.88 188.855 331.812 185.457 318.306 185.457C304.303 185.457 293.324 188.523 285.369 194.655C277.415 200.786 271.822 207.332 268.59 214.293L240.749 204.349C245.721 192.749 252.35 183.717 260.636 177.254C269.005 170.708 278.119 166.151 287.979 163.582C297.923 160.931 307.7 159.605 317.312 159.605C323.443 159.605 330.487 160.351 338.441 161.842C346.478 163.251 354.226 166.192 361.683 170.667C369.223 175.141 375.479 181.894 380.451 190.926C385.423 199.958 387.908 212.055 387.908 227.219V353H358.576V327.148H357.085C355.096 331.291 351.781 335.724 347.141 340.447C342.501 345.17 336.328 349.188 328.622 352.503C320.916 355.817 311.512 357.474 300.408 357.474ZM304.883 331.125C316.483 331.125 326.261 328.846 334.215 324.289C342.253 319.732 348.301 313.849 352.362 306.64C356.504 299.431 358.576 291.849 358.576 283.895V257.048C357.333 258.54 354.599 259.907 350.373 261.15C346.23 262.31 341.424 263.346 335.955 264.257C330.569 265.086 325.308 265.831 320.17 266.494C315.116 267.074 311.014 267.571 307.866 267.986C300.243 268.98 293.117 270.596 286.488 272.833C279.942 274.987 274.639 278.26 270.579 282.652C266.602 286.961 264.613 292.844 264.613 300.301C264.613 310.493 268.383 318.199 275.923 323.419C283.546 328.556 293.2 331.125 304.883 331.125ZM524.472 162.091V186.949H425.537V162.091H524.472ZM454.372 116.352H483.705V298.312C483.705 306.598 484.906 312.813 487.309 316.956C489.795 321.016 492.944 323.75 496.755 325.159C500.65 326.485 504.751 327.148 509.06 327.148C512.291 327.148 514.943 326.982 517.014 326.651C519.086 326.236 520.743 325.905 521.986 325.656L527.952 352.006C525.963 352.751 523.187 353.497 519.624 354.243C516.061 355.071 511.546 355.486 506.077 355.486C497.791 355.486 489.671 353.704 481.716 350.141C473.844 346.578 467.298 341.151 462.078 333.859C456.941 326.568 454.372 317.37 454.372 306.267V116.352ZM624.774 357.474C612.676 357.474 601.697 355.196 591.837 350.638C581.977 345.998 574.146 339.328 568.346 330.628C562.546 321.845 559.646 311.239 559.646 298.81C559.646 287.872 561.8 279.006 566.109 272.212C570.418 265.334 576.176 259.948 583.385 256.054C590.594 252.16 598.548 249.259 607.249 247.354C616.032 245.365 624.856 243.791 633.722 242.631C645.323 241.139 654.727 240.021 661.936 239.275C669.228 238.446 674.531 237.079 677.845 235.173C681.243 233.268 682.941 229.953 682.941 225.23V224.236C682.941 211.973 679.585 202.444 672.874 195.649C666.245 188.855 656.178 185.457 642.671 185.457C628.668 185.457 617.689 188.523 609.735 194.655C601.78 200.786 596.187 207.332 592.955 214.293L565.115 204.349C570.086 192.749 576.715 183.717 585.001 177.254C593.37 170.708 602.484 166.151 612.345 163.582C622.288 160.931 632.065 159.605 641.677 159.605C647.809 159.605 654.852 160.351 662.806 161.842C670.844 163.251 678.591 166.192 686.048 170.667C693.589 175.141 699.845 181.894 704.816 190.926C709.788 199.958 712.274 212.055 712.274 227.219V353H682.941V327.148H681.45C679.461 331.291 676.147 335.724 671.507 340.447C666.866 345.17 660.693 349.188 652.987 352.503C645.281 355.817 635.877 357.474 624.774 357.474ZM629.248 331.125C640.848 331.125 650.626 328.846 658.58 324.289C666.618 319.732 672.667 313.849 676.727 306.64C680.87 299.431 682.941 291.849 682.941 283.895V257.048C681.698 258.54 678.964 259.907 674.738 261.15C670.595 262.31 665.789 263.346 660.32 264.257C654.935 265.086 649.673 265.831 644.536 266.494C639.481 267.074 635.38 267.571 632.231 267.986C624.608 268.98 617.482 270.596 610.853 272.833C604.307 274.987 599.004 278.26 594.944 282.652C590.967 286.961 588.978 292.844 588.978 300.301C588.978 310.493 592.748 318.199 600.289 323.419C607.912 328.556 617.565 331.125 629.248 331.125ZM769.789 353V98.4545H799.121V192.418H801.607C803.761 189.103 806.744 184.877 810.556 179.74C814.45 174.52 820.002 169.88 827.211 165.82C834.502 161.677 844.363 159.605 856.792 159.605C872.866 159.605 887.035 163.624 899.299 171.661C911.562 179.699 921.132 191.092 928.01 205.841C934.887 220.59 938.326 237.991 938.326 258.043C938.326 278.26 934.887 295.785 928.01 310.617C921.132 325.366 911.603 336.801 899.423 344.921C887.243 352.959 873.198 356.977 857.289 356.977C845.025 356.977 835.207 354.947 827.832 350.887C820.458 346.744 814.782 342.062 810.804 336.842C806.827 331.539 803.761 327.148 801.607 323.668H798.127V353H769.789ZM798.624 257.545C798.624 271.963 800.737 284.682 804.963 295.702C809.189 306.64 815.362 315.216 823.482 321.43C831.602 327.562 841.545 330.628 853.311 330.628C865.575 330.628 875.808 327.396 884.011 320.933C892.297 314.387 898.511 305.604 902.654 294.584C906.88 283.481 908.993 271.134 908.993 257.545C908.993 244.122 906.922 232.025 902.779 221.253C898.719 210.398 892.546 201.822 884.26 195.525C876.056 189.145 865.74 185.955 853.311 185.955C841.38 185.955 831.354 188.979 823.233 195.028C815.113 200.994 808.981 209.362 804.838 220.134C800.695 230.823 798.624 243.294 798.624 257.545ZM1039.37 357.474C1027.28 357.474 1016.3 355.196 1006.44 350.638C996.576 345.998 988.746 339.328 982.946 330.628C977.145 321.845 974.245 311.239 974.245 298.81C974.245 287.872 976.4 279.006 980.708 272.212C985.017 265.334 990.776 259.948 997.985 256.054C1005.19 252.16 1013.15 249.259 1021.85 247.354C1030.63 245.365 1039.46 243.791 1048.32 242.631C1059.92 241.139 1069.33 240.021 1076.54 239.275C1083.83 238.446 1089.13 237.079 1092.44 235.173C1095.84 233.268 1097.54 229.953 1097.54 225.23V224.236C1097.54 211.973 1094.19 202.444 1087.47 195.649C1080.84 188.855 1070.78 185.457 1057.27 185.457C1043.27 185.457 1032.29 188.523 1024.33 194.655C1016.38 200.786 1010.79 207.332 1007.56 214.293L979.714 204.349C984.686 192.749 991.315 183.717 999.6 177.254C1007.97 170.708 1017.08 166.151 1026.94 163.582C1036.89 160.931 1046.66 159.605 1056.28 159.605C1062.41 159.605 1069.45 160.351 1077.41 161.842C1085.44 163.251 1093.19 166.192 1100.65 170.667C1108.19 175.141 1114.44 181.894 1119.42 190.926C1124.39 199.958 1126.87 212.055 1126.87 227.219V353H1097.54V327.148H1096.05C1094.06 331.291 1090.75 335.724 1086.11 340.447C1081.47 345.17 1075.29 349.188 1067.59 352.503C1059.88 355.817 1050.48 357.474 1039.37 357.474ZM1043.85 331.125C1055.45 331.125 1065.23 328.846 1073.18 324.289C1081.22 319.732 1087.27 313.849 1091.33 306.64C1095.47 299.431 1097.54 291.849 1097.54 283.895V257.048C1096.3 258.54 1093.56 259.907 1089.34 261.15C1085.19 262.31 1080.39 263.346 1074.92 264.257C1069.53 265.086 1064.27 265.831 1059.14 266.494C1054.08 267.074 1049.98 267.571 1046.83 267.986C1039.21 268.98 1032.08 270.596 1025.45 272.833C1018.91 274.987 1013.6 278.26 1009.54 282.652C1005.57 286.961 1003.58 292.844 1003.58 300.301C1003.58 310.493 1007.35 318.199 1014.89 323.419C1022.51 328.556 1032.16 331.125 1043.85 331.125ZM1315.64 204.847L1289.29 212.304C1287.63 207.912 1285.19 203.645 1281.96 199.502C1278.81 195.276 1274.5 191.796 1269.03 189.062C1263.56 186.327 1256.56 184.96 1248.02 184.96C1236.34 184.96 1226.61 187.653 1218.82 193.039C1211.11 198.342 1207.26 205.095 1207.26 213.298C1207.26 220.59 1209.91 226.349 1215.21 230.575C1220.52 234.8 1228.8 238.322 1240.07 241.139L1268.41 248.099C1285.48 252.242 1298.2 258.581 1306.57 267.116C1314.93 275.567 1319.12 286.464 1319.12 299.804C1319.12 310.741 1315.97 320.519 1309.67 329.136C1303.46 337.754 1294.76 344.548 1283.57 349.52C1272.39 354.491 1259.38 356.977 1244.54 356.977C1225.07 356.977 1208.96 352.751 1196.2 344.3C1183.44 335.848 1175.36 323.502 1171.96 307.261L1199.8 300.301C1202.45 310.576 1207.46 318.282 1214.84 323.419C1222.3 328.556 1232.03 331.125 1244.05 331.125C1257.72 331.125 1268.57 328.225 1276.61 322.425C1284.73 316.542 1288.79 309.499 1288.79 301.295C1288.79 294.667 1286.47 289.115 1281.83 284.641C1277.19 280.083 1270.07 276.686 1260.45 274.449L1228.64 266.991C1211.15 262.848 1198.31 256.427 1190.11 247.727C1181.99 238.943 1177.93 227.964 1177.93 214.79C1177.93 204.018 1180.95 194.489 1187 186.203C1193.13 177.917 1201.46 171.413 1211.98 166.69C1222.59 161.967 1234.6 159.605 1248.02 159.605C1266.92 159.605 1281.75 163.748 1292.52 172.034C1303.38 180.32 1311.08 191.258 1315.64 204.847ZM1443.31 356.977C1424.92 356.977 1409.05 352.917 1395.71 344.797C1382.45 336.594 1372.22 325.159 1365.01 310.493C1357.89 295.744 1354.32 278.592 1354.32 259.037C1354.32 239.482 1357.89 222.247 1365.01 207.332C1372.22 192.335 1382.25 180.652 1395.09 172.283C1408.02 163.831 1423.1 159.605 1440.33 159.605C1450.28 159.605 1460.09 161.262 1469.79 164.577C1479.48 167.891 1488.31 173.277 1496.26 180.734C1504.22 188.109 1510.56 197.886 1515.28 210.067C1520 222.247 1522.36 237.245 1522.36 255.06V267.489H1375.2V242.134H1492.53C1492.53 231.362 1490.38 221.75 1486.07 213.298C1481.84 204.847 1475.8 198.176 1467.92 193.288C1460.14 188.399 1450.94 185.955 1440.33 185.955C1428.65 185.955 1418.54 188.855 1410.01 194.655C1401.55 200.372 1395.05 207.83 1390.49 217.027C1385.93 226.224 1383.66 236.085 1383.66 246.608V263.511C1383.66 277.929 1386.14 290.151 1391.11 300.177C1396.17 310.12 1403.17 317.702 1412.12 322.922C1421.07 328.059 1431.47 330.628 1443.31 330.628C1451.02 330.628 1457.98 329.551 1464.2 327.396C1470.49 325.159 1475.92 321.845 1480.48 317.453C1485.03 312.979 1488.56 307.427 1491.04 300.798L1519.38 308.753C1516.4 318.365 1511.38 326.816 1504.34 334.108C1497.3 341.317 1488.6 346.951 1478.24 351.011C1467.88 354.989 1456.24 356.977 1443.31 356.977ZM1676.36 230.202V257.545H1564.99V230.202H1676.36ZM1784.15 357.474C1772.05 357.474 1761.07 355.196 1751.21 350.638C1741.35 345.998 1733.52 339.328 1727.72 330.628C1721.92 321.845 1719.02 311.239 1719.02 298.81C1719.02 287.872 1721.18 279.006 1725.48 272.212C1729.79 265.334 1735.55 259.948 1742.76 256.054C1749.97 252.16 1757.92 249.259 1766.62 247.354C1775.41 245.365 1784.23 243.791 1793.1 242.631C1804.7 241.139 1814.1 240.021 1821.31 239.275C1828.6 238.446 1833.91 237.079 1837.22 235.173C1840.62 233.268 1842.32 229.953 1842.32 225.23V224.236C1842.32 211.973 1838.96 202.444 1832.25 195.649C1825.62 188.855 1815.55 185.457 1802.05 185.457C1788.04 185.457 1777.06 188.523 1769.11 194.655C1761.16 200.786 1755.56 207.332 1752.33 214.293L1724.49 204.349C1729.46 192.749 1736.09 183.717 1744.38 177.254C1752.74 170.708 1761.86 166.151 1771.72 163.582C1781.66 160.931 1791.44 159.605 1801.05 159.605C1807.18 159.605 1814.23 160.351 1822.18 161.842C1830.22 163.251 1837.97 166.192 1845.42 170.667C1852.96 175.141 1859.22 181.894 1864.19 190.926C1869.16 199.958 1871.65 212.055 1871.65 227.219V353H1842.32V327.148H1840.82C1838.84 331.291 1835.52 335.724 1830.88 340.447C1826.24 345.17 1820.07 349.188 1812.36 352.503C1804.66 355.817 1795.25 357.474 1784.15 357.474ZM1788.62 331.125C1800.22 331.125 1810 328.846 1817.96 324.289C1825.99 319.732 1832.04 313.849 1836.1 306.64C1840.24 299.431 1842.32 291.849 1842.32 283.895V257.048C1841.07 258.54 1838.34 259.907 1834.11 261.15C1829.97 262.31 1825.16 263.346 1819.7 264.257C1814.31 265.086 1809.05 265.831 1803.91 266.494C1798.86 267.074 1794.75 267.571 1791.61 267.986C1783.98 268.98 1776.86 270.596 1770.23 272.833C1763.68 274.987 1758.38 278.26 1754.32 282.652C1750.34 286.961 1748.35 292.844 1748.35 300.301C1748.35 310.493 1752.12 318.199 1759.66 323.419C1767.29 328.556 1776.94 331.125 1788.62 331.125ZM1997.27 356.977C1981.37 356.977 1967.32 352.959 1955.14 344.921C1942.96 336.801 1933.43 325.366 1926.55 310.617C1919.68 295.785 1916.24 278.26 1916.24 258.043C1916.24 237.991 1919.68 220.59 1926.55 205.841C1933.43 191.092 1943 179.699 1955.26 171.661C1967.53 163.624 1981.7 159.605 1997.77 159.605C2010.2 159.605 2020.02 161.677 2027.23 165.82C2034.52 169.88 2040.07 174.52 2043.88 179.74C2047.78 184.877 2050.8 189.103 2052.96 192.418H2055.44V98.4545H2084.77V353H2056.44V323.668H2052.96C2050.8 327.148 2047.74 331.539 2043.76 336.842C2039.78 342.062 2034.11 346.744 2026.73 350.887C2019.36 354.947 2009.54 356.977 1997.27 356.977ZM2001.25 330.628C2013.02 330.628 2022.96 327.562 2031.08 321.43C2039.2 315.216 2045.37 306.64 2049.6 295.702C2053.83 284.682 2055.94 271.963 2055.94 257.545C2055.94 243.294 2053.87 230.823 2049.72 220.134C2045.58 209.362 2039.45 200.994 2031.33 195.028C2023.21 188.979 2013.18 185.955 2001.25 185.955C1988.82 185.955 1978.47 189.145 1970.18 195.525C1961.98 201.822 1955.8 210.398 1951.66 221.253C1947.6 232.025 1945.57 244.122 1945.57 257.545C1945.57 271.134 1947.64 283.481 1951.78 294.584C1956.01 305.604 1962.22 314.387 1970.43 320.933C1978.71 327.396 1988.99 330.628 2001.25 330.628ZM2198.75 357.474C2186.65 357.474 2175.67 355.196 2165.81 350.638C2155.95 345.998 2148.12 339.328 2142.32 330.628C2136.52 321.845 2133.62 311.239 2133.62 298.81C2133.62 287.872 2135.77 279.006 2140.08 272.212C2144.39 265.334 2150.15 259.948 2157.36 256.054C2164.57 252.16 2172.52 249.259 2181.22 247.354C2190.01 245.365 2198.83 243.791 2207.7 242.631C2219.3 241.139 2228.7 240.021 2235.91 239.275C2243.2 238.446 2248.51 237.079 2251.82 235.173C2255.22 233.268 2256.92 229.953 2256.92 225.23V224.236C2256.92 211.973 2253.56 202.444 2246.85 195.649C2240.22 188.855 2230.15 185.457 2216.65 185.457C2202.64 185.457 2191.66 188.523 2183.71 194.655C2175.75 200.786 2170.16 207.332 2166.93 214.293L2139.09 204.349C2144.06 192.749 2150.69 183.717 2158.98 177.254C2167.34 170.708 2176.46 166.151 2186.32 163.582C2196.26 160.931 2206.04 159.605 2215.65 159.605C2221.78 159.605 2228.83 160.351 2236.78 161.842C2244.82 163.251 2252.57 166.192 2260.02 170.667C2267.56 175.141 2273.82 181.894 2278.79 190.926C2283.76 199.958 2286.25 212.055 2286.25 227.219V353H2256.92V327.148H2255.42C2253.44 331.291 2250.12 335.724 2245.48 340.447C2240.84 345.17 2234.67 349.188 2226.96 352.503C2219.26 355.817 2209.85 357.474 2198.75 357.474ZM2203.22 331.125C2214.82 331.125 2224.6 328.846 2232.56 324.289C2240.59 319.732 2246.64 313.849 2250.7 306.64C2254.84 299.431 2256.92 291.849 2256.92 283.895V257.048C2255.67 258.54 2252.94 259.907 2248.71 261.15C2244.57 262.31 2239.76 263.346 2234.3 264.257C2228.91 265.086 2223.65 265.831 2218.51 266.494C2213.46 267.074 2209.35 267.571 2206.21 267.986C2198.58 268.98 2191.46 270.596 2184.83 272.833C2178.28 274.987 2172.98 278.26 2168.92 282.652C2164.94 286.961 2162.95 292.844 2162.95 300.301C2162.95 310.493 2166.72 318.199 2174.26 323.419C2181.89 328.556 2191.54 331.125 2203.22 331.125ZM2339.79 424.591V162.091H2368.12V192.418H2371.6C2373.76 189.103 2376.74 184.877 2380.55 179.74C2384.45 174.52 2390 169.88 2397.21 165.82C2404.5 161.677 2414.36 159.605 2426.79 159.605C2442.86 159.605 2457.03 163.624 2469.3 171.661C2481.56 179.699 2491.13 191.092 2498.01 205.841C2504.88 220.59 2508.32 237.991 2508.32 258.043C2508.32 278.26 2504.88 295.785 2498.01 310.617C2491.13 325.366 2481.6 336.801 2469.42 344.921C2457.24 352.959 2443.2 356.977 2427.29 356.977C2415.02 356.977 2405.2 354.947 2397.83 350.887C2390.45 346.744 2384.78 342.062 2380.8 336.842C2376.82 331.539 2373.76 327.148 2371.6 323.668H2369.12V424.591H2339.79ZM2368.62 257.545C2368.62 271.963 2370.73 284.682 2374.96 295.702C2379.19 306.64 2385.36 315.216 2393.48 321.43C2401.6 327.562 2411.54 330.628 2423.31 330.628C2435.57 330.628 2445.81 327.396 2454.01 320.933C2462.29 314.387 2468.51 305.604 2472.65 294.584C2476.88 283.481 2478.99 271.134 2478.99 257.545C2478.99 244.122 2476.92 232.025 2472.78 221.253C2468.72 210.398 2462.54 201.822 2454.26 195.525C2446.05 189.145 2435.74 185.955 2423.31 185.955C2411.38 185.955 2401.35 188.979 2393.23 195.028C2385.11 200.994 2378.98 209.362 2374.84 220.134C2370.69 230.823 2368.62 243.294 2368.62 257.545ZM2636.09 162.091V186.949H2537.16V162.091H2636.09ZM2565.99 116.352H2595.33V298.312C2595.33 306.598 2596.53 312.813 2598.93 316.956C2601.42 321.016 2604.56 323.75 2608.38 325.159C2612.27 326.485 2616.37 327.148 2620.68 327.148C2623.91 327.148 2626.56 326.982 2628.64 326.651C2630.71 326.236 2632.36 325.905 2633.61 325.656L2639.57 352.006C2637.58 352.751 2634.81 353.497 2631.25 354.243C2627.68 355.071 2623.17 355.486 2617.7 355.486C2609.41 355.486 2601.29 353.704 2593.34 350.141C2585.47 346.578 2578.92 341.151 2573.7 333.859C2568.56 326.568 2565.99 317.37 2565.99 306.267V116.352ZM2758.21 356.977C2739.81 356.977 2723.95 352.917 2710.6 344.797C2697.35 336.594 2687.11 325.159 2679.91 310.493C2672.78 295.744 2669.22 278.592 2669.22 259.037C2669.22 239.482 2672.78 222.247 2679.91 207.332C2687.11 192.335 2697.14 180.652 2709.98 172.283C2722.91 163.831 2737.99 159.605 2755.22 159.605C2765.17 159.605 2774.99 161.262 2784.68 164.577C2794.38 167.891 2803.2 173.277 2811.16 180.734C2819.11 188.109 2825.45 197.886 2830.17 210.067C2834.89 222.247 2837.26 237.245 2837.26 255.06V267.489H2690.1V242.134H2807.43C2807.43 231.362 2805.27 221.75 2800.96 213.298C2796.74 204.847 2790.69 198.176 2782.82 193.288C2775.03 188.399 2765.83 185.955 2755.22 185.955C2743.54 185.955 2733.43 188.855 2724.9 194.655C2716.45 200.372 2709.94 207.83 2705.38 217.027C2700.83 226.224 2698.55 236.085 2698.55 246.608V263.511C2698.55 277.929 2701.03 290.151 2706.01 300.177C2711.06 310.12 2718.06 317.702 2727.01 322.922C2735.96 328.059 2746.36 330.628 2758.21 330.628C2765.91 330.628 2772.87 329.551 2779.09 327.396C2785.39 325.159 2790.81 321.845 2795.37 317.453C2799.93 312.979 2803.45 307.427 2805.93 300.798L2834.27 308.753C2831.29 318.365 2826.28 326.816 2819.23 334.108C2812.19 341.317 2803.49 346.951 2793.13 351.011C2782.78 354.989 2771.13 356.977 2758.21 356.977ZM2881.88 353V162.091H2910.21V190.926H2912.2C2915.68 181.48 2921.98 173.816 2931.09 167.933C2940.21 162.049 2950.48 159.108 2961.92 159.108C2964.07 159.108 2966.77 159.149 2970 159.232C2973.23 159.315 2975.67 159.439 2977.33 159.605V189.435C2976.34 189.186 2974.06 188.813 2970.49 188.316C2967.01 187.736 2963.33 187.446 2959.43 187.446C2950.15 187.446 2941.87 189.393 2934.57 193.288C2927.37 197.099 2921.65 202.402 2917.42 209.197C2913.28 215.908 2911.21 223.573 2911.21 232.19V353H2881.88ZM3107.46 230.202V257.545H2996.1V230.202H3107.46ZM3159.07 353V162.091H3187.41V191.92H3189.9C3193.87 181.729 3200.3 173.816 3209.16 168.181C3218.03 162.464 3228.68 159.605 3241.1 159.605C3253.7 159.605 3264.18 162.464 3272.55 168.181C3281 173.816 3287.59 181.729 3292.31 191.92H3294.3C3299.19 182.06 3306.52 174.23 3316.3 168.43C3326.08 162.547 3337.8 159.605 3351.47 159.605C3368.54 159.605 3382.5 164.95 3393.36 175.638C3404.21 186.245 3409.64 202.775 3409.64 225.23V353H3380.31V225.23C3380.31 211.144 3376.46 201.076 3368.75 195.028C3361.04 188.979 3351.97 185.955 3341.53 185.955C3328.11 185.955 3317.71 190.015 3310.33 198.135C3302.96 206.172 3299.27 216.364 3299.27 228.71V353H3269.44V222.247C3269.44 211.393 3265.92 202.651 3258.88 196.022C3251.83 189.31 3242.76 185.955 3231.66 185.955C3224.04 185.955 3216.91 187.985 3210.28 192.045C3203.73 196.105 3198.43 201.739 3194.37 208.948C3190.39 216.074 3188.41 224.319 3188.41 233.682V353H3159.07ZM3540.83 356.977C3523.59 356.977 3508.47 352.876 3495.46 344.673C3482.54 336.469 3472.43 324.993 3465.14 310.244C3457.93 295.495 3454.32 278.26 3454.32 258.54C3454.32 238.653 3457.93 221.294 3465.14 206.462C3472.43 191.63 3482.54 180.113 3495.46 171.91C3508.47 163.707 3523.59 159.605 3540.83 159.605C3558.06 159.605 3573.14 163.707 3586.07 171.91C3599.08 180.113 3609.19 191.63 3616.4 206.462C3623.69 221.294 3627.33 238.653 3627.33 258.54C3627.33 278.26 3623.69 295.495 3616.4 310.244C3609.19 324.993 3599.08 336.469 3586.07 344.673C3573.14 352.876 3558.06 356.977 3540.83 356.977ZM3540.83 330.628C3553.92 330.628 3564.69 327.272 3573.14 320.56C3581.6 313.849 3587.85 305.024 3591.91 294.087C3595.97 283.149 3598 271.3 3598 258.54C3598 245.779 3595.97 233.889 3591.91 222.869C3587.85 211.848 3581.6 202.941 3573.14 196.146C3564.69 189.352 3553.92 185.955 3540.83 185.955C3527.74 185.955 3516.97 189.352 3508.51 196.146C3500.06 202.941 3493.81 211.848 3489.75 222.869C3485.69 233.889 3483.66 245.779 3483.66 258.54C3483.66 271.3 3485.69 283.149 3489.75 294.087C3493.81 305.024 3500.06 313.849 3508.51 320.56C3516.97 327.272 3527.74 330.628 3540.83 330.628ZM3701.44 238.156V353H3672.11V162.091H3700.45V191.92H3702.93C3707.41 182.226 3714.2 174.437 3723.32 168.554C3732.43 162.588 3744.2 159.605 3758.62 159.605C3771.54 159.605 3782.85 162.257 3792.55 167.56C3802.24 172.78 3809.78 180.734 3815.17 191.423C3820.55 202.029 3823.25 215.453 3823.25 231.693V353H3793.91V233.682C3793.91 218.684 3790.02 207.001 3782.23 198.632C3774.44 190.18 3763.75 185.955 3750.16 185.955C3740.8 185.955 3732.43 187.985 3725.06 192.045C3717.77 196.105 3712.01 202.029 3707.78 209.818C3703.56 217.607 3701.44 227.053 3701.44 238.156ZM3953.91 428.568C3939.74 428.568 3927.56 426.745 3917.37 423.099C3907.17 419.536 3898.68 414.813 3891.89 408.93C3885.17 403.13 3879.83 396.916 3875.85 390.287L3899.22 373.881C3901.87 377.361 3905.23 381.338 3909.29 385.812C3913.35 390.37 3918.9 394.306 3925.94 397.62C3933.07 401.017 3942.39 402.716 3953.91 402.716C3969.32 402.716 3982.04 398.987 3992.06 391.53C4002.09 384.072 4007.1 372.389 4007.1 356.48V317.702H4004.62C4002.46 321.182 3999.4 325.491 3995.42 330.628C3991.52 335.682 3985.89 340.198 3978.52 344.175C3971.22 348.07 3961.36 350.017 3948.93 350.017C3933.52 350.017 3919.69 346.371 3907.42 339.08C3895.24 331.788 3885.59 321.182 3878.46 307.261C3871.42 293.341 3867.9 276.437 3867.9 256.551C3867.9 236.996 3871.34 219.969 3878.21 205.468C3885.09 190.885 3894.66 179.616 3906.92 171.661C3919.19 163.624 3933.36 159.605 3949.43 159.605C3961.86 159.605 3971.72 161.677 3979.01 165.82C3986.39 169.88 3992.02 174.52 3995.92 179.74C3999.89 184.877 4002.96 189.103 4005.11 192.418H4008.1V162.091H4036.43V358.469C4036.43 374.875 4032.71 388.215 4025.25 398.49C4017.87 408.848 4007.93 416.429 3995.42 421.235C3982.99 426.124 3969.15 428.568 3953.91 428.568ZM3952.91 323.668C3964.68 323.668 3974.62 320.975 3982.74 315.589C3990.86 310.203 3997.03 302.455 4001.26 292.347C4005.49 282.238 4007.6 270.14 4007.6 256.054C4007.6 242.299 4005.53 230.16 4001.38 219.637C3997.24 209.114 3991.11 200.869 3982.99 194.903C3974.87 188.937 3964.84 185.955 3952.91 185.955C3940.48 185.955 3930.13 189.103 3921.84 195.401C3913.64 201.698 3907.46 210.15 3903.32 220.756C3899.26 231.362 3897.23 243.128 3897.23 256.054C3897.23 269.312 3899.3 281.036 3903.44 291.228C3907.67 301.337 3913.88 309.291 3922.09 315.092C3930.37 320.809 3940.65 323.668 3952.91 323.668ZM4167.68 356.977C4150.45 356.977 4135.33 352.876 4122.32 344.673C4109.39 336.469 4099.28 324.993 4091.99 310.244C4084.78 295.495 4081.18 278.26 4081.18 258.54C4081.18 238.653 4084.78 221.294 4091.99 206.462C4099.28 191.63 4109.39 180.113 4122.32 171.91C4135.33 163.707 4150.45 159.605 4167.68 159.605C4184.92 159.605 4200 163.707 4212.93 171.91C4225.94 180.113 4236.04 191.63 4243.25 206.462C4250.54 221.294 4254.19 238.653 4254.19 258.54C4254.19 278.26 4250.54 295.495 4243.25 310.244C4236.04 324.993 4225.94 336.469 4212.93 344.673C4200 352.876 4184.92 356.977 4167.68 356.977ZM4167.68 330.628C4180.78 330.628 4191.55 327.272 4200 320.56C4208.45 313.849 4214.71 305.024 4218.77 294.087C4222.83 283.149 4224.86 271.3 4224.86 258.54C4224.86 245.779 4222.83 233.889 4218.77 222.869C4214.71 211.848 4208.45 202.941 4200 196.146C4191.55 189.352 4180.78 185.955 4167.68 185.955C4154.59 185.955 4143.82 189.352 4135.37 196.146C4126.92 202.941 4120.66 211.848 4116.6 222.869C4112.54 233.889 4110.51 245.779 4110.51 258.54C4110.51 271.3 4112.54 283.149 4116.6 294.087C4120.66 305.024 4126.92 313.849 4135.37 320.56C4143.82 327.272 4154.59 330.628 4167.68 330.628ZM4371.05 356.977C4355.14 356.977 4341.1 352.959 4328.92 344.921C4316.74 336.801 4307.21 325.366 4300.33 310.617C4293.46 295.785 4290.02 278.26 4290.02 258.043C4290.02 237.991 4293.46 220.59 4300.33 205.841C4307.21 191.092 4316.78 179.699 4329.04 171.661C4341.31 163.624 4355.48 159.605 4371.55 159.605C4383.98 159.605 4393.8 161.677 4401.01 165.82C4408.3 169.88 4413.85 174.52 4417.66 179.74C4421.56 184.877 4424.58 189.103 4426.74 192.418H4429.22V98.4545H4458.55V353H4430.22V323.668H4426.74C4424.58 327.148 4421.52 331.539 4417.54 336.842C4413.56 342.062 4407.89 346.744 4400.51 350.887C4393.14 354.947 4383.32 356.977 4371.05 356.977ZM4375.03 330.628C4386.8 330.628 4396.74 327.562 4404.86 321.43C4412.98 315.216 4419.15 306.64 4423.38 295.702C4427.61 284.682 4429.72 271.963 4429.72 257.545C4429.72 243.294 4427.65 230.823 4423.5 220.134C4419.36 209.362 4413.23 200.994 4405.11 195.028C4396.99 188.979 4386.96 185.955 4375.03 185.955C4362.6 185.955 4352.24 189.145 4343.96 195.525C4335.76 201.822 4329.58 210.398 4325.44 221.253C4321.38 232.025 4319.35 244.122 4319.35 257.545C4319.35 271.134 4321.42 283.481 4325.56 294.584C4329.79 305.604 4336 314.387 4344.21 320.933C4352.49 327.396 4362.77 330.628 4375.03 330.628ZM4520.33 353V98.4545H4549.66V192.418H4552.14C4554.3 189.103 4557.28 184.877 4561.09 179.74C4564.99 174.52 4570.54 169.88 4577.75 165.82C4585.04 161.677 4594.9 159.605 4607.33 159.605C4623.4 159.605 4637.57 163.624 4649.84 171.661C4662.1 179.699 4671.67 191.092 4678.55 205.841C4685.42 220.59 4688.86 237.991 4688.86 258.043C4688.86 278.26 4685.42 295.785 4678.55 310.617C4671.67 325.366 4662.14 336.801 4649.96 344.921C4637.78 352.959 4623.73 356.977 4607.83 356.977C4595.56 356.977 4585.74 354.947 4578.37 350.887C4570.99 346.744 4565.32 342.062 4561.34 336.842C4557.36 331.539 4554.3 327.148 4552.14 323.668H4548.66V353H4520.33ZM4549.16 257.545C4549.16 271.963 4551.27 284.682 4555.5 295.702C4559.73 306.64 4565.9 315.216 4574.02 321.43C4582.14 327.562 4592.08 330.628 4603.85 330.628C4616.11 330.628 4626.34 327.396 4634.55 320.933C4642.83 314.387 4649.05 305.604 4653.19 294.584C4657.42 283.481 4659.53 271.134 4659.53 257.545C4659.53 244.122 4657.46 232.025 4653.32 221.253C4649.26 210.398 4643.08 201.822 4634.8 195.525C4626.59 189.145 4616.28 185.955 4603.85 185.955C4591.92 185.955 4581.89 188.979 4573.77 195.028C4565.65 200.994 4559.52 209.362 4555.38 220.134C4551.23 230.823 4549.16 243.294 4549.16 257.545Z" fill="#888888"/>
</svg>
