<svg width="1426" height="451" viewBox="0 0 1426 451" fill="none" xmlns="http://www.w3.org/2000/svg">
<path d="M104.403 356.977C86.5057 356.977 71.0938 352.751 58.1676 344.3C45.2415 335.848 35.2983 324.206 28.3381 309.374C21.3778 294.542 17.8977 277.598 17.8977 258.54C17.8977 239.151 21.4607 222.04 28.5866 207.208C35.7955 192.293 45.8215 180.652 58.6648 172.283C71.5909 163.831 86.6714 159.605 103.906 159.605C117.33 159.605 129.427 162.091 140.199 167.062C150.971 172.034 159.795 178.994 166.673 187.943C173.55 196.892 177.817 207.332 179.474 219.264H150.142C147.905 210.564 142.933 202.858 135.227 196.146C127.604 189.352 117.33 185.955 104.403 185.955C92.9688 185.955 82.9427 188.937 74.3253 194.903C65.7907 200.786 59.1205 209.114 54.3146 219.886C49.5916 230.575 47.2301 243.128 47.2301 257.545C47.2301 272.295 49.5502 285.138 54.1903 296.075C58.9134 307.013 65.5421 315.506 74.0767 321.555C82.6941 327.603 92.803 330.628 104.403 330.628C112.027 330.628 118.945 329.302 125.16 326.651C131.374 323.999 136.636 320.188 140.945 315.216C145.253 310.244 148.319 304.278 150.142 297.318H179.474C177.817 308.587 173.716 318.737 167.17 327.769C160.707 336.718 152.131 343.844 141.442 349.147C130.836 354.367 118.49 356.977 104.403 356.977ZM299.911 356.977C282.676 356.977 267.554 352.876 254.545 344.673C241.619 336.469 231.51 324.993 224.219 310.244C217.01 295.495 213.406 278.26 213.406 258.54C213.406 238.653 217.01 221.294 224.219 206.462C231.51 191.63 241.619 180.113 254.545 171.91C267.554 163.707 282.676 159.605 299.911 159.605C317.146 159.605 332.227 163.707 345.153 171.91C358.162 180.113 368.271 191.63 375.479 206.462C382.771 221.294 386.417 238.653 386.417 258.54C386.417 278.26 382.771 295.495 375.479 310.244C368.271 324.993 358.162 336.469 345.153 344.673C332.227 352.876 317.146 356.977 299.911 356.977ZM299.911 330.628C313.003 330.628 323.775 327.272 332.227 320.56C340.678 313.849 346.934 305.024 350.994 294.087C355.054 283.149 357.085 271.3 357.085 258.54C357.085 245.779 355.054 233.889 350.994 222.869C346.934 211.848 340.678 202.941 332.227 196.146C323.775 189.352 313.003 185.955 299.911 185.955C286.819 185.955 276.048 189.352 267.596 196.146C259.144 202.941 252.888 211.848 248.828 222.869C244.768 233.889 242.738 245.779 242.738 258.54C242.738 271.3 244.768 283.149 248.828 294.087C252.888 305.024 259.144 313.849 267.596 320.56C276.048 327.272 286.819 330.628 299.911 330.628ZM431.192 353V162.091H459.53V191.92H462.016C465.993 181.729 472.415 173.816 481.281 168.181C490.147 162.464 500.795 159.605 513.224 159.605C525.818 159.605 536.3 162.464 544.669 168.181C553.121 173.816 559.708 181.729 564.431 191.92H566.42C571.308 182.06 578.641 174.23 588.419 168.43C598.196 162.547 609.921 159.605 623.593 159.605C640.662 159.605 654.624 164.95 665.479 175.638C676.333 186.245 681.76 202.775 681.76 225.23V353H652.428V225.23C652.428 211.144 648.575 201.076 640.869 195.028C633.163 188.979 624.09 185.955 613.65 185.955C600.226 185.955 589.827 190.015 582.453 198.135C575.078 206.172 571.391 216.364 571.391 228.71V353H541.562V222.247C541.562 211.393 538.04 202.651 530.997 196.022C523.954 189.31 514.881 185.955 503.778 185.955C496.154 185.955 489.028 187.985 482.4 192.045C475.854 196.105 470.551 201.739 466.491 208.948C462.513 216.074 460.525 224.319 460.525 233.682V353H431.192ZM735.392 353V162.091H763.73V191.92H766.215C770.193 181.729 776.614 173.816 785.48 168.181C794.346 162.464 804.994 159.605 817.423 159.605C830.017 159.605 840.499 162.464 848.868 168.181C857.32 173.816 863.907 181.729 868.63 191.92H870.619C875.508 182.06 882.841 174.23 892.618 168.43C902.396 162.547 914.12 159.605 927.792 159.605C944.861 159.605 958.823 164.95 969.678 175.638C980.532 186.245 985.96 202.775 985.96 225.23V353H956.627V225.23C956.627 211.144 952.774 201.076 945.068 195.028C937.362 188.979 928.289 185.955 917.849 185.955C904.426 185.955 894.027 190.015 886.652 198.135C879.278 206.172 875.59 216.364 875.59 228.71V353H845.761V222.247C845.761 211.393 842.239 202.651 835.196 196.022C828.153 189.31 819.08 185.955 807.977 185.955C800.354 185.955 793.228 187.985 786.599 192.045C780.053 196.105 774.75 201.739 770.69 208.948C766.713 216.074 764.724 224.319 764.724 233.682V353H735.392ZM1117.15 356.977C1099.91 356.977 1084.79 352.876 1071.78 344.673C1058.86 336.469 1048.75 324.993 1041.46 310.244C1034.25 295.495 1030.64 278.26 1030.64 258.54C1030.64 238.653 1034.25 221.294 1041.46 206.462C1048.75 191.63 1058.86 180.113 1071.78 171.91C1084.79 163.707 1099.91 159.605 1117.15 159.605C1134.38 159.605 1149.46 163.707 1162.39 171.91C1175.4 180.113 1185.51 191.63 1192.72 206.462C1200.01 221.294 1203.65 238.653 1203.65 258.54C1203.65 278.26 1200.01 295.495 1192.72 310.244C1185.51 324.993 1175.4 336.469 1162.39 344.673C1149.46 352.876 1134.38 356.977 1117.15 356.977ZM1117.15 330.628C1130.24 330.628 1141.01 327.272 1149.46 320.56C1157.91 313.849 1164.17 305.024 1168.23 294.087C1172.29 283.149 1174.32 271.3 1174.32 258.54C1174.32 245.779 1172.29 233.889 1168.23 222.869C1164.17 211.848 1157.91 202.941 1149.46 196.146C1141.01 189.352 1130.24 185.955 1117.15 185.955C1104.06 185.955 1093.28 189.352 1084.83 196.146C1076.38 202.941 1070.12 211.848 1066.06 222.869C1062 233.889 1059.97 245.779 1059.97 258.54C1059.97 271.3 1062 283.149 1066.06 294.087C1070.12 305.024 1076.38 313.849 1084.83 320.56C1093.28 327.272 1104.06 330.628 1117.15 330.628ZM1277.76 238.156V353H1248.43V162.091H1276.77V191.92H1279.25C1283.73 182.226 1290.52 174.437 1299.64 168.554C1308.75 162.588 1320.52 159.605 1334.93 159.605C1347.86 159.605 1359.17 162.257 1368.87 167.56C1378.56 172.78 1386.1 180.734 1391.49 191.423C1396.87 202.029 1399.56 215.453 1399.56 231.693V353H1370.23V233.682C1370.23 218.684 1366.34 207.001 1358.55 198.632C1350.76 190.18 1340.07 185.955 1326.48 185.955C1317.12 185.955 1308.75 187.985 1301.38 192.045C1294.08 196.105 1288.33 202.029 1284.1 209.818C1279.87 217.607 1277.76 227.053 1277.76 238.156Z" fill="#888888"/>
</svg>
