<svg width="923" height="451" viewBox="0 0 923 451" fill="none" xmlns="http://www.w3.org/2000/svg">
<path d="M26.8466 424.591V162.091H55.1847V192.418H58.6648C60.8191 189.103 63.8021 184.877 67.6136 179.74C71.5081 174.52 77.0597 169.88 84.2685 165.82C91.5601 161.677 101.42 159.605 113.849 159.605C129.924 159.605 144.093 163.624 156.357 171.661C168.62 179.699 178.19 191.092 185.067 205.841C191.945 220.59 195.384 237.991 195.384 258.043C195.384 278.26 191.945 295.785 185.067 310.617C178.19 325.366 168.661 336.801 156.481 344.921C144.3 352.959 130.256 356.977 114.347 356.977C102.083 356.977 92.2644 354.947 84.8899 350.887C77.5154 346.744 71.8395 342.062 67.8622 336.842C63.8849 331.539 60.8191 327.148 58.6648 323.668H56.179V424.591H26.8466ZM55.6818 257.545C55.6818 271.963 57.7947 284.682 62.0206 295.702C66.2464 306.64 72.4195 315.216 80.5398 321.43C88.66 327.562 98.6032 330.628 110.369 330.628C122.633 330.628 132.866 327.396 141.069 320.933C149.355 314.387 155.569 305.604 159.712 294.584C163.938 283.481 166.051 271.134 166.051 257.545C166.051 244.122 163.98 232.025 159.837 221.253C155.777 210.398 149.603 201.822 141.317 195.525C133.114 189.145 122.798 185.955 110.369 185.955C98.4375 185.955 88.4115 188.979 80.2912 195.028C72.1709 200.994 66.0393 209.362 61.8963 220.134C57.7533 230.823 55.6818 243.294 55.6818 257.545ZM240.128 353V162.091H268.466V190.926H270.455C273.935 181.48 280.232 173.816 289.347 167.933C298.461 162.049 308.736 159.108 320.17 159.108C322.325 159.108 325.018 159.149 328.249 159.232C331.481 159.315 333.925 159.439 335.582 159.605V189.435C334.588 189.186 332.309 188.813 328.746 188.316C325.266 187.736 321.579 187.446 317.685 187.446C308.404 187.446 300.118 189.393 292.827 193.288C285.618 197.099 279.901 202.402 275.675 209.197C271.532 215.908 269.46 223.573 269.46 232.19V353H240.128ZM442.099 356.977C424.864 356.977 409.742 352.876 396.733 344.673C383.807 336.469 373.698 324.993 366.406 310.244C359.197 295.495 355.593 278.26 355.593 258.54C355.593 238.653 359.197 221.294 366.406 206.462C373.698 191.63 383.807 180.113 396.733 171.91C409.742 163.707 424.864 159.605 442.099 159.605C459.334 159.605 474.414 163.707 487.34 171.91C500.349 180.113 510.458 191.63 517.667 206.462C524.959 221.294 528.604 238.653 528.604 258.54C528.604 278.26 524.959 295.495 517.667 310.244C510.458 324.993 500.349 336.469 487.34 344.673C474.414 352.876 459.334 356.977 442.099 356.977ZM442.099 330.628C455.191 330.628 465.962 327.272 474.414 320.56C482.866 313.849 489.122 305.024 493.182 294.087C497.242 283.149 499.272 271.3 499.272 258.54C499.272 245.779 497.242 233.889 493.182 222.869C489.122 211.848 482.866 202.941 474.414 196.146C465.962 189.352 455.191 185.955 442.099 185.955C429.007 185.955 418.235 189.352 409.783 196.146C401.332 202.941 395.076 211.848 391.016 222.869C386.955 233.889 384.925 245.779 384.925 258.54C384.925 271.3 386.955 283.149 391.016 294.087C395.076 305.024 401.332 313.849 409.783 320.56C418.235 327.272 429.007 330.628 442.099 330.628ZM587.393 162.091L633.132 240.145L678.871 162.091H712.678L651.03 257.545L712.678 353H678.871L633.132 278.923L587.393 353H553.587L614.24 257.545L553.587 162.091H587.393ZM773.424 424.591C768.453 424.591 764.02 424.177 760.125 423.348C756.231 422.602 753.538 421.857 752.046 421.111L759.504 395.259C766.63 397.081 772.927 397.744 778.396 397.247C783.865 396.75 788.712 394.306 792.938 389.914C797.246 385.605 801.182 378.604 804.745 368.909L810.214 353.994L739.617 162.091H771.436L824.134 314.222H826.123L878.822 162.091H910.64L829.603 380.841C825.957 390.701 821.441 398.863 816.056 405.326C810.67 411.872 804.414 416.719 797.288 419.868C790.245 423.017 782.29 424.591 773.424 424.591Z" fill="#888888"/>
</svg>
