<svg width="497" height="451" viewBox="0 0 497 451" fill="none" xmlns="http://www.w3.org/2000/svg">
<path d="M147.159 274.946V162.091H176.491V353H147.159V320.685H145.17C140.696 330.379 133.736 338.624 124.29 345.418C114.844 352.13 102.912 355.486 88.4943 355.486C76.5625 355.486 65.9564 352.876 56.6761 347.656C47.3958 342.353 40.1042 334.398 34.8011 323.792C29.4981 313.103 26.8466 299.638 26.8466 283.398V162.091H56.179V281.409C56.179 295.33 60.0734 306.433 67.8622 314.719C75.7339 323.005 85.7599 327.148 97.9403 327.148C105.232 327.148 112.648 325.283 120.188 321.555C127.811 317.826 134.192 312.109 139.329 304.403C144.549 296.697 147.159 286.878 147.159 274.946ZM313.241 162.091V186.949H214.307V162.091H313.241ZM243.142 116.352H272.474V298.312C272.474 306.598 273.676 312.813 276.079 316.956C278.564 321.016 281.713 323.75 285.525 325.159C289.419 326.485 293.521 327.148 297.829 327.148C301.061 327.148 303.712 326.982 305.784 326.651C307.855 326.236 309.513 325.905 310.756 325.656L316.721 352.006C314.733 352.751 311.957 353.497 308.394 354.243C304.831 355.071 300.315 355.486 294.846 355.486C286.56 355.486 278.44 353.704 270.486 350.141C262.614 346.578 256.068 341.151 250.848 333.859C245.711 326.568 243.142 317.37 243.142 306.267V116.352ZM357.364 353V162.091H386.697V353H357.364ZM372.279 130.273C366.562 130.273 361.631 128.326 357.488 124.431C353.428 120.537 351.398 115.855 351.398 110.386C351.398 104.918 353.428 100.236 357.488 96.3416C361.631 92.4472 366.562 90.5 372.279 90.5C377.996 90.5 382.885 92.4472 386.945 96.3416C391.088 100.236 393.16 104.918 393.16 110.386C393.16 115.855 391.088 120.537 386.945 124.431C382.885 128.326 377.996 130.273 372.279 130.273ZM469.753 98.4545V353H440.421V98.4545H469.753Z" fill="#888888"/>
</svg>
