<svg width="2142" height="451" viewBox="0 0 2142 451" fill="none" xmlns="http://www.w3.org/2000/svg">
<path d="M26.8466 353V162.091H56.179V353H26.8466ZM41.7614 130.273C36.044 130.273 31.1139 128.326 26.9709 124.431C22.9107 120.537 20.8807 115.855 20.8807 110.386C20.8807 104.918 22.9107 100.236 26.9709 96.3416C31.1139 92.4472 36.044 90.5 41.7614 90.5C47.4787 90.5 52.3674 92.4472 56.4276 96.3416C60.5706 100.236 62.642 104.918 62.642 110.386C62.642 115.855 60.5706 120.537 56.4276 124.431C52.3674 128.326 47.4787 130.273 41.7614 130.273ZM139.236 238.156V353H109.903V162.091H138.241V191.92H140.727C145.202 182.226 151.996 174.437 161.111 168.554C170.225 162.588 181.991 159.605 196.409 159.605C209.335 159.605 220.645 162.257 230.34 167.56C240.035 172.78 247.575 180.734 252.961 191.423C258.347 202.029 261.04 215.453 261.04 231.693V353H231.707V233.682C231.707 218.684 227.813 207.001 220.024 198.632C212.235 190.18 201.546 185.955 187.957 185.955C178.594 185.955 170.225 187.985 162.851 192.045C155.559 196.105 149.8 202.029 145.574 209.818C141.349 217.607 139.236 227.053 139.236 238.156ZM399.654 162.091V186.949H296.742V162.091H399.654ZM327.566 353V135.741C327.566 124.804 330.134 115.689 335.272 108.398C340.409 101.106 347.079 95.6373 355.282 91.9915C363.485 88.3456 372.144 86.5227 381.259 86.5227C388.468 86.5227 394.351 87.1027 398.908 88.2628C403.465 89.4228 406.863 90.5 409.1 91.4943L400.648 116.849C399.157 116.352 397.085 115.731 394.434 114.985C391.865 114.239 388.468 113.866 384.242 113.866C374.547 113.866 367.546 116.311 363.237 121.2C359.011 126.088 356.898 133.256 356.898 142.702V353H327.566ZM510.458 356.977C493.223 356.977 478.101 352.876 465.092 344.673C452.166 336.469 442.057 324.993 434.766 310.244C427.557 295.495 423.952 278.26 423.952 258.54C423.952 238.653 427.557 221.294 434.766 206.462C442.057 191.63 452.166 180.113 465.092 171.91C478.101 163.707 493.223 159.605 510.458 159.605C527.693 159.605 542.773 163.707 555.7 171.91C568.709 180.113 578.817 191.63 586.026 206.462C593.318 221.294 596.964 238.653 596.964 258.54C596.964 278.26 593.318 295.495 586.026 310.244C578.817 324.993 568.709 336.469 555.7 344.673C542.773 352.876 527.693 356.977 510.458 356.977ZM510.458 330.628C523.55 330.628 534.322 327.272 542.773 320.56C551.225 313.849 557.481 305.024 561.541 294.087C565.601 283.149 567.631 271.3 567.631 258.54C567.631 245.779 565.601 233.889 561.541 222.869C557.481 211.848 551.225 202.941 542.773 196.146C534.322 189.352 523.55 185.955 510.458 185.955C497.366 185.955 486.594 189.352 478.143 196.146C469.691 202.941 463.435 211.848 459.375 222.869C455.315 233.889 453.285 245.779 453.285 258.54C453.285 271.3 455.315 283.149 459.375 294.087C463.435 305.024 469.691 313.849 478.143 320.56C486.594 327.272 497.366 330.628 510.458 330.628ZM751.114 230.202V257.545H639.751V230.202H751.114ZM882.768 356.977C864.373 356.977 848.506 352.917 835.165 344.797C821.908 336.594 811.674 325.159 804.466 310.493C797.34 295.744 793.777 278.592 793.777 259.037C793.777 239.482 797.34 222.247 804.466 207.332C811.674 192.335 821.7 180.652 834.544 172.283C847.47 163.831 862.55 159.605 879.785 159.605C889.728 159.605 899.547 161.262 909.242 164.577C918.936 167.891 927.761 173.277 935.716 180.734C943.67 188.109 950.009 197.886 954.732 210.067C959.455 222.247 961.816 237.245 961.816 255.06V267.489H814.657V242.134H931.987C931.987 231.362 929.833 221.75 925.524 213.298C921.298 204.847 915.249 198.176 907.377 193.288C899.589 188.399 890.391 185.955 879.785 185.955C868.102 185.955 857.993 188.855 849.458 194.655C841.007 200.372 834.502 207.83 829.945 217.027C825.388 226.224 823.109 236.085 823.109 246.608V263.511C823.109 277.929 825.595 290.151 830.566 300.177C835.621 310.12 842.623 317.702 851.571 322.922C860.52 328.059 870.919 330.628 882.768 330.628C890.474 330.628 897.434 329.551 903.649 327.396C909.946 325.159 915.373 321.845 919.931 317.453C924.488 312.979 928.01 307.427 930.495 300.798L958.833 308.753C955.851 318.365 950.837 326.816 943.794 334.108C936.751 341.317 928.051 346.951 917.694 351.011C907.336 354.989 895.694 356.977 882.768 356.977ZM1023.18 162.091L1068.92 240.145L1114.66 162.091H1148.47L1086.82 257.545L1148.47 353H1114.66L1068.92 278.923L1023.18 353H989.378L1050.03 257.545L989.378 162.091H1023.18ZM1190.32 424.591V162.091H1218.66V192.418H1222.14C1224.3 189.103 1227.28 184.877 1231.09 179.74C1234.98 174.52 1240.54 169.88 1247.75 165.82C1255.04 161.677 1264.9 159.605 1277.33 159.605C1293.4 159.605 1307.57 163.624 1319.83 171.661C1332.1 179.699 1341.67 191.092 1348.54 205.841C1355.42 220.59 1358.86 237.991 1358.86 258.043C1358.86 278.26 1355.42 295.785 1348.54 310.617C1341.67 325.366 1332.14 336.801 1319.96 344.921C1307.78 352.959 1293.73 356.977 1277.82 356.977C1265.56 356.977 1255.74 354.947 1248.37 350.887C1240.99 346.744 1235.32 342.062 1231.34 336.842C1227.36 331.539 1224.3 327.148 1222.14 323.668H1219.66V424.591H1190.32ZM1219.16 257.545C1219.16 271.963 1221.27 284.682 1225.5 295.702C1229.72 306.64 1235.9 315.216 1244.02 321.43C1252.14 327.562 1262.08 330.628 1273.85 330.628C1286.11 330.628 1296.34 327.396 1304.55 320.933C1312.83 314.387 1319.05 305.604 1323.19 294.584C1327.41 283.481 1329.53 271.134 1329.53 257.545C1329.53 244.122 1327.46 232.025 1323.31 221.253C1319.25 210.398 1313.08 201.822 1304.79 195.525C1296.59 189.145 1286.27 185.955 1273.85 185.955C1261.91 185.955 1251.89 188.979 1243.77 195.028C1235.65 200.994 1229.52 209.362 1225.37 220.134C1221.23 230.823 1219.16 243.294 1219.16 257.545ZM1432.94 98.4545V353H1403.6V98.4545H1432.94ZM1564.22 356.977C1546.98 356.977 1531.86 352.876 1518.85 344.673C1505.93 336.469 1495.82 324.993 1488.53 310.244C1481.32 295.495 1477.71 278.26 1477.71 258.54C1477.71 238.653 1481.32 221.294 1488.53 206.462C1495.82 191.63 1505.93 180.113 1518.85 171.91C1531.86 163.707 1546.98 159.605 1564.22 159.605C1581.45 159.605 1596.53 163.707 1609.46 171.91C1622.47 180.113 1632.58 191.63 1639.79 206.462C1647.08 221.294 1650.72 238.653 1650.72 258.54C1650.72 278.26 1647.08 295.495 1639.79 310.244C1632.58 324.993 1622.47 336.469 1609.46 344.673C1596.53 352.876 1581.45 356.977 1564.22 356.977ZM1564.22 330.628C1577.31 330.628 1588.08 327.272 1596.53 320.56C1604.98 313.849 1611.24 305.024 1615.3 294.087C1619.36 283.149 1621.39 271.3 1621.39 258.54C1621.39 245.779 1619.36 233.889 1615.3 222.869C1611.24 211.848 1604.98 202.941 1596.53 196.146C1588.08 189.352 1577.31 185.955 1564.22 185.955C1551.13 185.955 1540.35 189.352 1531.9 196.146C1523.45 202.941 1517.19 211.848 1513.13 222.869C1509.07 233.889 1507.04 245.779 1507.04 258.54C1507.04 271.3 1509.07 283.149 1513.13 294.087C1517.19 305.024 1523.45 313.849 1531.9 320.56C1540.35 327.272 1551.13 330.628 1564.22 330.628ZM1695.5 353V162.091H1723.84V190.926H1725.83C1729.31 181.48 1735.6 173.816 1744.72 167.933C1753.83 162.049 1764.11 159.108 1775.54 159.108C1777.7 159.108 1780.39 159.149 1783.62 159.232C1786.85 159.315 1789.3 159.439 1790.95 159.605V189.435C1789.96 189.186 1787.68 188.813 1784.12 188.316C1780.64 187.736 1776.95 187.446 1773.06 187.446C1763.78 187.446 1755.49 189.393 1748.2 193.288C1740.99 197.099 1735.27 202.402 1731.05 209.197C1726.9 215.908 1724.83 223.573 1724.83 232.19V353H1695.5ZM1899.96 356.977C1881.56 356.977 1865.69 352.917 1852.35 344.797C1839.1 336.594 1828.86 325.159 1821.65 310.493C1814.53 295.744 1810.96 278.592 1810.96 259.037C1810.96 239.482 1814.53 222.247 1821.65 207.332C1828.86 192.335 1838.89 180.652 1851.73 172.283C1864.66 163.831 1879.74 159.605 1896.97 159.605C1906.92 159.605 1916.73 161.262 1926.43 164.577C1936.12 167.891 1944.95 173.277 1952.9 180.734C1960.86 188.109 1967.2 197.886 1971.92 210.067C1976.64 222.247 1979 237.245 1979 255.06V267.489H1831.84V242.134H1949.17C1949.17 231.362 1947.02 221.75 1942.71 213.298C1938.49 204.847 1932.44 198.176 1924.56 193.288C1916.78 188.399 1907.58 185.955 1896.97 185.955C1885.29 185.955 1875.18 188.855 1866.65 194.655C1858.19 200.372 1851.69 207.83 1847.13 217.027C1842.58 226.224 1840.3 236.085 1840.3 246.608V263.511C1840.3 277.929 1842.78 290.151 1847.75 300.177C1852.81 310.12 1859.81 317.702 1868.76 322.922C1877.71 328.059 1888.11 330.628 1899.96 330.628C1907.66 330.628 1914.62 329.551 1920.84 327.396C1927.13 325.159 1932.56 321.845 1937.12 317.453C1941.68 312.979 1945.2 307.427 1947.68 300.798L1976.02 308.753C1973.04 318.365 1968.02 326.816 1960.98 334.108C1953.94 341.317 1945.24 346.951 1934.88 351.011C1924.52 354.989 1912.88 356.977 1899.96 356.977ZM2023.62 353V162.091H2051.96V190.926H2053.95C2057.43 181.48 2063.73 173.816 2072.84 167.933C2081.96 162.049 2092.23 159.108 2103.67 159.108C2105.82 159.108 2108.51 159.149 2111.75 159.232C2114.98 159.315 2117.42 159.439 2119.08 159.605V189.435C2118.08 189.186 2115.81 188.813 2112.24 188.316C2108.76 187.736 2105.08 187.446 2101.18 187.446C2091.9 187.446 2083.61 189.393 2076.32 193.288C2069.11 197.099 2063.4 202.402 2059.17 209.197C2055.03 215.908 2052.96 223.573 2052.96 232.19V353H2023.62Z" fill="#888888"/>
</svg>
