<svg width="2092" height="451" viewBox="0 0 2092 451" fill="none" xmlns="http://www.w3.org/2000/svg">
<path d="M70.0994 353L11.9318 162.091H42.7557L84.0199 308.256H86.0085L126.776 162.091H158.097L198.366 307.759H200.355L241.619 162.091H272.443L214.276 353H185.44L143.679 206.338H140.696L98.9347 353H70.0994ZM382.284 356.977C365.049 356.977 349.928 352.876 336.919 344.673C323.992 336.469 313.883 324.993 306.592 310.244C299.383 295.495 295.779 278.26 295.779 258.54C295.779 238.653 299.383 221.294 306.592 206.462C313.883 191.63 323.992 180.113 336.919 171.91C349.928 163.707 365.049 159.605 382.284 159.605C399.519 159.605 414.6 163.707 427.526 171.91C440.535 180.113 450.644 191.63 457.852 206.462C465.144 221.294 468.79 238.653 468.79 258.54C468.79 278.26 465.144 295.495 457.852 310.244C450.644 324.993 440.535 336.469 427.526 344.673C414.6 352.876 399.519 356.977 382.284 356.977ZM382.284 330.628C395.376 330.628 406.148 327.272 414.6 320.56C423.051 313.849 429.307 305.024 433.367 294.087C437.428 283.149 439.458 271.3 439.458 258.54C439.458 245.779 437.428 233.889 433.367 222.869C429.307 211.848 423.051 202.941 414.6 196.146C406.148 189.352 395.376 185.955 382.284 185.955C369.192 185.955 358.421 189.352 349.969 196.146C341.517 202.941 335.261 211.848 331.201 222.869C327.141 233.889 325.111 245.779 325.111 258.54C325.111 271.3 327.141 283.149 331.201 294.087C335.261 305.024 341.517 313.849 349.969 320.56C358.421 327.272 369.192 330.628 382.284 330.628ZM513.565 353V162.091H541.903V190.926H543.892C547.372 181.48 553.67 173.816 562.784 167.933C571.899 162.049 582.173 159.108 593.608 159.108C595.762 159.108 598.455 159.149 601.687 159.232C604.918 159.315 607.363 159.439 609.02 159.605V189.435C608.026 189.186 605.747 188.813 602.184 188.316C598.704 187.736 595.017 187.446 591.122 187.446C581.842 187.446 573.556 189.393 566.264 193.288C559.055 197.099 553.338 202.402 549.112 209.197C544.969 215.908 542.898 223.573 542.898 232.19V353H513.565ZM671.134 283.398L670.637 247.105H676.602L760.125 162.091H796.418L707.426 252.077H704.941L671.134 283.398ZM643.79 353V98.4545H673.122V353H643.79ZM765.097 353L690.523 258.54L711.404 238.156L802.384 353H765.097ZM906.352 356.977C887.957 356.977 872.09 352.917 858.749 344.797C845.492 336.594 835.258 325.159 828.05 310.493C820.924 295.744 817.361 278.592 817.361 259.037C817.361 239.482 820.924 222.247 828.05 207.332C835.258 192.335 845.284 180.652 858.128 172.283C871.054 163.831 886.134 159.605 903.369 159.605C913.312 159.605 923.131 161.262 932.826 164.577C942.52 167.891 951.345 173.277 959.3 180.734C967.254 188.109 973.593 197.886 978.316 210.067C983.039 222.247 985.4 237.245 985.4 255.06V267.489H838.241V242.134H955.571C955.571 231.362 953.416 221.75 949.108 213.298C944.882 204.847 938.833 198.176 930.961 193.288C923.173 188.399 913.975 185.955 903.369 185.955C891.686 185.955 881.577 188.855 873.042 194.655C864.591 200.372 858.086 207.83 853.529 217.027C848.972 226.224 846.693 236.085 846.693 246.608V263.511C846.693 277.929 849.179 290.151 854.15 300.177C859.205 310.12 866.207 317.702 875.155 322.922C884.104 328.059 894.503 330.628 906.352 330.628C914.058 330.628 921.018 329.551 927.233 327.396C933.53 325.159 938.957 321.845 943.515 317.453C948.072 312.979 951.594 307.427 954.079 300.798L982.417 308.753C979.434 318.365 974.421 326.816 967.378 334.108C960.335 341.317 951.635 346.951 941.278 351.011C930.92 354.989 919.278 356.977 906.352 356.977ZM1030.02 353V162.091H1058.36V190.926H1060.35C1063.83 181.48 1070.12 173.816 1079.24 167.933C1088.35 162.049 1098.63 159.108 1110.06 159.108C1112.22 159.108 1114.91 159.149 1118.14 159.232C1121.37 159.315 1123.82 159.439 1125.47 159.605V189.435C1124.48 189.186 1122.2 188.813 1118.64 188.316C1115.16 187.736 1111.47 187.446 1107.58 187.446C1098.3 187.446 1090.01 189.393 1082.72 193.288C1075.51 197.099 1069.79 202.402 1065.57 209.197C1061.42 215.908 1059.35 223.573 1059.35 232.19V353H1030.02ZM1255.61 230.202V257.545H1144.24V230.202H1255.61ZM1307.22 353V162.091H1335.56V190.926H1337.54C1341.02 181.48 1347.32 173.816 1356.44 167.933C1365.55 162.049 1375.83 159.108 1387.26 159.108C1389.41 159.108 1392.11 159.149 1395.34 159.232C1398.57 159.315 1401.02 159.439 1402.67 159.605V189.435C1401.68 189.186 1399.4 188.813 1395.84 188.316C1392.36 187.736 1388.67 187.446 1384.77 187.446C1375.49 187.446 1367.21 189.393 1359.92 193.288C1352.71 197.099 1346.99 202.402 1342.76 209.197C1338.62 215.908 1336.55 223.573 1336.55 232.19V353H1307.22ZM1572.67 204.847L1546.32 212.304C1544.66 207.912 1542.22 203.645 1538.99 199.502C1535.84 195.276 1531.53 191.796 1526.06 189.062C1520.59 186.327 1513.59 184.96 1505.06 184.96C1493.37 184.96 1483.64 187.653 1475.85 193.039C1468.14 198.342 1464.29 205.095 1464.29 213.298C1464.29 220.59 1466.94 226.349 1472.24 230.575C1477.55 234.8 1485.83 238.322 1497.1 241.139L1525.44 248.099C1542.51 252.242 1555.23 258.581 1563.6 267.116C1571.97 275.567 1576.15 286.464 1576.15 299.804C1576.15 310.741 1573 320.519 1566.7 329.136C1560.49 337.754 1551.79 344.548 1540.6 349.52C1529.42 354.491 1516.41 356.977 1501.58 356.977C1482.1 356.977 1465.99 352.751 1453.23 344.3C1440.47 335.848 1432.39 323.502 1428.99 307.261L1456.83 300.301C1459.48 310.576 1464.5 318.282 1471.87 323.419C1479.33 328.556 1489.06 331.125 1501.08 331.125C1514.75 331.125 1525.61 328.225 1533.64 322.425C1541.76 316.542 1545.82 309.499 1545.82 301.295C1545.82 294.667 1543.5 289.115 1538.86 284.641C1534.22 280.083 1527.1 276.686 1517.48 274.449L1485.67 266.991C1468.18 262.848 1455.34 256.427 1447.14 247.727C1439.02 238.943 1434.96 227.964 1434.96 214.79C1434.96 204.018 1437.98 194.489 1444.03 186.203C1450.16 177.917 1458.49 171.413 1469.01 166.69C1479.62 161.967 1491.63 159.605 1505.06 159.605C1523.95 159.605 1538.78 163.748 1549.55 172.034C1560.41 180.32 1568.11 191.258 1572.67 204.847ZM1703.33 162.091V186.949H1604.39V162.091H1703.33ZM1633.23 116.352H1662.56V298.312C1662.56 306.598 1663.76 312.813 1666.17 316.956C1668.65 321.016 1671.8 323.75 1675.61 325.159C1679.51 326.485 1683.61 327.148 1687.92 327.148C1691.15 327.148 1693.8 326.982 1695.87 326.651C1697.94 326.236 1699.6 325.905 1700.84 325.656L1706.81 352.006C1704.82 352.751 1702.04 353.497 1698.48 354.243C1694.92 355.071 1690.4 355.486 1684.93 355.486C1676.65 355.486 1668.53 353.704 1660.57 350.141C1652.7 346.578 1646.16 341.151 1640.94 333.859C1635.8 326.568 1633.23 317.37 1633.23 306.267V116.352ZM1825.44 356.977C1807.05 356.977 1791.18 352.917 1777.84 344.797C1764.58 336.594 1754.35 325.159 1747.14 310.493C1740.02 295.744 1736.45 278.592 1736.45 259.037C1736.45 239.482 1740.02 222.247 1747.14 207.332C1754.35 192.335 1764.38 180.652 1777.22 172.283C1790.15 163.831 1805.23 159.605 1822.46 159.605C1832.4 159.605 1842.22 161.262 1851.92 164.577C1861.61 167.891 1870.44 173.277 1878.39 180.734C1886.35 188.109 1892.68 197.886 1897.41 210.067C1902.13 222.247 1904.49 237.245 1904.49 255.06V267.489H1757.33V242.134H1874.66C1874.66 231.362 1872.51 221.75 1868.2 213.298C1863.97 204.847 1857.92 198.176 1850.05 193.288C1842.26 188.399 1833.07 185.955 1822.46 185.955C1810.78 185.955 1800.67 188.855 1792.13 194.655C1783.68 200.372 1777.18 207.83 1772.62 217.027C1768.06 226.224 1765.78 236.085 1765.78 246.608V263.511C1765.78 277.929 1768.27 290.151 1773.24 300.177C1778.3 310.12 1785.3 317.702 1794.25 322.922C1803.2 328.059 1813.59 330.628 1825.44 330.628C1833.15 330.628 1840.11 329.551 1846.32 327.396C1852.62 325.159 1858.05 321.845 1862.61 317.453C1867.16 312.979 1870.69 307.427 1873.17 300.798L1901.51 308.753C1898.53 318.365 1893.51 326.816 1886.47 334.108C1879.43 341.317 1870.73 346.951 1860.37 351.011C1850.01 354.989 1838.37 356.977 1825.44 356.977ZM1949.11 353V162.091H1977.45V190.926H1979.44C1982.92 181.48 1989.22 173.816 1998.33 167.933C2007.45 162.049 2017.72 159.108 2029.15 159.108C2031.31 159.108 2034 159.149 2037.23 159.232C2040.47 159.315 2042.91 159.439 2044.57 159.605V189.435C2043.57 189.186 2041.29 188.813 2037.73 188.316C2034.25 187.736 2030.56 187.446 2026.67 187.446C2017.39 187.446 2009.1 189.393 2001.81 193.288C1994.6 197.099 1988.88 202.402 1984.66 209.197C1980.52 215.908 1978.44 223.573 1978.44 232.19V353H1949.11Z" fill="#888888"/>
</svg>
