<svg width="714" height="451" viewBox="0 0 714 451" fill="none" xmlns="http://www.w3.org/2000/svg">
<path d="M26.8466 424.591V162.091H55.1847V192.418H58.6648C60.8191 189.103 63.8021 184.877 67.6136 179.74C71.5081 174.52 77.0597 169.88 84.2685 165.82C91.5601 161.677 101.42 159.605 113.849 159.605C129.924 159.605 144.093 163.624 156.357 171.661C168.62 179.699 178.19 191.092 185.067 205.841C191.945 220.59 195.384 237.991 195.384 258.043C195.384 278.26 191.945 295.785 185.067 310.617C178.19 325.366 168.661 336.801 156.481 344.921C144.3 352.959 130.256 356.977 114.347 356.977C102.083 356.977 92.2644 354.947 84.8899 350.887C77.5154 346.744 71.8395 342.062 67.8622 336.842C63.8849 331.539 60.8191 327.148 58.6648 323.668H56.179V424.591H26.8466ZM55.6818 257.545C55.6818 271.963 57.7947 284.682 62.0206 295.702C66.2464 306.64 72.4195 315.216 80.5398 321.43C88.66 327.562 98.6032 330.628 110.369 330.628C122.633 330.628 132.866 327.396 141.069 320.933C149.355 314.387 155.569 305.604 159.712 294.584C163.938 283.481 166.051 271.134 166.051 257.545C166.051 244.122 163.98 232.025 159.837 221.253C155.777 210.398 149.603 201.822 141.317 195.525C133.114 189.145 122.798 185.955 110.369 185.955C98.4375 185.955 88.4115 188.979 80.2912 195.028C72.1709 200.994 66.0393 209.362 61.8963 220.134C57.7533 230.823 55.6818 243.294 55.6818 257.545ZM240.128 353V162.091H269.46V353H240.128ZM255.043 130.273C249.325 130.273 244.395 128.326 240.252 124.431C236.192 120.537 234.162 115.855 234.162 110.386C234.162 104.918 236.192 100.236 240.252 96.3416C244.395 92.4472 249.325 90.5 255.043 90.5C260.76 90.5 265.649 92.4472 269.709 96.3416C273.852 100.236 275.923 104.918 275.923 110.386C275.923 115.855 273.852 120.537 269.709 124.431C265.649 128.326 260.76 130.273 255.043 130.273ZM352.517 238.156V353H323.184V162.091H351.523V191.92H354.008C358.483 182.226 365.277 174.437 374.392 168.554C383.506 162.588 395.273 159.605 409.69 159.605C422.616 159.605 433.927 162.257 443.621 167.56C453.316 172.78 460.856 180.734 466.242 191.423C471.628 202.029 474.321 215.453 474.321 231.693V353H444.988V233.682C444.988 218.684 441.094 207.001 433.305 198.632C425.516 190.18 414.827 185.955 401.238 185.955C391.875 185.955 383.506 187.985 376.132 192.045C368.84 196.105 363.081 202.029 358.856 209.818C354.63 217.607 352.517 227.053 352.517 238.156ZM604.98 428.568C590.811 428.568 578.631 426.745 568.439 423.099C558.248 419.536 549.754 414.813 542.96 408.93C536.248 403.13 530.904 396.916 526.926 390.287L550.293 373.881C552.944 377.361 556.3 381.338 560.36 385.812C564.421 390.37 569.972 394.306 577.015 397.62C584.141 401.017 593.463 402.716 604.98 402.716C620.392 402.716 633.111 398.987 643.137 391.53C653.163 384.072 658.176 372.389 658.176 356.48V317.702H655.691C653.536 321.182 650.471 325.491 646.493 330.628C642.599 335.682 636.964 340.198 629.59 344.175C622.298 348.07 612.438 350.017 600.009 350.017C584.597 350.017 570.759 346.371 558.496 339.08C546.316 331.788 536.663 321.182 529.537 307.261C522.493 293.341 518.972 276.437 518.972 256.551C518.972 236.996 522.411 219.969 529.288 205.468C536.165 190.885 545.736 179.616 557.999 171.661C570.262 163.624 584.431 159.605 600.506 159.605C612.935 159.605 622.795 161.677 630.087 165.82C637.462 169.88 643.096 174.52 646.99 179.74C650.968 184.877 654.034 189.103 656.188 192.418H659.171V162.091H687.509V358.469C687.509 374.875 683.78 388.215 676.323 398.49C668.948 408.848 659.005 416.429 646.493 421.235C634.064 426.124 620.227 428.568 604.98 428.568ZM603.986 323.668C615.752 323.668 625.695 320.975 633.816 315.589C641.936 310.203 648.109 302.455 652.335 292.347C656.561 282.238 658.674 270.14 658.674 256.054C658.674 242.299 656.602 230.16 652.459 219.637C648.316 209.114 642.185 200.869 634.064 194.903C625.944 188.937 615.918 185.955 603.986 185.955C591.557 185.955 581.2 189.103 572.914 195.401C564.711 201.698 558.538 210.15 554.395 220.756C550.334 231.362 548.304 243.128 548.304 256.054C548.304 269.312 550.376 281.036 554.519 291.228C558.745 301.337 564.959 309.291 573.162 315.092C581.448 320.809 591.723 323.668 603.986 323.668Z" fill="#888888"/>
</svg>
