<svg width="1649" height="451" viewBox="0 0 1649 451" fill="none" xmlns="http://www.w3.org/2000/svg">
<path d="M103.906 428.568C89.7372 428.568 77.5568 426.745 67.3651 423.099C57.1733 419.536 48.6802 414.813 41.8857 408.93C35.174 403.13 29.8295 396.916 25.8523 390.287L49.2188 373.881C51.8703 377.361 55.2261 381.338 59.2862 385.812C63.3464 390.37 68.898 394.306 75.9411 397.62C83.067 401.017 92.3887 402.716 103.906 402.716C119.318 402.716 132.037 398.987 142.063 391.53C152.089 384.072 157.102 372.389 157.102 356.48V317.702H154.616C152.462 321.182 149.396 325.491 145.419 330.628C141.525 335.682 135.89 340.198 128.516 344.175C121.224 348.07 111.364 350.017 98.9347 350.017C83.5227 350.017 69.6851 346.371 57.4219 339.08C45.2415 331.788 35.5883 321.182 28.4624 307.261C21.4193 293.341 17.8977 276.437 17.8977 256.551C17.8977 236.996 21.3364 219.969 28.2138 205.468C35.0911 190.885 44.6615 179.616 56.9247 171.661C69.188 163.624 83.357 159.605 99.4318 159.605C111.861 159.605 121.721 161.677 129.013 165.82C136.387 169.88 142.022 174.52 145.916 179.74C149.893 184.877 152.959 189.103 155.114 192.418H158.097V162.091H186.435V358.469C186.435 374.875 182.706 388.215 175.249 398.49C167.874 408.848 157.931 416.429 145.419 421.235C132.99 426.124 119.152 428.568 103.906 428.568ZM102.912 323.668C114.678 323.668 124.621 320.975 132.741 315.589C140.862 310.203 147.035 302.455 151.261 292.347C155.487 282.238 157.599 270.14 157.599 256.054C157.599 242.299 155.528 230.16 151.385 219.637C147.242 209.114 141.11 200.869 132.99 194.903C124.87 188.937 114.844 185.955 102.912 185.955C90.483 185.955 80.1255 189.103 71.8395 195.401C63.6364 201.698 57.4633 210.15 53.3203 220.756C49.2602 231.362 47.2301 243.128 47.2301 256.054C47.2301 269.312 49.3016 281.036 53.4446 291.228C57.6705 301.337 63.8849 309.291 72.0881 315.092C80.3741 320.809 90.6487 323.668 102.912 323.668ZM320.17 356.977C301.776 356.977 285.908 352.917 272.567 344.797C259.31 336.594 249.077 325.159 241.868 310.493C234.742 295.744 231.179 278.592 231.179 259.037C231.179 239.482 234.742 222.247 241.868 207.332C249.077 192.335 259.103 180.652 271.946 172.283C284.872 163.831 299.953 159.605 317.188 159.605C327.131 159.605 336.95 161.262 346.644 164.577C356.339 167.891 365.163 173.277 373.118 180.734C381.072 188.109 387.411 197.886 392.134 210.067C396.857 222.247 399.219 237.245 399.219 255.06V267.489H252.06V242.134H369.389C369.389 231.362 367.235 221.75 362.926 213.298C358.7 204.847 352.652 198.176 344.78 193.288C336.991 188.399 327.794 185.955 317.188 185.955C305.504 185.955 295.395 188.855 286.861 194.655C278.409 200.372 271.905 207.83 267.347 217.027C262.79 226.224 260.511 236.085 260.511 246.608V263.511C260.511 277.929 262.997 290.151 267.969 300.177C273.023 310.12 280.025 317.702 288.974 322.922C297.923 328.059 308.322 330.628 320.17 330.628C327.876 330.628 334.837 329.551 341.051 327.396C347.348 325.159 352.776 321.845 357.333 317.453C361.89 312.979 365.412 307.427 367.898 300.798L396.236 308.753C393.253 318.365 388.24 326.816 381.197 334.108C374.154 341.317 365.453 346.951 355.096 351.011C344.738 354.989 333.097 356.977 320.17 356.977ZM473.171 238.156V353H443.839V162.091H472.177V191.92H474.663C479.137 182.226 485.932 174.437 495.046 168.554C504.161 162.588 515.927 159.605 530.344 159.605C543.271 159.605 554.581 162.257 564.276 167.56C573.97 172.78 581.51 180.734 586.896 191.423C592.282 202.029 594.975 215.453 594.975 231.693V353H565.643V233.682C565.643 218.684 561.748 207.001 553.96 198.632C546.171 190.18 535.482 185.955 521.893 185.955C512.53 185.955 504.161 187.985 496.786 192.045C489.495 196.105 483.736 202.029 479.51 209.818C475.284 217.607 473.171 227.053 473.171 238.156ZM728.618 356.977C710.223 356.977 694.355 352.917 681.015 344.797C667.757 336.594 657.524 325.159 650.315 310.493C643.189 295.744 639.626 278.592 639.626 259.037C639.626 239.482 643.189 222.247 650.315 207.332C657.524 192.335 667.55 180.652 680.393 172.283C693.319 163.831 708.4 159.605 725.635 159.605C735.578 159.605 745.397 161.262 755.091 164.577C764.786 167.891 773.611 173.277 781.565 180.734C789.52 188.109 795.858 197.886 800.582 210.067C805.305 222.247 807.666 237.245 807.666 255.06V267.489H660.507V242.134H777.836C777.836 231.362 775.682 221.75 771.373 213.298C767.148 204.847 761.099 198.176 753.227 193.288C745.438 188.399 736.241 185.955 725.635 185.955C713.952 185.955 703.843 188.855 695.308 194.655C686.856 200.372 680.352 207.83 675.795 217.027C671.237 226.224 668.959 236.085 668.959 246.608V263.511C668.959 277.929 671.444 290.151 676.416 300.177C681.47 310.12 688.472 317.702 697.421 322.922C706.37 328.059 716.769 330.628 728.618 330.628C736.324 330.628 743.284 329.551 749.498 327.396C755.796 325.159 761.223 321.845 765.78 317.453C770.338 312.979 773.859 307.427 776.345 300.798L804.683 308.753C801.7 318.365 796.687 326.816 789.644 334.108C782.601 341.317 773.901 346.951 763.543 351.011C753.186 354.989 741.544 356.977 728.618 356.977ZM852.286 353V162.091H880.624V190.926H882.613C886.093 181.48 892.39 173.816 901.505 167.933C910.619 162.049 920.894 159.108 932.329 159.108C934.483 159.108 937.176 159.149 940.407 159.232C943.639 159.315 946.083 159.439 947.741 159.605V189.435C946.746 189.186 944.468 188.813 940.905 188.316C937.425 187.736 933.737 187.446 929.843 187.446C920.563 187.446 912.277 189.393 904.985 193.288C897.776 197.099 892.059 202.402 887.833 209.197C883.69 215.908 881.618 223.573 881.618 232.19V353H852.286ZM1038.69 357.474C1026.59 357.474 1015.61 355.196 1005.75 350.638C995.893 345.998 988.062 339.328 982.262 330.628C976.462 321.845 973.562 311.239 973.562 298.81C973.562 287.872 975.716 279.006 980.025 272.212C984.334 265.334 990.092 259.948 997.301 256.054C1004.51 252.16 1012.46 249.259 1021.16 247.354C1029.95 245.365 1038.77 243.791 1047.64 242.631C1059.24 241.139 1068.64 240.021 1075.85 239.275C1083.14 238.446 1088.45 237.079 1091.76 235.173C1095.16 233.268 1096.86 229.953 1096.86 225.23V224.236C1096.86 211.973 1093.5 202.444 1086.79 195.649C1080.16 188.855 1070.09 185.457 1056.59 185.457C1042.58 185.457 1031.61 188.523 1023.65 194.655C1015.7 200.786 1010.1 207.332 1006.87 214.293L979.031 204.349C984.002 192.749 990.631 183.717 998.917 177.254C1007.29 170.708 1016.4 166.151 1026.26 163.582C1036.2 160.931 1045.98 159.605 1055.59 159.605C1061.72 159.605 1068.77 160.351 1076.72 161.842C1084.76 163.251 1092.51 166.192 1099.96 170.667C1107.5 175.141 1113.76 181.894 1118.73 190.926C1123.7 199.958 1126.19 212.055 1126.19 227.219V353H1096.86V327.148H1095.37C1093.38 331.291 1090.06 335.724 1085.42 340.447C1080.78 345.17 1074.61 349.188 1066.9 352.503C1059.2 355.817 1049.79 357.474 1038.69 357.474ZM1043.16 331.125C1054.76 331.125 1064.54 328.846 1072.5 324.289C1080.53 319.732 1086.58 313.849 1090.64 306.64C1094.79 299.431 1096.86 291.849 1096.86 283.895V257.048C1095.61 258.54 1092.88 259.907 1088.65 261.15C1084.51 262.31 1079.71 263.346 1074.24 264.257C1068.85 265.086 1063.59 265.831 1058.45 266.494C1053.4 267.074 1049.3 267.571 1046.15 267.986C1038.52 268.98 1031.4 270.596 1024.77 272.833C1018.22 274.987 1012.92 278.26 1008.86 282.652C1004.88 286.961 1002.89 292.844 1002.89 300.301C1002.89 310.493 1006.66 318.199 1014.2 323.419C1021.83 328.556 1031.48 331.125 1043.16 331.125ZM1262.75 162.091V186.949H1163.82V162.091H1262.75ZM1192.65 116.352H1221.99V298.312C1221.99 306.598 1223.19 312.813 1225.59 316.956C1228.08 321.016 1231.22 323.75 1235.04 325.159C1238.93 326.485 1243.03 327.148 1247.34 327.148C1250.57 327.148 1253.22 326.982 1255.3 326.651C1257.37 326.236 1259.02 325.905 1260.27 325.656L1266.23 352.006C1264.24 352.751 1261.47 353.497 1257.91 354.243C1254.34 355.071 1249.83 355.486 1244.36 355.486C1236.07 355.486 1227.95 353.704 1220 350.141C1212.13 346.578 1205.58 341.151 1200.36 333.859C1195.22 326.568 1192.65 317.37 1192.65 306.267V116.352ZM1382.38 356.977C1365.15 356.977 1350.03 352.876 1337.02 344.673C1324.09 336.469 1313.98 324.993 1306.69 310.244C1299.48 295.495 1295.88 278.26 1295.88 258.54C1295.88 238.653 1299.48 221.294 1306.69 206.462C1313.98 191.63 1324.09 180.113 1337.02 171.91C1350.03 163.707 1365.15 159.605 1382.38 159.605C1399.62 159.605 1414.7 163.707 1427.62 171.91C1440.63 180.113 1450.74 191.63 1457.95 206.462C1465.24 221.294 1468.89 238.653 1468.89 258.54C1468.89 278.26 1465.24 295.495 1457.95 310.244C1450.74 324.993 1440.63 336.469 1427.62 344.673C1414.7 352.876 1399.62 356.977 1382.38 356.977ZM1382.38 330.628C1395.47 330.628 1406.25 327.272 1414.7 320.56C1423.15 313.849 1429.4 305.024 1433.47 294.087C1437.53 283.149 1439.56 271.3 1439.56 258.54C1439.56 245.779 1437.53 233.889 1433.47 222.869C1429.4 211.848 1423.15 202.941 1414.7 196.146C1406.25 189.352 1395.47 185.955 1382.38 185.955C1369.29 185.955 1358.52 189.352 1350.07 196.146C1341.61 202.941 1335.36 211.848 1331.3 222.869C1327.24 233.889 1325.21 245.779 1325.21 258.54C1325.21 271.3 1327.24 283.149 1331.3 294.087C1335.36 305.024 1341.61 313.849 1350.07 320.56C1358.52 327.272 1369.29 330.628 1382.38 330.628ZM1513.66 353V162.091H1542V190.926H1543.99C1547.47 181.48 1553.77 173.816 1562.88 167.933C1572 162.049 1582.27 159.108 1593.71 159.108C1595.86 159.108 1598.55 159.149 1601.78 159.232C1605.02 159.315 1607.46 159.439 1609.12 159.605V189.435C1608.12 189.186 1605.84 188.813 1602.28 188.316C1598.8 187.736 1595.11 187.446 1591.22 187.446C1581.94 187.446 1573.65 189.393 1566.36 193.288C1559.15 197.099 1553.44 202.402 1549.21 209.197C1545.07 215.908 1543 223.573 1543 232.19V353H1513.66Z" fill="#888888"/>
</svg>
