<svg width="922" height="451" viewBox="0 0 922 451" fill="none" xmlns="http://www.w3.org/2000/svg">
<path d="M109.872 162.091V186.949H10.9375V162.091H109.872ZM39.7727 116.352H69.1051V298.312C69.1051 306.598 70.3066 312.813 72.7095 316.956C75.1953 321.016 78.344 323.75 82.1555 325.159C86.05 326.485 90.1515 327.148 94.4602 327.148C97.6918 327.148 100.343 326.982 102.415 326.651C104.486 326.236 106.143 325.905 107.386 325.656L113.352 352.006C111.364 352.751 108.588 353.497 105.025 354.243C101.462 355.071 96.946 355.486 91.4773 355.486C83.1913 355.486 75.071 353.704 67.1165 350.141C59.2448 346.578 52.6989 341.151 47.4787 333.859C42.3414 326.568 39.7727 317.37 39.7727 306.267V116.352ZM172.887 424.591C167.915 424.591 163.482 424.177 159.588 423.348C155.694 422.602 153.001 421.857 151.509 421.111L158.967 395.259C166.093 397.081 172.39 397.744 177.859 397.247C183.327 396.75 188.175 394.306 192.401 389.914C196.709 385.605 200.645 378.604 204.208 368.909L209.677 353.994L139.08 162.091H170.898L223.597 314.222H225.586L278.285 162.091H310.103L229.066 380.841C225.42 390.701 220.904 398.863 215.518 405.326C210.133 411.872 203.877 416.719 196.751 419.868C189.708 423.017 181.753 424.591 172.887 424.591ZM348.819 424.591V162.091H377.157V192.418H380.637C382.792 189.103 385.775 184.877 389.586 179.74C393.481 174.52 399.032 169.88 406.241 165.82C413.533 161.677 423.393 159.605 435.822 159.605C451.897 159.605 466.066 163.624 478.329 171.661C490.592 179.699 500.163 191.092 507.04 205.841C513.917 220.59 517.356 237.991 517.356 258.043C517.356 278.26 513.917 295.785 507.04 310.617C500.163 325.366 490.634 336.801 478.453 344.921C466.273 352.959 452.228 356.977 436.319 356.977C424.056 356.977 414.237 354.947 406.863 350.887C399.488 346.744 393.812 342.062 389.835 336.842C385.858 331.539 382.792 327.148 380.637 323.668H378.152V424.591H348.819ZM377.654 257.545C377.654 271.963 379.767 284.682 383.993 295.702C388.219 306.64 394.392 315.216 402.512 321.43C410.633 327.562 420.576 330.628 432.342 330.628C444.605 330.628 454.838 327.396 463.042 320.933C471.328 314.387 477.542 305.604 481.685 294.584C485.911 283.481 488.024 271.134 488.024 257.545C488.024 244.122 485.952 232.025 481.809 221.253C477.749 210.398 471.576 201.822 463.29 195.525C455.087 189.145 444.771 185.955 432.342 185.955C420.41 185.955 410.384 188.979 402.264 195.028C394.144 200.994 388.012 209.362 383.869 220.134C379.726 230.823 377.654 243.294 377.654 257.545ZM642.143 356.977C623.748 356.977 607.881 352.917 594.54 344.797C581.283 336.594 571.049 325.159 563.841 310.493C556.715 295.744 553.152 278.592 553.152 259.037C553.152 239.482 556.715 222.247 563.841 207.332C571.049 192.335 581.075 180.652 593.919 172.283C606.845 163.831 621.925 159.605 639.16 159.605C649.103 159.605 658.922 161.262 668.617 164.577C678.311 167.891 687.136 173.277 695.091 180.734C703.045 188.109 709.384 197.886 714.107 210.067C718.83 222.247 721.191 237.245 721.191 255.06V267.489H574.032V242.134H691.362C691.362 231.362 689.208 221.75 684.899 213.298C680.673 204.847 674.624 198.176 666.752 193.288C658.964 188.399 649.766 185.955 639.16 185.955C627.477 185.955 617.368 188.855 608.833 194.655C600.382 200.372 593.877 207.83 589.32 217.027C584.763 226.224 582.484 236.085 582.484 246.608V263.511C582.484 277.929 584.97 290.151 589.941 300.177C594.996 310.12 601.998 317.702 610.946 322.922C619.895 328.059 630.294 330.628 642.143 330.628C649.849 330.628 656.809 329.551 663.024 327.396C669.321 325.159 674.748 321.845 679.306 317.453C683.863 312.979 687.385 307.427 689.87 300.798L718.208 308.753C715.226 318.365 710.212 326.816 703.169 334.108C696.126 341.317 687.426 346.951 677.069 351.011C666.711 354.989 655.069 356.977 642.143 356.977ZM901.039 204.847L874.689 212.304C873.032 207.912 870.588 203.645 867.356 199.502C864.208 195.276 859.899 191.796 854.43 189.062C848.961 186.327 841.96 184.96 833.425 184.96C821.742 184.96 812.006 187.653 804.217 193.039C796.511 198.342 792.658 205.095 792.658 213.298C792.658 220.59 795.31 226.349 800.613 230.575C805.916 234.8 814.202 238.322 825.471 241.139L853.809 248.099C870.878 252.242 883.597 258.581 891.966 267.116C900.334 275.567 904.519 286.464 904.519 299.804C904.519 310.741 901.37 320.519 895.073 329.136C888.858 337.754 880.158 344.548 868.972 349.52C857.786 354.491 844.777 356.977 829.945 356.977C810.473 356.977 794.357 352.751 781.596 344.3C768.836 335.848 760.757 323.502 757.36 307.261L785.201 300.301C787.852 310.576 792.865 318.282 800.24 323.419C807.697 328.556 817.433 331.125 829.448 331.125C843.12 331.125 853.974 328.225 862.012 322.425C870.132 316.542 874.192 309.499 874.192 301.295C874.192 294.667 871.872 289.115 867.232 284.641C862.592 280.083 855.466 276.686 845.854 274.449L814.036 266.991C796.552 262.848 783.709 256.427 775.506 247.727C767.386 238.943 763.326 227.964 763.326 214.79C763.326 204.018 766.35 194.489 772.399 186.203C778.53 177.917 786.858 171.413 797.381 166.69C807.987 161.967 820.002 159.605 833.425 159.605C852.317 159.605 867.149 163.748 877.921 172.034C888.775 180.32 896.481 191.258 901.039 204.847Z" fill="#888888"/>
</svg>
