<svg width="1322" height="424" viewBox="0 0 1322 424" fill="none" xmlns="http://www.w3.org/2000/svg">
<path d="M576.727 339V148.091H605.066V176.926H607.054C610.534 167.48 616.832 159.816 625.946 153.933C635.061 148.049 645.335 145.108 656.77 145.108C658.924 145.108 661.617 145.149 664.849 145.232C668.08 145.315 670.525 145.439 672.182 145.605V175.435C671.188 175.186 668.909 174.813 665.346 174.316C661.866 173.736 658.179 173.446 654.284 173.446C645.004 173.446 636.718 175.393 629.426 179.288C622.218 183.099 616.5 188.402 612.274 195.197C608.131 201.908 606.06 209.573 606.06 218.19V339H576.727ZM842.179 190.847L815.83 198.304C814.173 193.912 811.728 189.645 808.497 185.502C805.348 181.276 801.039 177.796 795.571 175.062C790.102 172.327 783.1 170.96 774.566 170.96C762.882 170.96 753.146 173.653 745.358 179.039C737.652 184.342 733.799 191.095 733.799 199.298C733.799 206.59 736.45 212.349 741.753 216.575C747.056 220.8 755.342 224.322 766.611 227.139L794.949 234.099C812.018 238.242 824.737 244.581 833.106 253.116C841.475 261.567 845.659 272.464 845.659 285.804C845.659 296.741 842.511 306.519 836.213 315.136C829.999 323.754 821.299 330.548 810.113 335.52C798.926 340.491 785.917 342.977 771.086 342.977C751.614 342.977 735.497 338.751 722.737 330.3C709.976 321.848 701.898 309.502 698.5 293.261L726.341 286.301C728.993 296.576 734.006 304.282 741.38 309.419C748.838 314.556 758.574 317.125 770.588 317.125C784.26 317.125 795.115 314.225 803.152 308.425C811.273 302.542 815.333 295.499 815.333 287.295C815.333 280.667 813.013 275.115 808.373 270.641C803.732 266.083 796.606 262.686 786.995 260.449L755.176 252.991C737.693 248.848 724.85 242.427 716.647 233.727C708.526 224.943 704.466 213.964 704.466 200.79C704.466 190.018 707.491 180.489 713.539 172.203C719.671 163.917 727.998 157.413 738.522 152.69C749.128 147.967 761.142 145.605 774.566 145.605C793.458 145.605 808.29 149.748 819.061 158.034C829.916 166.32 837.622 177.258 842.179 190.847ZM972.839 148.091V172.949H873.904V148.091H972.839ZM902.74 102.352H932.072V284.312C932.072 292.598 933.273 298.813 935.676 302.956C938.162 307.016 941.311 309.75 945.122 311.159C949.017 312.485 953.118 313.148 957.427 313.148C960.659 313.148 963.31 312.982 965.382 312.651C967.453 312.236 969.11 311.905 970.353 311.656L976.319 338.006C974.33 338.751 971.555 339.497 967.992 340.243C964.429 341.071 959.913 341.486 954.444 341.486C946.158 341.486 938.038 339.704 930.083 336.141C922.212 332.578 915.666 327.151 910.445 319.859C905.308 312.568 902.74 303.37 902.74 292.267V102.352ZM1094.95 342.977C1076.56 342.977 1060.69 338.917 1047.35 330.797C1034.09 322.594 1023.86 311.159 1016.65 296.493C1009.53 281.744 1005.96 264.592 1005.96 245.037C1005.96 225.482 1009.53 208.247 1016.65 193.332C1023.86 178.335 1033.89 166.652 1046.73 158.283C1059.66 149.831 1074.74 145.605 1091.97 145.605C1101.91 145.605 1111.73 147.262 1121.43 150.577C1131.12 153.891 1139.95 159.277 1147.9 166.734C1155.86 174.109 1162.19 183.886 1166.92 196.067C1171.64 208.247 1174 223.245 1174 241.06V253.489H1026.84V228.134H1144.17C1144.17 217.362 1142.02 207.75 1137.71 199.298C1133.48 190.847 1127.43 184.176 1119.56 179.288C1111.77 174.399 1102.58 171.955 1091.97 171.955C1080.29 171.955 1070.18 174.855 1061.64 180.655C1053.19 186.372 1046.69 193.83 1042.13 203.027C1037.57 212.224 1035.29 222.085 1035.29 232.608V249.511C1035.29 263.929 1037.78 276.151 1042.75 286.177C1047.81 296.12 1054.81 303.702 1063.76 308.922C1072.71 314.059 1083.1 316.628 1094.95 316.628C1102.66 316.628 1109.62 315.551 1115.83 313.396C1122.13 311.159 1127.56 307.845 1132.12 303.453C1136.67 298.979 1140.2 293.427 1142.68 286.798L1171.02 294.753C1168.04 304.365 1163.02 312.816 1155.98 320.108C1148.94 327.317 1140.24 332.951 1129.88 337.011C1119.52 340.989 1107.88 342.977 1094.95 342.977ZM1218.62 339V148.091H1246.96V176.926H1248.95C1252.43 167.48 1258.73 159.816 1267.84 153.933C1276.96 148.049 1287.23 145.108 1298.66 145.108C1300.82 145.108 1303.51 145.149 1306.74 145.232C1309.97 145.315 1312.42 145.439 1314.08 145.605V175.435C1313.08 175.186 1310.8 174.813 1307.24 174.316C1303.76 173.736 1300.07 173.446 1296.18 173.446C1286.9 173.446 1278.61 175.393 1271.32 179.288C1264.11 183.099 1258.39 188.402 1254.17 195.197C1250.03 201.908 1247.95 209.573 1247.95 218.19V339H1218.62Z" fill="#888888"/>
<path d="M12.9261 232.111V216.699C26.7637 216.699 36.4169 213.799 41.8857 207.999C47.4373 202.198 50.2131 192.504 50.2131 178.915V139.142C50.2131 127.707 51.2903 117.806 53.4446 109.437C55.6818 101.068 59.2862 94.1491 64.2578 88.6804C69.2294 83.2116 75.8582 79.1515 84.1442 76.5C92.4302 73.8485 102.663 72.5227 114.844 72.5227V96.8835C105.232 96.8835 97.6503 98.375 92.0987 101.358C86.63 104.341 82.7356 108.981 80.4155 115.278C78.1783 121.493 77.0597 129.447 77.0597 139.142V188.858C77.0597 195.321 76.1896 201.204 74.4496 206.507C72.7924 211.81 69.6851 216.367 65.1279 220.179C60.5706 223.991 54.0661 226.932 45.6144 229.004C37.2455 231.075 26.3494 232.111 12.9261 232.111ZM114.844 390.705C102.663 390.705 92.4302 389.379 84.1442 386.727C75.8582 384.076 69.2294 380.016 64.2578 374.547C59.2862 369.078 55.6818 362.159 53.4446 353.79C51.2903 345.422 50.2131 335.52 50.2131 324.085V284.312C50.2131 270.723 47.4373 261.029 41.8857 255.229C36.4169 249.428 26.7637 246.528 12.9261 246.528V231.116C26.3494 231.116 37.2455 232.152 45.6144 234.224C54.0661 236.295 60.5706 239.237 65.1279 243.048C69.6851 246.86 72.7924 251.417 74.4496 256.72C76.1896 262.023 77.0597 267.906 77.0597 274.369V324.085C77.0597 333.78 78.1783 341.734 80.4155 347.949C82.7356 354.163 86.63 358.762 92.0987 361.745C97.6503 364.811 105.232 366.344 114.844 366.344V390.705ZM12.9261 246.528V216.699H42.2585V246.528H12.9261Z" fill="#888888"/>
<path d="M437.531 231.116V246.528C423.694 246.528 413.999 249.428 408.447 255.229C402.979 261.029 400.244 270.723 400.244 284.312V324.085C400.244 335.52 399.126 345.422 396.888 353.79C394.734 362.159 391.171 369.078 386.199 374.547C381.228 380.016 374.599 384.076 366.313 386.727C358.027 389.379 347.794 390.705 335.613 390.705V366.344C345.225 366.344 352.765 364.811 358.234 361.745C363.786 358.762 367.68 354.163 369.917 347.949C372.238 341.734 373.398 333.78 373.398 324.085V274.369C373.398 267.906 374.226 262.023 375.883 256.72C377.623 251.417 380.772 246.86 385.329 243.048C389.887 239.237 396.35 236.295 404.719 234.224C413.17 232.152 424.108 231.116 437.531 231.116ZM335.613 72.5227C347.794 72.5227 358.027 73.8485 366.313 76.5C374.599 79.1515 381.228 83.2116 386.199 88.6804C391.171 94.1491 394.734 101.068 396.888 109.437C399.126 117.806 400.244 127.707 400.244 139.142V178.915C400.244 192.504 402.979 202.198 408.447 207.999C413.999 213.799 423.694 216.699 437.531 216.699V232.111C424.108 232.111 413.17 231.075 404.719 229.004C396.35 226.932 389.887 223.991 385.329 220.179C380.772 216.367 377.623 211.81 375.883 206.507C374.226 201.204 373.398 195.321 373.398 188.858V139.142C373.398 129.447 372.238 121.493 369.917 115.278C367.68 108.981 363.786 104.341 358.234 101.358C352.765 98.375 345.225 96.8835 335.613 96.8835V72.5227ZM437.531 216.699V246.528H408.199V216.699H437.531Z" fill="#888888"/>
<path fill-rule="evenodd" clip-rule="evenodd" d="M303.054 158.566C303.057 158.567 303.051 158.596 303.029 158.655C303.04 158.596 303.052 158.566 303.054 158.566ZM300.897 156.761C302.049 157.822 302.601 158.57 302.854 159C302.601 159.43 302.049 160.178 300.897 161.239C298.188 163.731 293.386 166.711 286.104 169.545C271.642 175.174 250.574 179 226.5 179C202.426 179 181.358 175.174 166.896 169.545C159.614 166.711 154.812 163.731 152.103 161.239C150.951 160.178 150.399 159.43 150.146 159C150.399 158.57 150.951 157.822 152.103 156.761C154.812 154.269 159.614 151.289 166.896 148.455C181.358 142.826 202.426 139 226.5 139C250.574 139 271.642 142.826 286.104 148.455C293.386 151.289 298.188 154.269 300.897 156.761ZM149.946 158.566C149.948 158.566 149.96 158.596 149.971 158.655C149.949 158.596 149.943 158.567 149.946 158.566ZM303 179.244C286.352 188.755 258.3 195 226.5 195C194.7 195 166.648 188.755 150 179.244L150 195H150.146C150.399 195.43 150.951 196.178 152.103 197.239C154.812 199.731 159.614 202.711 166.896 205.545C181.358 211.174 202.426 215 226.5 215C250.574 215 271.642 211.174 286.104 205.545C293.386 202.711 298.188 199.731 300.897 197.239C302.049 196.178 302.601 195.43 302.854 195H303V179.244ZM319 159C319 139.118 277.586 123 226.5 123C175.414 123 134 139.118 134 159V195V195.007V231L134 231.009L134 267L134 267.012L134 303C134 322.882 175.414 339 226.5 339C277.586 339 319 322.882 319 303V267V231V195V159ZM303 215.244C286.352 224.755 258.3 231 226.5 231C194.7 231 166.648 224.755 150 215.244L150 231H150.146C150.399 231.43 150.951 232.178 152.103 233.239C154.812 235.731 159.614 238.711 166.896 241.545C181.358 247.174 202.426 251 226.5 251C250.574 251 271.642 247.174 286.104 241.545C293.386 238.711 298.188 235.731 300.897 233.239C302.049 232.178 302.601 231.43 302.854 231H303V215.244ZM303 251.244C286.352 260.755 258.3 267 226.5 267C194.7 267 166.648 260.755 150 251.244V267H150.146C150.399 267.43 150.951 268.178 152.103 269.239C154.812 271.731 159.614 274.711 166.896 277.545C181.358 283.174 202.426 287 226.5 287C250.574 287 271.642 283.174 286.104 277.545C293.386 274.711 298.188 271.731 300.897 269.239C302.049 268.178 302.601 267.43 302.854 267H303V251.244ZM303 287.244C286.352 296.755 258.3 303 226.5 303C194.7 303 166.648 296.755 150 287.244V303H150.146C150.399 303.43 150.951 304.178 152.103 305.239C154.812 307.731 159.614 310.711 166.896 313.545C181.358 319.174 202.426 323 226.5 323C250.574 323 271.642 319.174 286.104 313.545C293.386 310.711 298.188 307.731 300.897 305.239C302.049 304.178 302.601 303.43 302.854 303H303V287.244ZM149.946 303.434C149.943 303.433 149.949 303.404 149.971 303.345C149.96 303.404 149.948 303.434 149.946 303.434ZM303.029 303.345C303.051 303.404 303.057 303.433 303.054 303.434C303.052 303.434 303.04 303.404 303.029 303.345Z" fill="#7300A9"/>
</svg>
